/* XPM */
static char *_5716d35d2a842ccf111b2a921f68a35EUQcQN4rtMn4q9yS[] = {
/* columns rows colors chars-per-pixel */
"60 60 142 2 ",
"   c #062643",
".  c #072A46",
"X  c #082B46",
"o  c #072C48",
"O  c #082E49",
"+  c #07324F",
"@  c #09334D",
"#  c #0A3651",
"$  c #0A3B55",
"%  c #0B3E59",
"&  c #0D435C",
"*  c #10465E",
"=  c #10485F",
"-  c #0E4660",
";  c #0E4962",
":  c #104760",
">  c #124C64",
",  c #134F68",
"<  c #155067",
"1  c #185166",
"2  c #155269",
"3  c #1A556B",
"4  c #1D596E",
"5  c #1D5C71",
"6  c #205A6F",
"7  c #225E72",
"8  c #1F6175",
"9  c #246275",
"0  c #286476",
"q  c #246679",
"w  c #296679",
"e  c #266A7C",
"r  c #2B6A7B",
"t  c #2B6B7B",
"y  c #2B697A",
"u  c #2B6A7D",
"i  c #2A6C7C",
"p  c #296D7E",
"a  c #2A6C7E",
"s  c #2B6C7E",
"d  c #2D6C7D",
"f  c #2D6C7E",
"g  c #2C6D7E",
"h  c #2D6D7E",
"j  c #2F6E7F",
"k  c #2C6B7D",
"l  c #316E7E",
"z  c #306F7E",
"x  c #306E7F",
"c  c #306E7E",
"v  c #30707F",
"b  c #276E80",
"n  c #2E6F80",
"m  c #2C6E80",
"M  c #316F80",
"N  c #277083",
"B  c #2B7080",
"V  c #2B7383",
"C  c #2D7383",
"Z  c #2F7A8A",
"A  c #317080",
"S  c #317382",
"D  c #317383",
"F  c #347283",
"G  c #337384",
"H  c #337585",
"J  c #307685",
"K  c #337586",
"L  c #337686",
"P  c #347685",
"I  c #347785",
"U  c #347686",
"Y  c #337483",
"T  c #387786",
"R  c #367887",
"E  c #387987",
"W  c #347B89",
"Q  c #377A89",
"!  c #337E8C",
"~  c #367F8C",
"^  c #347A89",
"/  c #3A7C89",
"(  c #397C8A",
")  c #387D8B",
"_  c #3A7C8B",
"`  c #3A7D8B",
"'  c #3A7F8F",
"]  c #3C7E8C",
"[  c #3A7C8B",
"{  c #36808E",
"}  c #3D808D",
"|  c #3C818F",
" . c #3D828F",
".. c #3D818E",
"X. c #368190",
"o. c #378492",
"O. c #3C8390",
"+. c #3D8390",
"@. c #3E8492",
"#. c #3F8693",
"$. c #3E8491",
"%. c #3F8893",
"&. c #3E8995",
"*. c #3D8E9F",
"=. c #40848F",
"-. c #428794",
";. c #418692",
":. c #418894",
">. c #428895",
",. c #438994",
"<. c #438A96",
"1. c #438B97",
"2. c #448B97",
"3. c #458D97",
"4. c #448A95",
"5. c #488A95",
"6. c #438C98",
"7. c #448C99",
"8. c #468F9A",
"9. c #448E99",
"0. c #488F99",
"q. c #46939C",
"w. c #49939C",
"e. c #4B959D",
"r. c #4A959E",
"t. c #4B969F",
"y. c #4B979F",
"u. c #4A929C",
"i. c #4D989F",
"p. c #4C97A0",
"a. c #4F9CA4",
"s. c #4D9AA2",
"d. c #529FA5",
"f. c #529DA5",
"g. c #54A1A7",
"h. c #56A4A9",
"j. c #57A8AC",
"k. c #58AAAE",
"l. c #59ACAE",
"z. c #5DADB0",
"x. c #5CB0B2",
"c. c #64B8B7",
/* pixels */
"& > 2 > & % > 5 9 9 3 , > > $ $ % > 0 t w F >.6.+.g q w J S 9 9 ` 8.U 9 < $ @ X . . X   . @ @ $ % & > 2 > & % > 4 5 5 2 ",
"- > > > & - 8 ! J t 4 , = & $ $ & 1 0 z ) ] >.l.e.z z z )  .U S >. .t 4 = @ X .   .     X O + $ % & > < > & - 3 p p q 7 ",
"> - > 2 > > q X.g 7 1 % # $ $ % & 1 6 t ) #.2.x.k.3.) ) d.w.+.) n 7 4 = $ @ O O O O X X O O @ $ & - > > , , , 7 ~ Q p 4 ",
"4 5 q 9 5 > > 5 3 2 > $ + % $ & = , 3 q g g  .a.e.e.>.%.e.#.U g 4 3 > % $ @ @ @ @ @ @ @ + @ $ & & > < 2 5 4 2 > 5 9 3 1 ",
"4 e B 9 2 & > 4 3 > & % % & & & > > 2 7 w w G -.8.>.Q J J g r w 5 , & % $ @ @ O o @ # $ $ % & = - < 8 B p 9 3 & 2 4 2 > ",
"2 5 5 , 2 2 9 8 3 < ; & ; & & > > & > 4 r z d d E ) t g g r r t 4 > & % % $ + O O @ @ $ % % > 3 2 3 4 r q 3 > > 5 4 3 > ",
"2 2 & > 8 3 q C 9 4 3 > > 2 3 9 2 & > 7 z U w 7 Y Q 9 w U Y 7 4 1 ; % $ & & $ # $ # # # % & > 4 5 4 3 3 > 2 8 5 B B 5 2 ",
"< > > 2 5 2 3 8 2 < 3 2 > > > 4 > % & 1 0 w 3 4 w d 9 w U z 4 1 > : % % & ; & $ $ $ # $ % & > , 3 3 3 > > 4 5 < q p 4 4 ",
"; , 5 b q 2 - > & # $ % # + # & % @ # & 2 4 3 3 7 g g g E S 9 3 & & & & - > ; % + + @ $ # $ - - - > > 2 5 q 5 < 2 < & % ",
"3 5 V X.p < $ % % + @ @ . . + @ @ $ % = > 3 7 3 9 g w 7 r S 9 > % % & & 2 2 & @ + @ @ @ + # & - > < 2 8 Z ! q > % & # . ",
"> 2 e o.q & & & & % # @ + O @ @ @ % > 3 1 1 7 7 g S M 9 w g 7 > % $ $ % 2 < $ @ $ $ @ + + + $ & > 2 3 5 ! o.9 & % & $ + ",
"> 8 q J 5 > - & & % + O . . O O @ & 2 1 1 3 7 S ` #.` ) ) R g 4 & # + $ > > $ @ % % $ @ @ O $ - > - 2 5 C Q 4 ; ; - & # ",
"q 9 q 7 3 > $ $ # O . . . O . X $ > > & , 4 t Q ;.a.e.Q g S p 3 & $ # & > & % # $ $ @ @ @ # & & > 2 q q p r 5 ; $ $ @ o ",
", < 2 & & ; & % $ # + @ + + . O $ & & & , 4 g E  .w.>.g 7 7 4 > % % - > > % + + @ @ @ + $ & - > 3 5 5 7 5 2 > - % $ + O ",
"> & & & ; ; & % % & $ + + O O $ $ % % & 2 1 7 U R #.J w w 7 , > & % = > > % @ @ @ @ @ @ @ $ > q 5 > & & & & ; ; & % % $ ",
"4 5 < & ; & - & % & $ % # # $ % $ % % & , 3 w M R ) r 0 g g 4 3 > & % & = & & % $ @ @ @ $ & 2 b p 5 > < - ; > & - % % % ",
"q 5 & $ % ; ; > ; & # % $ $ & & % % & & > 9 g n +.=.U F E M 0 9 2 > % % > - & % % # + $ $ & > , 9 9 5 4 & % - ; ; - & # ",
"C 8 > % - ; < , & + . + # # % % % % % & < B Q C q.u.u.2.;. .U w 4 2 = , 3 , = > > $ + $ $ & > 2 9 J q 2 & % ; , < ; $ . ",
"{ e - % 2 2 < - $ o o + # $ & & & & = > 7 p q B *.#.3.w.s.g.>.J w 7 5 9 7 4 2 4 , & $ $ $ & > 2 q ~ J 5 % ; 2 < > & + . ",
"p q - & 2 5 2 ; & $ # % & & & > ; & > 3 9 1 3 9 n d d %.s.q.#.E t 0 d g p 9 4 7 3 & & % % & 2 q C n C 3 % > 5 5 < - % # ",
"C B 2 , , 9 3 > ; & - ; > > > 2 > & > 4 4 1 3 7 7 9 7 ( >.p 0 r 0 w S U p 1 1 7 4 = & & & , b o.Q p ! q 2 > 5 9 2 > ; & ",
"&.J 7 2 2 5 3 > & & & - > > > 2 < & < 9 7 4 3 6 7 0 9 ) #.t 7 6 3 7 t n 4 > , 5 4 > > > > 3 7 B ` { 6.g 5 2 3 5 2 ; & & ",
"{ J 7 2 > > > - & & & > < < > 1 3 > 1 q g w 9 r S d t E ) z 0 4 6 9 t 7 , > , 7 q 4 3 4 4 7 7 9 G o.&.r 5 2 2 2 ; - & & ",
"q 5 , - & & & & & & - > < > > 3 5 4 7 J R S z z r M F +.#.E U r r M J 9 3 3 5 9 9 7 9 q 9 7 1 5 n B q 3 , ; ; - & & - - ",
"9 4 & & & & & - & - ; , > & > , 5 g g U Q S r 0 9 E  .F ` ;.2.) U R U w 4 9 t w 7 3 7 q 9 2 4 q t g 9 - & - - - - & - ; ",
"9 3 > & % % % - & - , > > & & > 4 p g d S z F S M S ) g U E  .;.;.;.U r w d U S w 7 r g w 7 9 t g q 7 > - % % & - & - ; ",
"q 5 2 - & & $ % & ; ; > > & & & , 7 9 t g 9 d F U E ] E ` ;.+.E ;.]  .U S R  .U 9 9 U J 9 4 9 4 5 q 9 3 - % % $ % & ; ; ",
"> > > ; - ; % % & > 2 > & & > > , 9 7 3 7 7 3 9 z ) ;.] R E S r M ] ] ] R S U S 7 g S g 3 3 9 , , 1 , 2 > - & $ % - < < ",
"& $ % $ & ; % % % > 2 2 > > 3 3 5 7 4 3 1 3 6 7 7 M ;.+.) S 7 0 S E  .>.R S U E g U ) Q q 7 9 2 > & % & % ; - $ & % > < ",
"$ % $ % % % % % % % ; 2 2 - > 3 7 7 6 3 1 , 5 g g d U ] U g w z F F z R U g d U ) { ;.` J 9 9 4 & % % $ & & % % % % % - ",
"; ; & % % $ % $ % % - > > & & > 7 n 5 3 3 6 7 g ) S d z F F U E E g 0 r  .E U #.;.R z 9 7 t r 5 , > > & & % $ % % $ % ; ",
"2 3 < > - % % $ $ # $ > > > = > 4 g t 6 7 S z z S E E S U U U E U r 7 9 Q 3. .;.) r 7 1 1 7 9 9 7 2 3 , > & % % $ % $ % ",
"2 4 2 - & > & # + + & 3 4 4 4 4 1 t S r v E R r r z U U ] E ) E S w 0 7 w S z w z t < 1 4 4 5 4 3 3 5 2 > ; ; % # + + % ",
"> 1 2 > & & $ + @ # > 4 3 4 7 7 4 9 U ;.3.0.0.U g U E ] ;. . .T z w 0 9 7 7 S z 9 4 3 2 4 9 9 3 2 3 4 2 > & & # + + # > ",
"2 3 4 4 % # # O + $ > 4 5 5 5 6 4 7 d S  .2.2.;.E R u.s.;.] ) U F z g d 6 1 3 6 3 1 3 3 7 4 3 > 3 4 4 5 4 % # @ O O # > ",
"> 2 2 > $ @ $ # # % , 4 9 q q t w w w 7 w F F F E E 2.e.+. .Q  .;.E U F 7 3 > , > > 3 9 9 3 3 3 1 3 3 4 > $ @ $ @ + $ ; ",
"> 2 3 & & # # & & & > 3 9 q 9 9 9 w 7 0 z F T S E E #.+.>.8. .] 2.2. .U 0 4 > = & > 1 5 7 5 3 3 > , 4 3 & & $ # % & % & ",
"> 3 4 5 > # + > 3 2 , 2 3 7 3 , 4 7 7 9 z ] 2.;.] ] ] ) `  .S z / 5.,.U 0 3 = & $ % & > , 3 3 > - 3 4 4 5 > $ + & < > ; ",
"> 3 7 5 & # % , 3 1 , > > 2 > & , 4 r w w ) e.u.,.T l d U ` M w E u.2.S 7 > % # @ # & & & > > & > 2 4 q q , # $ & 2 , > ",
"> 3 3 , & & > 4 5 6 3 2 2 > & & & 4 z E ) ] 3.g.u.z z S E =.] F ,.p.#.g 3 * # @ @ @ & & & & % % & , 3 4 3 & % & 2 3 3 , ",
"> 2 3 , & - 5 C B t 4 2 & % $ % : 4 w F ;.u.u.c.z.>.` U 0.g.0.;.;.U 0 4 & $ @ O . X + @ + @ $ $ & > 2 3 2 & & 2 e p t 7 ",
"> , , > > > e o.J 9 1 - $ $ % % > 3 7 d E ] 8.j.h.p.8.#.d.d.;.] S 6 4 > % @ O .   . .   O @ @ $ & = > < > - > 9 &.` g 5 ",
"> > , 3 3 > , 9 5 3 , & # % % & > , 6 0 g d E w.i.e.u. .;.` E M 0 6 < & $ # + @ @ O O O @ @ $ & & > , > 2 3 2 3 q q 4 3 ",
"4 4 9 9 7 , & 3 4 , - & % & & > > > < 7 d g S E #.{ G S S g t g w 1 > & $ $ + O O @ $ # @ $ & & : 3 4 5 9 7 3 - 2 4 2 > ",
"5 p C q 5 & & 3 3 , & & ; - > 2 , & > 7 z U d 9 S ` d g S S d w 9 < & % % % # O O @ $ $ % & > > , 3 q W B 9 2 & 2 5 2 ; ",
"3 7 q 3 2 > 5 p 8 4 , > > 2 3 q 2 & > 4 g S 7 6 M U 9 9 U Q 9 1 1 > & $ $ & & $ # # # $ & & 2 5 4 3 5 t 9 2 > 2 e 8 3 > ",
"2 2 > > 5 4 9 W q 5 5 2 > > > 2 > $ % > 7 7 , 1 9 d t w S S 9 3 , & & % % & > & $ # # $ & ; > 4 9 4 3 3 = 2 8 5 V Z 9 5 ",
"< > - 2 5 , 3 5 < > > > % # # % % # # % > 3 3 1 3 d t 9 B J q 3 = % & & & > > & # + @ $ $ % > > , 2 2 > > 3 4 2 8 9 2 2 ",
"; > 5 q q 2 - > & + @ @ X O @ @ # % & : > 2 4 3 7 r q 4 7 w 9 > % $ % $ & 5 > % + @ # @ + # & - & ; > , 5 e 8 > > > % # ",
"2 5 N { p 2 $ % % # @ O O O + + $ & 2 3 2 2 4 7 g S M w r g 9 2 & $ @ # - 2 > # # $ @ + + @ $ & > 2 3 8 W ! q ; $ & $ O ",
"> 2 q o.p - - ; & % + O O O @ O # & 2 2 2 3 4 g ) ;. .` ` Q n 4 & # @ # & > & + # % $ @ + O # & > , 2 5 W o.5 & & & & $ ",
"> 5 q W 9 > & & % + . .   . . O $ > > & > 4 t R +.s.s.W w p q 2 & % $ % > & % $ # $ # @ @ O $ & - & 2 5 C J 2 ; ; - & # ",
"9 9 q q 4 > $ $ + o O O O @ . o $ & & % > 3 q Q ` 8.#.t 3 3 < > $ $ & > > & @ + # @ @ + $ % & & > 3 q q r q 4 - $ # + . ",
"> > < > & ; & % % $ # + + @ o + $ % % & > > 3 g G ` n 9 7 4 > & % $ & - & & $ $ @ @ @ @ @ $ & > 2 4 4 5 4 > > - % % # + ",
"< & & & ; & & % $ % $ # + O @ $ $ % % % > 3 q d B J 9 3 9 q 2 > - % $ % & & % % $ @ + + @ # & 8 q 2 & & & & ; ; & % % % ",
"4 5 < & ; & - & & & $ % $ $ & % % % % & - 5 q d Q J w q g q 3 3 > & $ # & & % % & # + # # % > q b 8 2 < - ; > & - % % % ",
"9 5 & # $ ; ; , ; $ o $ # $ & & % % % & < r g n &.#.) U J p q 5 2 > % & > > & > ; $ + # # % - > 5 q 9 3 % $ & ; ; - & $ ",
"B 8 ; $ ; , , ; % o . + # $ & - & & & > 8 q q B s.q.6.>.&.6.W q 5 3 , 4 3 2 > 2 > & % # $ % > > 5 W p 2 & $ - , < ; $ . ",
"Z q & $ 2 2 < - $ + + # % & - > - & & 3 4 > 2 9 J J J #.q.q.W p 7 7 9 q 9 4 > 3 2 & & % % & > 2 q C W 5 % & 2 < > & + . ",
"q q & % < 5 2 ; & $ $ & ; - ; > ; & > 3 , > , 4 9 7 3 e { q 4 7 3 4 9 q q < & , 2 - & & & & 2 b B q V 4 % & 2 5 , - $ + "
};
