/* XPM */
static char *_bfd73f2e42449decc4414249394d681Qnq30X9OMB24K8to[] = {
/* columns rows colors chars-per-pixel */
"30 30 215 2 ",
"   c #040403",
".  c #0C0C0B",
"X  c #0E1204",
"o  c #121212",
"O  c #1D1C1F",
"+  c #191F13",
"@  c #090A1F",
"#  c #350700",
"$  c #191A23",
"%  c #201F24",
"&  c #291E24",
"*  c #1F2523",
"=  c #232325",
"-  c #242429",
";  c #2B2B2E",
":  c #232A2A",
">  c #312D22",
",  c #35322C",
"<  c #2C2D32",
"1  c #362E3B",
"2  c #333334",
"3  c #36353A",
"4  c #39373C",
"5  c #3B3A3D",
"6  c #3C3835",
"7  c #2C352F",
"8  c #401A0F",
"9  c #592816",
"0  c #512C0A",
"q  c #6E3B1E",
"w  c #743B16",
"e  c #68320E",
"r  c #402B32",
"t  c #44393D",
"y  c #763D2A",
"u  c #42433D",
"i  c #56473A",
"p  c #514D35",
"a  c #7E442E",
"s  c #64483C",
"d  c #2F2E4D",
"f  c #3D3C40",
"g  c #2C3050",
"h  c #433D41",
"j  c #434343",
"k  c #454A4C",
"l  c #4A4A4C",
"z  c #474747",
"x  c #53474A",
"c  c #474B50",
"v  c #4E4E52",
"b  c #4B4958",
"n  c #524D52",
"m  c #594D58",
"M  c #4C5053",
"N  c #545254",
"B  c #595053",
"V  c #5B555D",
"C  c #5B5A5D",
"Z  c #555758",
"A  c #57534A",
"S  c #6E5244",
"D  c #755B4F",
"F  c #615D5C",
"G  c #64525D",
"H  c #5D675F",
"J  c #63655B",
"K  c #676D5F",
"L  c #7B6355",
"P  c #767A53",
"I  c #5B5461",
"U  c #5D5C62",
"Y  c #59586A",
"T  c #625C64",
"R  c #6A5C65",
"E  c #635D6B",
"W  c #6B5A67",
"Q  c #605D70",
"!  c #5E6364",
"~  c #636266",
"^  c #666569",
"/  c #6A646C",
"(  c #6B6B6D",
")  c #6B6A63",
"_  c #74696C",
"`  c #75776F",
"'  c #6D6673",
"]  c #6D6B73",
"[  c #696A79",
"{  c #666573",
"}  c #726573",
"|  c #746C75",
" . c #766A76",
".. c #6C7076",
"X. c #747475",
"o. c #757579",
"O. c #7A747C",
"+. c #7B7A7C",
"@. c #7A7A76",
"#. c #85601A",
"$. c #8F5536",
"%. c #9D782D",
"&. c #9D6638",
"*. c #9B6235",
"=. c #83675A",
"-. c #8B6944",
";. c #A97D49",
":. c #A17C50",
">. c #917367",
",. c #77807F",
"<. c #A98A5B",
"1. c #AD8954",
"2. c #84817C",
"3. c #B59767",
"4. c #AA9478",
"5. c #AC9062",
"6. c #C7A976",
"7. c #E4BF69",
"8. c #E4B972",
"9. c #DEC066",
"0. c #F1CD6D",
"q. c #E8C478",
"w. c #F0D17F",
"e. c #EBC66D",
"r. c #7C7C82",
"t. c #787784",
"y. c #767A95",
"u. c #807E83",
"i. c #858585",
"p. c #8C8C8C",
"a. c #898A85",
"s. c #958E8A",
"d. c #8F8F91",
"f. c #858C94",
"g. c #8F9094",
"h. c #939394",
"j. c #9B9C9C",
"k. c #9D979A",
"l. c #96968E",
"z. c #AA9889",
"x. c #B39F98",
"c. c #AAAE9F",
"v. c #BAA99F",
"b. c #A7A78B",
"n. c #8384A0",
"m. c #9E97A1",
"M. c #9E9EA2",
"N. c #9097A1",
"B. c #A49EA4",
"V. c #A3A3A4",
"C. c #ADA5AC",
"Z. c #ABABAC",
"A. c #A6A9AC",
"S. c #B0B1A3",
"D. c #AEB2B7",
"F. c #B4B4B4",
"G. c #BAB4BB",
"H. c #BBBBBC",
"J. c #B7BAB9",
"K. c #ABA8B5",
"L. c #DABD86",
"P. c #C5A59A",
"I. c #C7BABB",
"U. c #C7A6A1",
"Y. c #CBC292",
"T. c #E4C383",
"R. c #E8C88C",
"E. c #F2D488",
"W. c #EDCB96",
"Q. c #F5CB95",
"!. c #F7D399",
"~. c #E9D48A",
"^. c #DCCFBE",
"/. c #BCBBC0",
"(. c #BEBEC8",
"). c #C0BFC3",
"_. c #C3C2C4",
"`. c #CACBC4",
"'. c #CBC3C9",
"]. c #CDCDCE",
"[. c #CACACB",
"{. c #C6C9C7",
"}. c #D7D2CA",
"|. c #CDCFD1",
" X c #C6C9D8",
".X c #D2CBD1",
"XX c #CCD1D1",
"oX c #CED2D9",
"OX c #D1D1D2",
"+X c #D2D2D5",
"@X c #D5D5D6",
"#X c #D2D1D3",
"$X c #D6D5D9",
"%X c #D3D5DC",
"&X c #DAD5DA",
"*X c #D6DADC",
"=X c #D9D9DA",
"-X c #DEDEDE",
";X c #DADBDC",
":X c #D5D7D5",
">X c #DDCACC",
",X c #E2DCD4",
"<X c #F8E0DE",
"1X c #DEDEE2",
"2X c #DDDAE3",
"3X c #E2DEE3",
"4X c #E0E0E1",
"5X c #E5E5E6",
"6X c #E1E0E5",
"7X c #E4E3E8",
"8X c #E7E7E9",
"9X c #EBEBEB",
"0X c #EAE4E6",
"qX c #EEE9F0",
"wX c #F0E9F1",
/* pixels */
"= j 2 4 5 2 5 3 5 5 5 5 5 5 5 5 3 3 4 4 5 5 4 4 5 2 2 j 2 = ",
"j.=X@X-X].=X=X[.+X+X+X+X+X+X+X+X$X$X$X$X$X$X$X@X[.4X@XOX4XJ.",
"j.4X=X=X-X=X4X9X5X5X7X7X7X7X7X7X3X3X1X1X1X1X4X4X8X1X-XOX9Xj.",
"p._.Z.F.j.J.Z.h.M.M.M.M.M.M.M.M.B.V.V.V.V.V.A.A.Z.A.J.Z.J.V.",
"O ; 2 2 V.= o 2 = = - - - - - - $ % = = % % = = f j.; 5 4 ; ",
"+.p.i.p.= ( _.H.H.H././././././._._._._.)./._._.p.X.j.X.i.h.",
"j.].@XOX  X.5X1X5X5X7X7X7X7X7X7X3X6X6X1X1X1X8X9XA.C 9X].-XZ.",
"h.OX].J.. X.+X].H.H././././././././.H.H.H._.].@Xi.r.]._._.Z.",
"h.]._.J.  X.OX;Xp.; ; - 3 2 - ; ; < ; < = ^ +X1Xh.( OXJ.].A.",
"p.J.F.Z.. X.|.=Xo.3 f 4 5 3 - 3 4 4 4 4 O N [.@Xh.( _.F.J.j.",
"p.Z.V.V.o X.+X@X+.C U U C U 4 N ~ V U U - v OX-Xj.( Z.j.A.j.",
"C X.X.(   ( +X].o.^ U ^ ( o.5 n o.~ ] o.; z OX=Xd.l i.( X.( ",
"+.A.A.h.. X.4X;Xo.( U ^ ( +.3 l o.~ ( +.< z +X@Xj.^ J.h.A.i.",
"V.5X9X_.o ( ].].+.X.^ ( ^ X.5 Z X.~ ^ +.3 l =X$Xp.X.9X=X5XJ.",
"j.4X4X[.o X.OX;Xo.^ ~ ~ U ^ 3 n ^ U C ] < j @X@Xh.+.9X=X-XZ.",
"g._.F.F.  X.].=Xu.~ U T ~ ( f v ^ ^ C ( ; j $X;Xh.] ).G.G.V.",
"f.D.J.D.  +.OX$X+.U b m n V < n N z z Z * z XX*Xh.( '.B.G.m.",
"N.D.A.j.o +.].+X+.E I T I ^ 2 n F N Z ! : k XX;Xd./ I.C.F.k.",
"+.M.j.a.. ( {.;Xr.| ' | ' O.h B +. .[ X.2 k XX:XV.) k.s.l.a.",
"U X.( `   +.=X+XO.[ { ' / O.5 x } W / ] < k XX;Xa.j @.) ` J ",
"k.$X$X[.  ( @X%Xt.[ Q E E | 5 n } R / ] < k XX;XM.O.3XOX$XZ.",
"B.0X-X}.. @.*XoXt.{ Y Y V / 6 n } R ~ ( < k |.*Xh.O.wX2XqXG.",
"_ `.J.S.X K `.*XX.U M Z N F > x B x n U - k oX1Xm. ..XG.).C.",
"6 2.J J + ` `.:X,.~ Z ~ F ) , A _ T U ^ ; k |.&Xs._ I.v.x.z.",
"1 b $ c - ..*X%Xt.[ Y [ ' O.t B | | ] +., u }.,Xz.p 4.3.6.<.",
"d Y @ b $ ..(.2Xr.' I ' } } 1 m } T T X.2 z }.^.4.0 -.:.3.;.",
"g y.n.K.- O.3X3X| R m G W W r x  .G V R & t >X<XU.8 9 9 q q ",
"g y. XA., i v.z.L =.=.D L =.s S D D L >.i i z.P.>.# 9 y a $.",
": H c.b.Y.5.<.1.6.T.Q.R.!.W.L.W.E.E.T.T.L.3.<.<.5.0 e w w *.",
"7 p P P Y.~.q.w.q.8.q.8.8.%.#.%.e.0.7.9.E.E.T.!.Q.;.&.&.*.1."
};
