/* XPM */
static char *daab7c0681a94707c75650f652f9eff7O1TiDpOdmHg3i2pi[] = {
/* columns rows colors chars-per-pixel */
"64 64 173 2 ",
"   c #060402",
".  c #080707",
"X  c #0A0A06",
"o  c #0B0B09",
"O  c #14130F",
"+  c #181917",
"@  c #25241D",
"#  c #1D1C22",
"$  c #1F2125",
"%  c #222326",
"&  c #2B2A21",
"*  c #23262A",
"=  c #25292C",
"-  c #2B2C2E",
";  c #2D302E",
":  c #34342C",
">  c #38372E",
",  c #2A2D32",
"<  c #2E3234",
"1  c #2D3238",
"2  c #333534",
"3  c #353835",
"4  c #3A3A36",
"5  c #32353A",
"6  c #363A3E",
"7  c #3B3D3C",
"8  c #3E423E",
"9  c #44433E",
"0  c #4A4A3D",
"q  c #504B3D",
"w  c #373B41",
"e  c #3B3E42",
"r  c #3D4244",
"t  c #434543",
"y  c #484542",
"u  c #464945",
"i  c #4A4B45",
"p  c #424449",
"a  c #464B4C",
"s  c #4A4D4C",
"d  c #504E47",
"f  c #514E4C",
"g  c #4E514D",
"h  c #515147",
"j  c #52534D",
"k  c #5B594E",
"l  c #4A4D51",
"z  c #4D5251",
"x  c #525453",
"c  c #555955",
"v  c #5C5B53",
"b  c #54555B",
"n  c #565B59",
"m  c #5A5D5B",
"M  c #625F52",
"N  c #5D605D",
"B  c #63635B",
"V  c #676559",
"C  c #69655D",
"Z  c #575B65",
"A  c #5E6361",
"S  c #636664",
"D  c #666766",
"F  c #6C6C64",
"G  c #666B6A",
"H  c #6B6C69",
"J  c #716D64",
"K  c #6C706F",
"L  c #737266",
"P  c #74736B",
"I  c #7B766B",
"U  c #7C7A6C",
"Y  c #6E7070",
"T  c #757672",
"R  c #787871",
"E  c #7B7B73",
"W  c #7D7E7A",
"Q  c #807B6F",
"!  c #827E73",
"~  c #807E7B",
"^  c #95853E",
"/  c #848173",
"(  c #888376",
")  c #84837C",
"_  c #8C897D",
"`  c #918474",
"'  c #9B947C",
"]  c #A39266",
"[  c #A69C77",
"{  c #B1A261",
"}  c #7C7D81",
"|  c #868581",
" . c #8A8783",
".. c #8D8B82",
"X. c #8E8E89",
"o. c #928E84",
"O. c #968F89",
"+. c #8E9181",
"@. c #949185",
"#. c #9A9486",
"$. c #94938B",
"%. c #98978D",
"&. c #9D9A8C",
"*. c #969592",
"=. c #999693",
"-. c #9C9B94",
";. c #9F9599",
":. c #9E9D99",
">. c #A49A8C",
",. c #A39C96",
"<. c #A19E9B",
"1. c #9EA09C",
"2. c #BAAC81",
"3. c #BBB08D",
"4. c #A5A392",
"5. c #AAA595",
"6. c #A4A19B",
"7. c #ABA69A",
"8. c #AEAB9C",
"9. c #B1A996",
"0. c #B2AD9B",
"q. c #B5B19D",
"w. c #BBB29F",
"e. c #A5A5A1",
"r. c #A9A7A3",
"t. c #A7ABA7",
"y. c #ABABA5",
"u. c #ADABA8",
"i. c #B3ADA7",
"p. c #B5B1A4",
"a. c #BBB4A3",
"s. c #BEB9A3",
"d. c #B3B1AC",
"f. c #BBB6AB",
"g. c #B7B8AB",
"h. c #BBBAAB",
"j. c #B9B5B2",
"k. c #BDB9B7",
"l. c #C0AF85",
"z. c #C2BDA6",
"x. c #C3BDAB",
"c. c #C6BFB1",
"v. c #C2BDBA",
"b. c #C5C1A6",
"n. c #C5C1AC",
"m. c #C8C4BA",
"M. c #CAC5BA",
"N. c #CCC7C4",
"B. c #CECAC4",
"V. c #D1CBC6",
"C. c #D5CDCA",
"Z. c #D9CFCD",
"A. c #D6D2CE",
"S. c #D9D2CE",
"D. c #DDD6D3",
"F. c #DDD8D4",
"G. c #DFDAD6",
"H. c #DEDBD6",
"J. c #E0D6D4",
"K. c #E2D9D6",
"L. c #E0DBD7",
"P. c #E1DBD8",
"I. c #E3DBD8",
"U. c #E1DCD8",
"Y. c #E5DEDB",
"T. c #E4DFDB",
"R. c #E8DFDC",
"E. c #E4E1DC",
"W. c #E6E1DD",
"Q. c #E8E3DF",
"!. c #E9E4E0",
"~. c #ECE7E3",
"^. c #EEE9E5",
/* pixels */
"L.W.W.W.W.W.U.U.U.U.U.U.U.U.U.L.G.G.G.U.U.U.T.T.L.L.L.U.U.U.W.G.D.W.Q.Q.W.!.~.W.T.T.T.T.U.U.U.L.U.L.L.U.G.G.U.U.U.U.U.U.W.W.W.W.",
"G.W.Q.W.W.W.T.T.U.U.U.U.U.U.U.G.G.G.U.L.L.P.P.T.U.L.G.G.G.U.W.G.S.U.W.W.W.W.W.T.U.U.U.U.L.G.L.G.G.G.G.G.G.G.L.L.L.U.U.U.W.W.W.W.",
"L.W.Q.Q.Q.W.Q.W.T.U.U.U.U.U.U.G.G.G.G.L.L.L.P.P.U.G.G.G.G.U.W.G.D.U.U.U.U.T.U.U.L.U.U.U.U.L.U.G.G.G.G.G.G.G.U.U.G.L.U.U.W.W.T.W.",
"U.Q.Q.W.Q.Q.!.!.W.T.W.T.U.U.U.G.G.U.L.G.D.D.L.L.L.G.G.G.U.U.W.G.S.U.U.U.U.U.U.G.G.L.U.U.U.L.U.G.G.G.G.L.L.U.T.U.G.L.U.U.U.T.W.Q.",
"L.!.Q.W.Q.!.!.Q.W.U.W.W.U.U.U.U.U.U.P.L.D.D.D.D.G.G.L.U.U.U.T.G.D.L.U.U.U.U.U.G.D.G.U.U.L.G.U.L.G.G.L.U.U.U.U.L.G.G.U.T.U.T.W.!.",
"G.W.W.W.Q.!.!.!.W.W.W.T.U.U.U.U.U.U.L.L.D.D.D.D.D.U.G.L.U.U.U.D.D.L.U.L.L.U.U.G.D.G.U.L.G.G.L.G.G.G.G.L.L.L.L.L.G.G.L.T.L.U.Q.~.",
"G.W.W.T.W.W.Q.!.!.W.U.U.U.L.L.P.L.L.L.J.J.D.D.D.D.L.G.L.L.G.G.D.D.L.U.U.L.U.U.G.G.L.U.L.G.G.L.G.G.G.G.G.L.L.L.L.L.G.G.U.L.U.!.^.",
"G.W.U.U.T.T.W.W.W.W.U.U.L.G.L.U.L.L.L.J.J.D.D.D.D.D.L.U.L.G.G.D.S.L.U.U.U.U.L.G.G.L.U.L.L.G.U.U.L.G.G.G.L.U.U.L.G.G.G.U.U.U.Q.~.",
"L.W.U.L.U.U.U.T.U.U.U.L.G.G.L.U.L.D.D.L.J.D.D.D.D.D.J.L.J.D.L.D.S.L.L.U.P.U.L.G.L.U.U.L.L.U.U.L.L.D.G.L.L.P.L.L.G.L.L.L.L.U.W.!.",
"G.W.U.U.U.U.U.U.U.U.L.G.G.G.L.L.D.D.D.D.L.J.D.D.D.D.D.D.D.D.L.S.Z.J.L.L.L.U.U.U.U.U.U.U.U.U.U.L.L.D.D.L.L.L.L.L.G.G.G.L.L.U.W.W.",
"G.W.T.U.U.U.U.U.U.U.U.G.L.G.L.L.L.D.D.D.L.L.J.J.J.D.D.D.D.D.P.D.Z.J.D.D.D.U.U.U.U.L.L.U.U.U.U.L.L.D.D.L.L.L.L.J.G.G.L.L.G.G.U.W.",
"G.T.T.U.U.U.U.U.U.U.U.L.L.G.L.L.L.J.D.L.L.L.L.D.D.D.D.D.D.D.P.D.Z.J.D.D.D.U.U.U.L.G.G.L.U.U.U.L.L.D.L.L.L.L.L.J.D.G.G.G.G.G.T.!.",
"G.U.U.U.L.G.L.U.U.U.U.U.U.L.L.L.L.L.D.L.L.P.P.L.D.D.D.D.D.D.P.D.C.D.D.D.D.U.U.L.L.L.L.L.L.U.U.L.D.D.D.L.L.L.L.L.G.G.G.D.G.L.W.!.",
"D.U.U.U.G.L.U.U.U.U.U.U.U.L.U.L.P.L.L.T.P.T.P.D.D.D.D.D.L.L.U.D.C.D.D.D.D.L.U.L.L.L.L.L.G.U.U.G.D.D.L.L.L.L.L.L.G.D.G.G.L.G.T.!.",
"D.U.U.U.U.U.U.U.U.U.U.U.U.L.U.U.U.T.T.T.T.P.L.L.J.J.J.L.P.P.P.D.C.D.D.L.G.L.U.L.G.G.G.G.L.U.U.G.D.D.L.L.L.J.L.L.G.D.G.L.U.L.W.~.",
"D.U.U.U.U.U.U.U.T.T.U.U.U.U.T.W.T.T.T.T.T.T.T.P.J.L.L.P.S.C.D.D.S.J.L.L.L.L.L.L.G.G.G.G.G.L.L.G.D.D.D.D.D.L.L.L.L.G.G.G.L.U.W.!.",
"D.G.U.U.U.W.W.W.W.T.U.U.U.U.T.W.W.T.U.U.T.U.P.L.L.G.v.=.F E h.m.f.m.S.D.L.U.U.L.G.G.G.G.G.G.G.L.D.D.D.L.D.L.L.L.L.G.L.G.G.U.W.!.",
"A.U.U.U.U.U.W.U.L.G.G.L.L.L.U.U.T.T.U.U.U.U.U.S.j.R j t i k 4.x.0.a.n.n.m.m.B.S.D.L.P.U.U.U.L.G.J.D.D.D.L.D.D.L.L.G.G.G.G.U.W.!.",
"A.U.U.U.U.U.W.U.G.G.G.G.G.L.U.U.U.L.P.T.G.N.:.F i 4 j u g i ( x.b.z.b.z.z.q.q.0.f.h.V.S.G.L.U.G.D.J.D.L.L.D.L.L.L.G.G.G.L.U.W.Q.",
"A.G.U.U.T.U.T.U.L.G.G.G.G.U.T.U.U.U.S.j.~ j 7 2 3 t n s g g V p.n.z.z.b.z.b.z.z.z.a.x.x.x.p.C.G.D.D.L.L.L.D.D.L.L.D.L.L.P.T.T.Q.",
"A.G.U.U.U.U.U.U.L.G.G.G.L.T.W.L.N.=.S t 2 3 4 9 u g n a z g j $.5.0.a.s.x.x.n.n.z.z.x.x.z.s.c.S.L.L.L.L.D.D.D.J.L.L.L.P.T.T.Q.Q.",
"S.G.L.L.L.L.L.P.G.G.G.U.U.A.d.W g 4 3 7 t u u u a g n a e 2 2 F J o.o.o.@.&.4.0.a.z.x.x.x.x.x.m.L.L.L.L.L.J.D.J.L.L.L.L.L.T.Q.Q.",
"S.D.D.D.D.L.L.L.L.U.S.k.$.N 9 4 7 8 u u a s a p e 7 c 3 * % * j J @.:.| X.) E I U Q ( #.4.8.a.x.A.P.L.L.L.L.D.D.D.D.D.D.J.P.Q.R.",
"S.D.D.L.L.L.U.U.C.6.H u 4 4 t a s a s a a a 6 = $ - x 4 , - = 7 J ! y.R  .:.%...! L V F C J I E %.Z.L.L.L.L.D.D.D.D.D.D.J.P.R.R.",
"S.G.G.G.L.L.U.B.H g 8 8 u a s s p 7 2 r e e 6 , = < x e e 5 < 2 B L e.-.T 1.e.1.*.X.E P B V L H F r.U.U.L.G.D.D.D.D.D.D.D.P.T.T.",
"S.L.G.G.G.L.T.r.g g t p a s s a 5 = * < = , w 5 5 5 x r e l S 4 d L X.d.E W e.t.e.1.*.) W m T R P ~ C.U.L.G.G.D.D.D.D.D.D.P.T.T.",
"D.L.L.G.G.U.W.<.a t r p a s l s 6 , = 5 , 1 e e w 7 z t p b } t 7 F E d.<. .*.e.u.y.r.$.*.P S W E E 6.G.L.G.G.G.D.D.D.D.D.L.T.T.",
"D.U.L.U.U.U.W.=.< = 6 a s a l l w w < 6 w 5 r e e r x 7 e p m 8 7 n P ..&.%.%.( -.7.7.6.%.-.) ) _ ) | B.G.G.G.G.G.D.D.D.D.L.P.T.",
"G.W.W.W.W.T.W.=.6 , r a a a s s r r r e w 6 w 5 5 7 x 8 e e p u g j E &.&.#.@.U q / _ _ / _ ..( C W ) :.D.G.G.G.L.D.L.D.D.L.P.T.",
"D.T.W.W.W.W.Q.*.r 5 a a l a a a a l p e r a a a a z c a s l s s z g N 7.a.a.a.q.>.0.p.0.0.0.7.5./ / &.,.A.G.G.G.L.D.L.D.L.L.T.T.",
"D.U.U.T.W.W.!.*.r r z a a a a a a a 6 r l z g a s z n s z z s l z z j ..h.z.x.z.z.z.x.x.z.z.z.z.z.z.z.s.m.G.G.G.L.J.L.J.L.P.T.Q.",
"C.D.D.G.L.G.P.*.g z c a a a s s s s e a x x s s s z c s x s s x z g j J 0.a.s.s.s.s.s.z.s.s.s.s.z.z.z.z.h.V.D.D.D.D.D.D.D.D.L.U.",
"C.D.D.D.D.S.J.*.x x c ; 7 a s g x x s x m c s a s j c u f f f f x f f k @.8.0.0.0.0.0.q.0.0.0.q.q.q.q.q.0.f.G.U.G.D.G.D.D.D.G.L.",
"D.L.L.L.J.J.L.O.u a j + 2 u t u s u u c m c a t t u j 7 t 9 y t t t 9 i ! @.I U B v v v v L _ B k k M I ! 6.U.W.T.U.W.U.G.G.L.U.",
"D.P.P.L.J.J.L.=.x x c 7 t s s g j g s m m m s u t y u 4 4 4 4 4 4 4 4 i ! I 0 9 .       O B v X     > C J d.!.Q.W.W.W.U.L.G.L.U.",
"D.P.L.J.J.J.P.<.m m m x g s x S G S m m m m m N A N t a s s s s s s s B ( L L 4 . o o X 4 ) 2   X O B C  .B.Q.W.W.W.U.U.U.L.G.L.",
"S.J.J.D.J.L.P.v.) N x x z 2 8 G G G N m A A A G S S z z z s m x x x j L ( h j @ o o X o B P + X o > E L ,.G.T.U.T.U.U.U.U.U.G.G.",
"Z.J.J.D.D.J.L.P.D.k.*.H m 7 t A A A N n m A A G H A c s $ % p m j j c E / P D @ & : > 0 _ U k B C / ' ' f.U.U.U.U.U.U.L.G.G.G.G.",
"Z.J.D.D.D.J.L.L.L.P.T.S.v.H 3 t N K n < 3 a N K Y m n 3 $ 5 , x j j B _ _ @.>.#.&.&.&.4.4.4.8.p.,.9.3.[ w.D.L.L.L.L.U.L.G.G.G.U.",
"Z.J.J.D.D.J.J.L.L.L.T.T.Q.j.- % e.A.r.W | *.W D D m m 2 - p 2 r Z Z -.q.a.2.{ l.h.g.g.g.h.g.g.u.;.,.' ' x.D.G.G.G.L.U.L.L.G.L.U.",
"S.L.J.D.D.D.L.L.D.D.L.T.T.T.j.k.Q.Q.!.Q.W.W.A.u.=.X.R u - e 2 < Z b +.0.0.] ^ ] &.$.$.@.E B j u  .i.f.S.L.G.G.L.L.G.U.U.L.U.U.T.",
"Z.J.J.L.L.L.L.D.D.D.L.T.T.T.T.Q.!.W.W.U.U.U.T.W.T.U.G.u.- 5 - + 8 g F ! ) ! ` >.6.r.i.v.=.f s ~ V.L.L.L.D.G.G.L.L.G.L.U.U.U.U.T.",
"S.J.P.T.T.L.L.D.D.D.D.L.T.Q.R.T.W.W.T.U.U.U.U.U.U.T.W.G.n # O   : u.m.V.C.A.D.U.U.L.L.L.L.Z.C.D.D.D.D.J.J.D.L.L.U.L.G.L.U.W.T.U.",
"S.D.P.T.T.P.L.D.D.L.L.L.T.R.T.L.U.U.U.U.L.U.U.U.U.U.T.W.k.x 2 x r.U.U.U.U.U.T.U.L.G.U.P.L.J.D.D.D.D.D.J.L.G.L.U.U.U.G.L.T.W.W.U.",
"S.D.P.T.T.T.T.T.P.L.T.T.P.P.P.L.L.L.U.U.L.L.L.U.U.U.U.U.T.D.C.A.D.U.G.L.U.U.U.U.U.G.L.U.L.L.D.D.D.D.J.D.G.L.L.U.U.U.U.U.U.W.T.T.",
"S.L.P.T.T.P.T.Q.T.T.T.L.J.J.L.L.L.G.L.U.L.G.L.U.U.U.U.U.U.U.U.D.D.U.G.L.U.U.U.U.U.L.L.U.G.L.L.D.D.D.L.L.L.U.U.U.U.U.U.U.U.U.U.T.",
"S.L.P.T.P.R.R.R.T.T.T.L.L.L.L.L.L.G.L.U.L.L.U.W.W.W.U.U.L.L.U.D.D.U.G.L.U.U.U.U.U.U.U.U.P.P.L.D.D.D.J.L.L.U.U.T.U.U.U.U.U.T.U.T.",
"S.L.L.P.P.T.T.T.P.L.L.L.L.L.L.P.U.L.U.U.T.T.W.!.W.W.U.U.L.U.U.G.D.U.L.L.L.U.U.U.U.U.U.U.U.L.P.L.L.J.L.L.P.U.U.U.U.U.U.U.W.W.W.W.",
"D.G.G.P.U.U.T.T.P.L.L.L.D.D.J.P.U.U.T.Q.!.T.W.W.W.W.T.U.L.U.U.G.D.U.U.U.G.L.U.L.G.U.U.U.U.U.U.U.U.L.L.L.U.U.U.L.G.G.U.U.U.W.Q.Q.",
"D.G.G.G.L.U.U.L.L.L.L.D.D.D.D.L.T.T.W.Q.W.U.T.T.T.T.T.U.U.U.T.G.D.U.U.U.L.U.U.L.G.L.U.T.T.U.U.U.L.G.G.G.G.U.U.L.G.G.L.L.L.U.W.Q.",
"G.L.G.G.G.L.G.G.G.J.D.D.D.D.D.L.U.U.U.T.U.U.U.U.U.T.T.W.U.U.U.G.D.U.U.U.L.U.U.L.U.U.U.U.U.U.U.L.L.L.L.U.U.U.U.L.D.J.J.D.D.J.L.T.",
"G.W.T.U.G.G.L.G.L.D.D.D.D.D.D.L.P.U.U.U.U.U.T.U.U.U.T.W.T.T.T.G.D.U.U.U.U.U.L.G.U.U.U.U.U.L.U.U.L.L.U.U.T.L.G.D.J.D.S.D.D.D.D.D.",
"G.W.W.U.L.G.L.G.J.J.J.L.L.D.D.L.L.U.U.U.U.T.W.W.T.W.W.W.U.T.W.G.D.U.L.L.G.L.L.G.U.U.U.U.U.U.U.L.L.U.U.U.U.L.G.D.J.S.Z.Z.S.Z.C.Z.",
"G.W.T.U.G.G.L.G.L.P.P.P.L.L.D.L.U.G.L.U.T.U.W.Q.W.W.Q.Q.W.W.W.G.D.U.L.L.G.L.G.G.L.U.U.U.L.L.U.L.L.L.U.U.U.U.L.D.D.S.Z.Z.Z.Z.Z.S.",
"U.!.W.U.G.L.L.U.T.T.T.L.P.L.L.L.U.G.G.U.T.U.U.U.U.T.W.W.T.W.W.G.D.U.L.U.L.L.L.G.L.L.U.U.G.G.U.U.U.U.U.U.L.L.L.D.D.D.S.S.S.S.D.D.",
"W.^.W.U.L.U.U.T.T.T.T.T.T.T.T.T.W.U.U.W.T.T.U.U.U.U.U.U.T.W.Q.L.D.U.L.P.U.L.L.L.L.L.U.L.G.G.U.U.U.U.U.L.U.G.L.G.D.D.D.D.D.D.D.D.",
"T.^.!.T.U.U.U.T.T.T.W.T.U.T.T.W.W.W.W.T.T.T.T.T.T.W.T.U.U.W.!.U.D.U.U.L.P.P.P.P.U.U.L.L.G.G.U.U.U.L.L.U.L.G.L.G.G.G.G.G.G.G.G.G.",
"U.^.W.U.U.U.U.T.T.W.W.T.U.U.U.T.T.W.T.U.U.U.U.U.T.W.W.U.U.W.!.L.D.U.U.P.L.L.L.L.L.G.L.L.L.L.U.U.U.L.L.U.L.G.G.G.G.G.G.G.G.G.G.G.",
"G.W.U.L.U.U.U.U.U.U.T.U.L.U.U.U.U.U.L.P.G.G.G.P.U.U.U.U.U.W.!.U.D.L.L.L.L.L.J.D.D.D.G.G.G.G.P.U.U.L.L.U.U.G.G.G.G.G.G.G.G.G.G.G.",
"G.T.L.G.G.U.U.U.U.U.U.L.U.U.U.U.U.L.L.L.L.D.L.P.U.U.U.U.U.W.W.G.D.L.G.D.D.D.D.D.D.D.D.D.D.D.J.L.P.L.L.U.U.U.L.G.G.G.G.G.G.G.G.G.",
"D.U.G.G.G.G.L.G.U.U.U.L.U.U.U.T.T.L.L.L.L.L.L.P.U.U.U.U.U.U.T.G.D.U.U.L.D.D.D.J.D.D.D.D.L.L.L.L.L.U.U.T.W.U.U.U.U.U.U.L.G.G.G.G.",
"S.U.G.G.G.G.L.G.L.L.L.L.U.U.U.U.P.L.D.D.J.J.J.L.L.L.U.U.U.U.U.D.D.U.U.L.L.L.J.J.D.D.L.L.L.L.L.L.L.G.L.U.U.U.U.U.U.U.U.U.G.G.G.G.",
"G.U.G.G.G.G.G.G.L.U.U.U.U.U.U.T.T.P.L.D.D.D.J.J.G.G.G.L.L.U.L.D.D.U.U.L.L.L.J.D.D.D.J.D.J.J.J.L.U.U.U.U.U.U.U.U.U.U.U.L.L.U.G.G.",
"S.D.D.S.A.A.D.D.D.D.G.G.G.G.G.G.P.L.D.Z.C.C.Z.Z.S.A.S.S.S.D.D.C.C.D.G.D.D.D.S.C.Z.S.D.S.S.S.S.D.D.G.G.L.G.D.D.G.G.D.D.D.D.G.D.D."
};
