/* XPM */
static char *ea4030625281461f814d571d88b94bd3Eu6tC8Q1GjwXqmfF[] = {
/* columns rows colors chars-per-pixel */
"64 64 85 1 ",
"  c #CCC7C3",
". c #D4CAC8",
"X c #D1CCC8",
"o c #D2CDC9",
"O c #D3CECA",
"+ c #D4CCC9",
"@ c #D5CDCA",
"# c #D6CCCA",
"$ c #D4CFCB",
"% c #D6CECB",
"& c #D7CFCC",
"* c #D8CECC",
"= c #D9CFCD",
"- c #D5D0CC",
"; c #D6D1CD",
": c #D7D2CE",
"> c #D8D0CD",
", c #D9D1CE",
"< c #DAD0CE",
"1 c #DBD1CF",
"2 c #D8D3CF",
"3 c #DAD2CF",
"4 c #DBD3D0",
"5 c #DCD2D0",
"6 c #DDD3D1",
"7 c #D9D4D0",
"8 c #DAD5D1",
"9 c #DBD6D2",
"0 c #DCD4D1",
"q c #DDD5D2",
"w c #DED4D2",
"e c #DFD5D3",
"r c #DCD7D3",
"t c #DED6D3",
"y c #DFD7D4",
"u c #DDD8D4",
"i c #DED9D5",
"p c #DFDAD6",
"a c #E0D6D4",
"s c #E1D7D5",
"d c #E0D8D5",
"f c #E1D9D6",
"g c #E2D8D6",
"h c #E3D9D7",
"j c #E0DBD7",
"k c #E2DAD7",
"l c #E3DBD8",
"z c #E4DAD8",
"x c #E5DBD9",
"c c #E1DCD8",
"v c #E2DDD9",
"b c #E3DEDA",
"n c #E4DCD9",
"m c #E5DDDA",
"M c #E6DCDA",
"N c #E7DDDB",
"B c #E4DFDB",
"V c #E6DEDB",
"C c #E7DFDC",
"Z c #E8DEDC",
"A c #E9DFDD",
"S c #E5E0DC",
"D c #E6E1DD",
"F c #E7E2DE",
"G c #E8E0DD",
"H c #E9E1DE",
"J c #EAE0DE",
"K c #EBE1DF",
"L c #E8E3DF",
"P c #EAE2DF",
"I c #EBE3E0",
"U c #ECE2E0",
"Y c #E9E4E0",
"T c #EAE5E1",
"R c #EBE6E2",
"E c #ECE4E1",
"W c #EDE5E2",
"Q c #ECE7E3",
"! c #EEE6E3",
"~ c #EFE7E4",
"^ c #EDE8E4",
"/ c #EEE9E5",
"( c #EFEAE6",
") c #F0EBE7",
"_ c #F2EDE9",
/* pixels */
"pFFBFFcccccccjjjppjjccccppjjpcFp8cFFLQQFcBFBccjcpppjjcccjpcFLFFF",
"pLFFFFcBccccccjjpppjccccjpjcpcFp8cFBFTTBjcccjppppppppjjjjpcFFFFF",
"pLLFTLFFccBBcccjpppjjcccjpccpcFp:pBccFFjpjccjppjppppjjccjpjFFFFT",
"pLLFTTFTBBFFBccjjjppppppjpccpcFp:pccjccpppcccjccjjjcccccppjBFBFT",
"pFFFTTLTFFFFBccjccjpppr8ppccpcBr3pccjccrppccjjccjjjcccccppjcccFQ",
"pFFBLTFTFFFBccccccjpp888ppjcpcc83jBcjccrrpjjpppjppppppjjppjcccF^",
"pFFcFFFTFFBccjccjjjjrrrryrjcjcc3:pccjccrppjjpppjrpppppppppjcccF^",
"pFBcFFFLLFccpjccjjyyrrrrrrjjyjj3:pcjjccrjccccjccpppppjjjppjcjcF^",
"pBcpccjcccjpppccyrrryyr4yrrr6jj4:rjjjccjcjjjccccpprpccjpcppjccFT",
"pFcpcccBccjpppjcyrrysyrrrrrr4sjr:8pppccjcjpjccccppppjcjpjppjjjFT",
"pFBjccjcccjpppjjyrryjjjrr4663jcr:8prpccccjpjcccjrrppjjjppppppjBT",
"pFBjccpcccjpppjjyyysjjjjr3rr3sBr:888rjcccjpjcccj8prppjppprrppjBT",
"rBcpccpjcccjjjjjjssjxxjjr6rr6sxr%888rjccjpppcccj88ppppppprrppjBT",
"8ccpccpjccccccccjjjhxxxjr6ssrjxr%8rrpjccjpppcccj88ppppppprrpjjFT",
"8ccpccjcccccccccxxxxxxxss6jjsxx6&8pppjcpjpppjcjp8rppppppppppjcFQ",
"8ccjBBcccBBBBcccBBxBxxxssrjxjxx4&8pppcjpjpppjcjp8rpppppppppjccFQ",
"8pcccBFcLFcccBFFVVVBBBxjyjxjsjs63pjpccpcppppppppyrryysjjxjssjBLQ",
"3pccccccccppjccBBBBcccjjjcxcxxs63pjpccpcpppjjjjpyyyyyjsjjjssjBLU",
"3pcccBcjpprrpccBcccccjjjcBBxAAx43jcpccpcjjccccccyyysssjjjjjjcBVL",
"8pcBBFBcpprpjcFFcccccjjjBccxALx33ccjBcpjjjccccccjjssssyyjjjjxBVL",
"3pcccBccppppcBFFccccccjjjjjjBAj33cccFBpjppjcccccjjjjjsyrjjjcBBLL",
":rpppccpppppccccccccccjjssyyjxs33cccFBpjpppjccccjjjjjsrrsssjcBLL",
":8prrpjpjpppccccjjcccjjjyjyrrsr34cBcFBpjpppcccccjjccjjrrrrrrsBAL",
"3rprrpccccjjcccjpppjppjjyjy66rrr4cBcFFppppjcccccjjccjsrrr644rcVL",
":jjpccjcpjcBFBBcBcccccBBBBjrrsr3rFFcFcjcpccBccccsjjccjrrrrrrjcBA",
":pp8pcjBjccFFFBcccccccccccjr6s633ccjccpcpjccccccjjcccjjsr6rryjxB",
"8cjrcBBLcBFFFFBcccccccBBxBcyssr34ccjccjcccccccFFxxjjjjssyyyyjcBB",
"rBcjBFBFcccccccjccccccccxBcsssr33ccjcccBcccjjcFTxjjssssjsjjsjcxB",
"8BBcFFccccccccjjcccccccccxxsssr3&pppjcjBjjpppjBFBcjsysjjyyrryjjc",
"rFFFTLcBLLLFFFFFFFFFFFAAVLABBxjr3pjpcccFccccjcFLBxcjjjjjjjsjjcBB",
"8cBcFFBFLFFFFFFFFFFFFFLLALABxBjr%pp8pccFBBBcccBFcjjjssjjjjjjjBBV",
"%8r8jjjcjpjpypjpppppjjjjjjjrrr6% ::o388ppppprrsjyyyrrrr6666rryjc",
".r636r34=364331388ppppr83:8r8pj:rcppcBsyBLUUAcsrjcBBcjppppr888rp",
"3jjrss6r6rsjjhxBBBcccjjpppccjcc8pFFcIIVALLLLLANBLLTTTTTTBBccjjcc",
"rBxsxjssrsssjjBVITTTTFFcjpccpcc33cBcFFBLLBjjBAABBFTTTTTTFFFccjcc",
"6xjrjssssjjsrrsjBL^))QFccpcp8pp:opjpppjBcjrrsjxBjcBFBBFFFFBcpppp",
"=ss6sjsjxxxjssssVFTTTTFcLccp8pj8ojcpppjBjccjssjxBcBBcccBBFBcjppp",
"=sr6sjsxjjxxjjsjQTFccccBLccp8pc8:cBccjjBjcxjarsjBBBccjccccccpppp",
"=ss6sjsxrsxxxhhjQTFccccccpcp8pj8:ccpcjjBjjyr666rjccjpppppppppppp",
"3ss6rsrssxBAAxxxBFFLFFcccpccjcc8:jcpccjBBj6366rrjjjppppjppjcjjcc",
"3rsr6sjsssjxBAABILFcccccccBccBcr3FpjBcBBjy646asyrpjjppppjppjcccc",
"=rjjsssrsssxBAAVIFFccccccBFBFFcp3FpjBcBBjsr6rrrrrpppppppcjjccBBc",
"=sxBxxs6sssjBAAVLFBccccccBFFFFBp3BpjBjBBjjsyssrrr8pppppjccccBFFB",
"=sBBBBxsjssjxBBBBccjjjjccBFFFFBp3BpjBjBBcjjjssrr48rpppjjccccBFFB",
"=sxxBABxxxhhxxxjjjpppppjccBcBFcp:BpjBjBBccjcxjs6488ppjcccjjccBBc",
"1shxxAAANxxjjjjjjpppjjjjcBcccccp:BppcjBcxxccxxsrr88pjccccjjccBBc",
"3sxxxAABNxjshhjsjpjcccccFFcppccp:cppcpBxxcccxxjjr8rpccccccccBFVB",
"3yxBBBBBNBhjjjhjjcccBBBBFFcppccp:cppcjBxBxccBBxcprrpccccccccFFLV",
"4jjpBFBBcjjpyprpcjBTTFcBFcBcpcFp8ccpccpjpjccccBccjppjccjrjcBBBU~",
"8jprccpjppppppppBcFTTFBFFcBcpcBp8ccjccpcjccccccccjpjcccjyjjjxBAL",
"rcjrjjrppprrrpppcjcBBcccBcFBccBr8BBcBcjccccccccjjjjcccjjsyrrssjx",
"pFcpcjpppprrrrppcppccjcBBcFFcFFr8ccjccpcccccccjjjjjcccjyy6336r66",
"jFBpccpcjpppprppcccBFFFTBcFLFFFp8ccpccppccccjjjjjjjcccjsr3&&333=",
"pFBpjjpcccjpppppcjjBFBFTBcFLFFFp4ccpccppcccjjjjcccjcccjy63=&====",
"cTFjjjpcccccjjcccpjccccBBcFFcFFp4xBjBcjjcjjjjjcBccjjcjjjrr43=366",
"FQTcccjFccccccBFFccFFcccccBBcBFp6BBjBBjjjjjjjjBBccjpjjjjrrrr66rj",
"L_FBFcFFFFFFFFFFFFFBBFFFTFFFcLTc3BBBBxjccjjjjjxcpjjcccjjyjjjssjh",
"cQcccpccccccccccBcccccccFccccFLj4BBjBcsxjjjsjjxxjjccjpjsryjjrrss",
"pTccBjBccccccccccccccjjjBjcccLTc3ccjjjrjyyyysjjxccccjpjyjjjjssss",
"8FpjcpccccccccccccjjppppBjcccFLj3jjryyrsrrrrysjjcccccjjjjjcjjsjj",
":crpcpcppppjjjjcppprppppcpccpcc84xxsssrj6arsssjjjjccccBBjjjjjjss",
"8FppcpcccccccccccjppppjcBcccjcc86xBjjjssrssjjjjjjjccccBBBxcxxxxj",
"rFprp8jpccccccBBFcp888pcjpjjpcc3=xxsjs6r66rrssarjpjcccccBxjjxxjs",
"3c::3%83rprpppppcp8%oo:8::38:88o.ssrr6=3=33663=3jpppppjjsr66r66="
};
