/* XPM */
static char *d571d662c4b04f58fce34ab24c0a8b33ECcvLOHZWgqkm36N[] = {
/* columns rows colors chars-per-pixel */
"60 60 177 2 ",
"   c #353F26",
".  c #354425",
"X  c #374927",
"o  c #3A4B26",
"O  c #374329",
"+  c #3B452C",
"@  c #354C2B",
"#  c #3C4B2C",
"$  c #37552A",
"%  c #3C522D",
"&  c #3E5A2C",
"*  c #3D4631",
"=  c #3E4D31",
"-  c #3E5233",
";  c #3C5D31",
":  c #3E602E",
">  c #3F6131",
",  c #424E2D",
"<  c #425627",
"1  c #465B27",
"2  c #42542D",
"3  c #4B552B",
"4  c #445C2E",
"5  c #4C5B2D",
"6  c #525B2B",
"7  c #414734",
"8  c #434D33",
"9  c #494C36",
"0  c #454D3B",
"q  c #4A4D3C",
"w  c #445334",
"e  c #495435",
"r  c #455B33",
"t  c #4B5B34",
"y  c #46543A",
"u  c #4B543B",
"i  c #465A3B",
"p  c #4C5B3B",
"a  c #505536",
"s  c #515C36",
"d  c #51553D",
"f  c #525C3D",
"g  c #47612E",
"h  c #49612E",
"j  c #436235",
"k  c #4C6335",
"l  c #4E6936",
"z  c #46643B",
"x  c #4C633B",
"c  c #466838",
"v  c #4E693E",
"b  c #526135",
"n  c #5A6534",
"m  c #5A6937",
"M  c #52633C",
"N  c #59653E",
"B  c #546A3C",
"V  c #5B6A3D",
"C  c #4A4E42",
"Z  c #574F41",
"A  c #465640",
"S  c #4D5442",
"D  c #4D5B43",
"F  c #4E5E49",
"G  c #525543",
"H  c #5B5247",
"J  c #535C44",
"K  c #5A5D45",
"L  c #56564A",
"P  c #5B564A",
"I  c #555C4A",
"U  c #5B5D4C",
"Y  c #565F50",
"T  c #5D5F50",
"R  c #61564B",
"E  c #625D4E",
"W  c #635E51",
"Q  c #4E6441",
"!  c #4E6842",
"~  c #546343",
"^  c #5A6444",
"/  c #546A43",
"(  c #5B6A44",
")  c #55624B",
"_  c #5C634C",
"`  c #566B4A",
"'  c #5D6B4B",
"]  c #567240",
"[  c #5C7245",
"{  c #5D724B",
"}  c #5F7949",
"|  c #576250",
" . c #5D6352",
".. c #5E6954",
"X. c #5E6B59",
"o. c #5E7551",
"O. c #616C44",
"+. c #61644C",
"@. c #626C4C",
"#. c #696E4F",
"$. c #637347",
"%. c #63724E",
"&. c #69734C",
"*. c #627A4E",
"=. c #69794F",
"-. c #636553",
";. c #696655",
":. c #646B54",
">. c #696B56",
",. c #636358",
"<. c #6A665A",
"1. c #656C5A",
"2. c #6C6C5B",
"3. c #706D5E",
"4. c #647453",
"5. c #6A7355",
"6. c #647856",
"7. c #6A7954",
"8. c #65725B",
"9. c #6C735C",
"0. c #657858",
"q. c #6C7A5C",
"w. c #727455",
"e. c #717A55",
"r. c #72735E",
"t. c #79775D",
"y. c #72795C",
"u. c #7A7A5F",
"i. c #6F6C61",
"p. c #726D63",
"a. c #667261",
"s. c #6D7462",
"d. c #6F7A62",
"f. c #6E7768",
"g. c #6F7968",
"h. c #747262",
"j. c #737563",
"k. c #757662",
"l. c #747364",
"z. c #767367",
"x. c #737765",
"c. c #747765",
"v. c #787762",
"b. c #787366",
"n. c #787764",
"m. c #757A61",
"M. c #747964",
"N. c #757965",
"B. c #777A67",
"V. c #797863",
"C. c #797A65",
"Z. c #797A66",
"A. c #7A7A67",
"S. c #757568",
"D. c #757669",
"F. c #7A756B",
"G. c #777B69",
"H. c #767B6A",
"J. c #767D69",
"K. c #777C6B",
"L. c #797B6A",
"P. c #7C7B6A",
"I. c #797C6A",
"U. c #7C7E6B",
"Y. c #7A7C6C",
"T. c #797E6C",
"R. c #7B7E71",
"E. c #748066",
"W. c #7F8067",
"Q. c #7C806C",
"!. c #7E806C",
"~. c #7C8071",
"^. c #7D8071",
"/. c #818069",
"(. c #80806E",
"). c #828272",
"_. c #808374",
/* pixels */
"<.L -.K.T.T.Q.I.d.4.B u ;.j.c.c.x.c.S.z.1.y p p x x / ' / v /  .x.T.~.~.~.~.U.M.j. .9.V.I.T.I.I.I.j._ 7   8 J -.-.-.-.<.",
"2.P -.G.K.G.T.x.5.{ ~ u -.3.r.j.c.c.c.h.J 8 w f ^ p M / / x x _ r.Z.)._.~.U.I.m.%.I 2.Z.Z.L.Z.I.I.L.:.7 + 8 f -.-._ ;.;.",
"<.L -.M.M.M.M.1.4.' ( y -.2.2.3.z.h.h.2.J 8 w e t p f x k k x I j.U.).(.P.U.m.=.( J 2.k.n.v.k.Z.Z.M.:.7 # e e J J U -.-.",
"-.G  .9.9.>._ J p ) ^ y -.2.2.-.2.2.3.;.J + w t e f f f t r i w :.K.M.r.9.9.@.B x D 2.j.h.r.r.k.r.j.:.8 8 e e p u J -.-.",
"v u G P P J _ L G G ~ G G L u t M M G q 7 7 8 # # = y y 8 8 y 8 u I I D u u # # = u _ -.:.>.>.2.2.2.@.M p q 8 8 8 q G J ",
"/ _ P U G ^ J S u J J G G G q f ~ _ U -.-.W P U L q U U U U U  . .-.U G U U J u w w % w y 8 7 7 # e p r u u 7 u _  .-._ ",
"r.M.x.j.:.J J K _ ;.;.>.;._ u _ r.c.c.S.S.p.p.b.2.P <.3.2.i.j.r.9.9.:.I r.V.Z.9.@.( B / t y _ ) _ :.' M y J u J 9.:.4.5.",
"m.I.I.Z.2.U -.-.2.2.2.2.2.2.G  .L.M.Z.L.b.F.F.b.3.P <.2.2.j.j.j.M.j.-.u 5.Z.Z.j.m.u.5.( r S p.2.2.r.2.( x y u J :.' 4.9.",
"L.I.G.I.1.U -.+.-.2.r.r.r.2.J U M.L.T.T.T.T.F.R.p.P 3.p.j.j.x.x.M.M...= ' M.M.5.Z.I.V.@.r u 2.3.r.r.+.' N p 8 J ' ' 9.Z.",
"L.G.G.L.1._ 2._ f N #.j.j.:.J L c.G.T.T.T.R.R.R.p.P <.p.z.j.5.s.M.M.^ = 1.T.q.9.I.T.I.5.t u 3.k.k.9.5.9.@.:.J J ' 9.G.L.",
"M.G.G.L.2. .2.M k t M 5.5.#.p J c.M.M.L.T.T.F.R.p.U <.3.r.9.9.x.M.9.p u s.K.6.q.K.I.Z.r.f G 2.h.j.r.h.9.r.h. .J @.9.G.I.",
"M.M.G.G.2.P :.p h h p ( ( ^ 2 J M.M.M.L.L.L.F.F.p.P :.>.5.:.5.r.r.4.~ J a.d.} q.M.M.V.r._ U 2.3.3.h.r.j.h.k.P t 4.M.9.M.",
"5.9.M.G.2.J :.J 2 h t M N b , J 9.9.M.M.Z.M.c.b.3.L -.:.:.2.5.5.9.^ t I s.q.*.0.m.m.r.r.:.-.3.2.2.3.2.2.2.>.u w [ 5.4.4.",
"' ' 5.r.:.u ^ ^ p t k M k t , J s.9.9.r.r.r.j.j.2.L ;.;.;.>.@.&.$.B t ^ 6.6.} } q.9.r.r.-.L -.;.;.>.;.2.>.~ 2 % B ( ' @.",
"w w w J J 8 u D S p u e e u u S I I J ~ ^ U U P P G G G d 8 e ( M N V ( ( { / / ' ' :.:._ G x _ -.-.E W _ t 4 4 l b r % ",
"# # @ % # - u D J y . y S S S S S S u j r w t t f _ _ ^ f 8 s @.@.:.:.:.' ' ) J ^ ' :._ _ ) ~ ^  .U L L J J t M M e X . ",
"= w # % w t ) ..1.J # D _  . . . . ._ = @ r ( 5.r.V.V.u.w.d K r.m.M.M.M.M.M.M.:.~ 0.m.k.M.G.M.M.j.U ,.j.2.2.+.+.-._ t # ",
"y y - w D )  .:.1._ 8 J  . . . .-.:._ = @ M 5./.Q.U.U.Z.t.J ^ m.Z.m.M.M.G.T.K.-.Q *.m.M.T.T.T.T.Z.U  .j.3.2.2.2.2.;._ u ",
"u w t t J _ :.1.1. .0 I  . .-.1.1.1.J # 8 :.m.Q.Q././.U.U.+._ U.Z.Z.I.I.K.K.T.1./ *.q.M.I.T.R.~.T.L P 3.3.3.3.3.2.2.j.-.",
"G p t J _ :.:.2.2. .0 Y  .-.:.1.1.s.:.w u k.U.Q.Q.W./.U.U.-.J Z.U.U.I.Q.Q.T.R.1._ 9.*.E.T.T.T.R.K.J J 3.r.j.h.3.p.j.k.;.",
"u J p p _ :.:.:.2.:.S U -.:.1.1.9.9.2.u w 9.U.U.U.U.U.Z.V.U J Z.Q.U.U.Q.U.R.R.1.-.k.&.0.T.T.T.R.G.u u 2.k.k.k.3.j.k.k.U ",
"G ) p t ^ ^ ^ ~ :.:.S _ -.-.:.2.2.9.' u = :.L.L.Z.U.Z.V.r.f N Z.Q.U.Q.Q.U.U.U.;.U r.r.4.M.L.L.I.j.y 8 :.c.k.k.c.c.k.h.J ",
"J J J J ~ M M ~ :._ 0 _ _ :.:.>.>.:.p y y 5.r.m.V.Z.Z.r._ t O.e.Z.U.W./.Q.U.Z.-.-.j.r.5.5.V.v.5.^ # 8 _ 2.r.r.c.c.k.2.u ",
"u J ) +._ ^ ~ ^ _ p = ) ' _ ^ ^ ^ p t w = ^ 5.r.k.r.r.>.u + t V #.r.w.t.y.w.r.U U 2.2.5.&.#.5.^ r X # J -.2.3.r.r.2.>.G ",
"u M ~ J f p u p f y * D M t r b w + @ = + 8 p J U T P u # + w f f K K K ^ N ~ S G J K _ N M p p w w t w J U -.-.-.U P S ",
"_ ~ _ -.J y p _ -.;.-.:.:.( p t o . @ # # @ # # 7 p e w p ) -.:.2.>.P q 9 y t u G G u G d O...' :.:.' x r p y J _ J J -.",
"m.9.j.m._ p 5.Z.Z.I.L.I.L.M.-.w X , 8 w y w w w O t [ 9.M.G.Z.m.Z.k.J e s e f f K +.-.;.U @.q.0.4.m.0.[ [ B r p 5.5.9.M.",
"M.m.M.M.-.J r.Z.Z.T.T.T.T.L.U + + 8 u u J K U J # p 9.K.G.I.I.M.k.r.G 3 6 3 a s ^ ^ +.2.U J 5.m.4.q.6.] [ [ ~ ~ M.M.K.I.",
"I.G.T.G.:._ M.I.I.T.T.R.R.G.J * 8 e J J J -.;.) y U L.K.G.I.T.I.M.@.f s 3 3 t t f f _ +.D t ' q.m.4.q.[ { 4.' _ M.M.K.M.",
"T.R.T.K.:.-.c.L.T.T.T.R.R.4.M f K G U W -.<.2._ u _ L.T.T.I.T.T.Z.( x B 5 3 5 t s ' ' ^ p t [ 4.q.q.q.4.4.9.@.' M.K.K.M.",
"I.T.T.G.;.-.j.Z.L.T.T.T.S.' M p K U U -.<.2.2._ D +.L.T.I.I.Z.k.w.^ k k s M r p k M M M w t ` o.6.E.6.{ 5.5.^ _ j.M.G.G.",
"G.G.G.G.) U 9.Z.L.L.Z.c.:.~ t J H P W ;.2.;.U f p B 9.Z.M.M.Z.k.>.M , 8 s b t ^ M t k x w - ` 6.6.6.{ { 5.:.`  .c.G.G.G.",
"L.G.G.M.U p ' 9.k.k.h.3._ f w G H R W W E K f k k k 5.r.k.k.r.r.2.p @ , e t w ~ ^ r j v w % / { 6.0.4.{ 4.' ~ -.j.M.G.G.",
"M.G.x.j._ J ~ ~ ^ +.:._ ~ p w 9 Z P E K d u w 4 g k B >.r.r.2.2.>.K 8 , t J J f M & & & - % v / v B ( @.@./ p  .j.M.M.I.",
"-.-.;.;.U J J p u p w w y 8 # O + 7 = * 7 + * w 4 4 4 f U +.+.U U G q 7 p J y = # % : % # = - D i r x ~ J u S U 2.>.:.:.",
"-.2.2.2.2.2.1.2.1.-.p ~ ~ p t w w 2 4 2 e e u k < % h p J J ^ J J P L U -.U u 8 8 D x u S y y = - r r ^ 1.;.2.2.2.2.2.;.",
"-.c.M.M.L.L.k.k.Z.2.t ' 5.5.( x p x k r u M M k r k / 4.5.~ e p ~ +.2.r.j.2.^ p y I I ) .... .` ) p = :.M.L.I.T.Z.Z.Z.k.",
" .G.T.T.I.T.L.M.Z.2.t :.k.c.9.%.$.' M p J ' @.( ' :.M.I.V.:.8 p _ ;.r.2.j.M.9.J 0 I _ X.1.1.1.1.1. .u 9.M.T.T.T.I.Z.V.r.",
" .G.R.R.T.T.T.L.L.2.D s.L.I.y.7.e.q.@.~ J 5.9.r.m.M.K.I.L.2.u ^ 2.r.k.9.:.5.9.^ 0 I  .1.1.1.1.1.2.:.u x.K.R.~.T.T.T.L.9.",
"U K.~.~.R.T.T.L.T.2.J M.m.e.e.y.K.5.%.~ K r.M.K.G.M.K.I.I.s.J +.r.c.j.r.' ^ ' p 0 I X.1.1.1.1.i.2.~ u h.R.T.R.I.T.T.I.9.",
"-.S.R.R.T.T.U.T.L.2.I 9.&.7.5.4.&.( ( f U c.Z.M.M.M.M.I.I.4.~ _ 2.j.h.r.:.^ ' D 0 I  .9.9.1.1.1.:.f u s.T.I.I.I.I.Z.Z.2.",
"-.L.U.L.Z.I.I.I.G.2._ [ &.r.5.@.( N N f _ c.M.M.M.M.K.K.M.1.J ) _ 2.r.r.@.k k D C I X.1.1.1.1.1.>.^ e s.L.Z.Z.L.I.Z.k.9.",
"_ n.V.k.k.V.Z.M.I.2.J ' 9.k.>.@.O.V n s K m.M.M.K.M.K.K.M.1.G J e f +.:._ 4 4 w 0 I  .:.1.1.9.:.^ f p 9.k.m.V.Z.Z.k.r.2.",
"U r.r.r.r.r.r.r.j.:.p >.:.+.@.N m n n 3 d r.s.j.9.9.M.M.j.:.S e 2 w w w p w w y 0 _ :.:.:.:.:.+.^ f u 2.r.r.r.k.k.3.r.2.",
"J -.:.-.-._ _ ^ J ~ k M f e f x B f f u u  ._ _ ~ M f  .-._ J y y u # @ 8 0 S S C L  .-.) p J f f p u -.:.:.:.2.>.;.:.-.",
"-.-. .U G q d d G M x z ~ J J e t p p J J J w w r # w ~ :.2.2.2.>.2.U I 1.1.-.1.-.-.1.-.D # # 8 9 8 y J J ^ P P ;.-.-.-.",
"Z.M.j.j.;.G P P J ' :.^ ( -.-.e ( @.O.5.M.j.' B r % k / M.T.I.Z.Z.Z.-.J M.Z.G.G.K.M.M.M.u o 4 5 s M s ^ -.:.;._ 9.j.M.M.",
"Z.L.G.j.>.G U U -.:.2.>.@.>.-.u O.5.5.G.L.T.M.' t w / 8.T.T.I.I.Z.Z._ w %.M.T.K.I.G.M.5.t o 1 1 s @.>.j.j.2.;.U j.M.M.M.",
"M.M.c.x.2.G U 2.2.2.r.3.>.9.:.y @.m.G.T.T.R.T.G.~ i f.T.R.~.I.T.T.L._ u ' M.T.T.I.I.I.:.t o < 2 M >.j.M.n.k.-.P j.Z.m.M.",
"K.G.x.M.1.S ;.2.j.j.k.c.k.c.:.= :.G.T.T.T.R.R.R...D K.R.R.T.I.U.I.Z.I D :.G.T.I.I.T.M.4.f o < f @.:.c.c.n.h.-.P j.G.k.M.",
"T.G.M.K.8.I 2.c.x.x.x.G.M.M.:.= 5.G.G.T.T.R.T.T...D G.T.I.I.I.L.V.r.J u ' y.I.L.j.9.( ( f o 2 f :.:.r.c.k.c.<.L x.L.M.K.",
"I.G.M.K.:.u 2.j.f.f.f.M.G.M._ = :.G.G.K.T.R.T.G.` i G.K.G.Z.I.I.Z.>.p J ( &.y.5.@.( ( ( J 8 t t ^ ' :.h.j.c.;.J x.L.M.I.",
"M.M.M.q.` i 1.2.2.s.f.f.g.a.D = ) a.g.G.g.s.s.8.z i f.d.M.M.M.M.9.( w u N V @.( B ( ^ ( f w f t f ^ ^ >.2.3._ k 4.j.M.M.",
"m.M.q./ p y _ 1.2.s.a.s.a.` r @ z X.a.8./ z x ! x D a.a.9.s.:.( x t w J M B N ^ M ^ M x x r t w e f p K -.2.^ g l ( j.m.",
"J J ~ i - = w i Y  .I F D y @ @ y F F i % $ ; ; - A F A A D i u u J J ) J J J J J J u y p p t #   + 8 f _ U t g g k ( ' ",
". O J _ ) I I I Y  .| F I | )  . . . .) y @ % ; ; i j j $ $ r I s.G.S.x.x.x.s.s.:.w u p p x p r $ $ t N f 7 + 2 4 2 p t ",
"y + -.M.M.x.M.G.G.G.g.|  .X.X.1.1.1.1.1. .y r x x z j > ; ; j u G.~.~.~.~.~.T.I.M.y ^ %.' :.9.%.B l l u G u # w k J U J ",
"U 7  .M.M.G.G.G.T.T.9.J  .1.1.8.8.8.1.1.s.) / ` x z c z j j z D x.T.T.T.T.Q.T.U.I.J 1.j.9.M.K.K.4./ M q G G 8 8 y U -.-.",
"-.0 J M.Z.I.T.T.T.G.8.^ :.1.9.s.s.s.s.x.S. .x v ! x x v ! z / _ S.R.T.I.T.~.T.R.d.I s.L.T.T.T.T.9.{ ~ q G G 8 r t _ ;.;.",
"W q J c.I.T.T.T.R.9.{ ~ +.9.s.x.j.x.S.S.S. .D x / ! v ` ` / ` _ x.R.T.T.T.U.T.T.M._ k.T.T.T.T.T.M.' ( q 8 y 2 t t J _ ;."
};
