/* XPM */
static char *_916ed37399b4047b63cc9fb262d3e7794HHQY3h2EadHccg[] = {
/* columns rows colors chars-per-pixel */
"64 64 201 2 ",
"   c None",
".  c #137C9C",
"X  c #36849B",
"o  c #0787AE",
"O  c #0F89AF",
"+  c #0986AC",
"@  c #1582A4",
"#  c #1185A8",
"$  c #148AAE",
"%  c #1D8AAB",
"&  c #0D8DB4",
"*  c #138DB3",
"=  c #1D8FB2",
"-  c #0D93BD",
";  c #0691BB",
":  c #1390B7",
">  c #1C92B6",
",  c #1293BB",
"<  c #1993B8",
"1  c #1D98BE",
"2  c #2B8DAB",
"3  c #228DAE",
"4  c #3891AC",
"5  c #3290AD",
"6  c #2492B3",
"7  c #2C93B3",
"8  c #2B9ABD",
"9  c #2497BA",
"0  c #3295B4",
"q  c #329CBC",
"w  c #3F9BB8",
"e  c #3EA0BD",
"r  c #4B9CB5",
"t  c #469DB8",
"y  c #4C9FB9",
"u  c #5F9FB2",
"i  c #45A1BD",
"p  c #49A2BD",
"a  c #56A6BF",
"s  c #5AA5BD",
"d  c #5DA0B5",
"f  c #6BAABD",
"g  c #66A4B7",
"h  c #76A7B7",
"j  c #76A8B8",
"k  c #0696C2",
"l  c #0C97C1",
"z  c #0699C6",
"x  c #0C9AC6",
"c  c #069ECC",
"v  c #0A9DCA",
"b  c #1197C0",
"n  c #139AC3",
"m  c #1C9CC4",
"M  c #139EC9",
"N  c #189FC8",
"B  c #249DC2",
"V  c #339FC1",
"C  c #07A0CF",
"Z  c #0AA0CE",
"A  c #13A1CD",
"S  c #1EA3CC",
"D  c #05A3D3",
"F  c #0AA3D2",
"G  c #03A7D9",
"H  c #04A8DA",
"J  c #0CA9D8",
"K  c #14A5D2",
"L  c #1EAAD4",
"P  c #12A8D5",
"I  c #22A0C7",
"U  c #2DA0C3",
"Y  c #23A5CD",
"T  c #2EA9CF",
"R  c #2BA5CB",
"E  c #3CA3C3",
"W  c #33A5C9",
"Q  c #36A9CC",
"!  c #3CACCE",
"~  c #26ABD4",
"^  c #34ACD2",
"/  c #3AB2D6",
"(  c #43A4C2",
")  c #4CA6C1",
"_  c #42A8C7",
"`  c #42AACA",
"'  c #4BAECC",
"]  c #4CA8C4",
"[  c #54A8C3",
"{  c #5AABC4",
"}  c #59AFC9",
"|  c #4DB3D3",
" . c #44B2D4",
".. c #55B5D2",
"X. c #5FB5D0",
"o. c #66ADC2",
"O. c #6AAEC3",
"+. c #6BB1C7",
"@. c #64B3CB",
"#. c #6CB3C9",
"$. c #73B2C5",
"%. c #7BB4C6",
"&. c #74B5C9",
"*. c #7CB9CC",
"=. c #63B9D3",
"-. c #85A6B0",
";. c #81ACBA",
":. c #9EB0B5",
">. c #9CB6BD",
",. c #A7A7A7",
"<. c #ABADAD",
"1. c #B0AFAF",
"2. c #A7B3B7",
"3. c #ADB7BA",
"4. c #A5B9BF",
"5. c #B4B3B3",
"6. c #BCBCBC",
"7. c #C0BEBD",
"8. c #84B5C4",
"9. c #83BBCC",
"0. c #8ABCCB",
"q. c #8BB8C6",
"w. c #92BFCC",
"e. c #99B8C2",
"r. c #A8BBC0",
"t. c #A2BBC3",
"y. c #B5BEC1",
"u. c #B9BFC1",
"i. c #92C0CE",
"p. c #9CC2CD",
"a. c #8CC3D4",
"s. c #93C4D3",
"d. c #9CC6D2",
"f. c #9FC9D6",
"g. c #AAC5CE",
"h. c #BEC3C5",
"j. c #A3C6D2",
"k. c #A4C8D3",
"l. c #ABCBD4",
"z. c #A8CDD8",
"x. c #A0CBD9",
"c. c #B1CFD8",
"v. c #BDD1D7",
"b. c #B2D1DA",
"n. c #BDD4DB",
"m. c #C4C4C4",
"M. c #C4C7C8",
"N. c #CBCBCB",
"B. c #C1CBCE",
"V. c #D0CFCF",
"C. c #C5CED1",
"Z. c #CCD1D2",
"A. c #C1D4DA",
"S. c #C4D9DF",
"D. c #CAD9DE",
"F. c #D4D4D4",
"G. c #D0DADD",
"H. c #DCDCDC",
"J. c #D8D4D4",
"K. c #C5DAE1",
"L. c #CBDCE1",
"P. c #D4E1E6",
"I. c #DBE6E9",
"U. c #DAE3E7",
"Y. c #E1E1E1",
"T. c #E2E2E2",
"R. c gray89",
"E. c #E1E2E2",
"W. c #E5E5E5",
"Q. c #E1E6E7",
"!. c #E1E6E8",
"~. c #E4EBED",
"^. c gray92",
"/. c #EAEAEA",
"(. c #E9E9E9",
"). c #EEEEEE",
"_. c #ECECEC",
"`. c #ECECEC",
"'. c #E7EEF1",
"]. c #E9EFF0",
"[. c #EDF1F2",
"{. c #F0F0F0",
"}. c #F3F3F3",
"|. c #F2F2F2",
" X c #F4F4F4",
".X c #F6F6F6",
"XX c #F6F5F5",
"oX c #F4F4F4",
"OX c #F8F7F7",
"+X c #F8F8F7",
"@X c #F8F8F8",
"#X c #F9F9F9",
"$X c #F9F8F8",
"%X c gray98",
"&X c #FBFBFB",
"*X c gray99",
"=X c #FDFDFD",
"-X c #FEFEFE",
";X c #FFFFFF",
":X c #FFFDFD",
">X c #FDFCFC",
/* pixels */
"                                                                                                                                ",
"                                                                                                                                ",
"                                                                                                                                ",
"                                                                                                                                ",
"                                                                                                                                ",
"                                                                                                                                ",
"                                                                                                                                ",
"                                                                                                                                ",
"                                                                                                                                ",
"                                                                                                                                ",
"                                                                                                                                ",
"                                                                                                                                ",
"                                                                                                                                ",
"              `.`.`.`.`.`.(.                                                `.`.`.`.`.(.                                        ",
"            *X*X&X&X&X&X&X*X*X*X&X.X|.(.                                |.*X&X&X&X&X&X&X*X*X*X&X.X`.                            ",
"          |.&XJ.N.N.N.N.N.N.F.H.W.|.&X*X*X&X|.                          *X(.N.N.N.N.N.N.F.J.T.`..X&X*X*X.X`.                    ",
"          .X.XN.H.H.H.H.H.H.J.F.N.N.N.N.H.`.&X*X&X(.                    *XH.J.H.H.H.H.H.H.F.N.N.N.N.F.T..X*X*X|.                ",
"          .X.XN.W.T.T.T.T.T.T.T.T.T.H.J.N.m.N.T.&X*X&X|.                *XH.H.T.T.T.T.T.T.T.T.T.H.H.F.M.M.J.`.*X*X.X            ",
"          &X`.M.H.H.T.T.T.T.T.T.T.T.T.T.T.T.H.N.N.H.|.*X*X.X(.        (.*XN.J.H.H.T.T.T.T.T.T.T.T.T.T.T.H.J.N.F.W.&X*X&X|.      ",
"          *XH.,.<.5.6.N.F.H.J.H.H.T.T.T.T.T.T.T.H.F.M.J.(.&X*X&X      |.&X5.<.1.5.m.N.H.H.J.H.H.T.T.T.T.T.T.U.H.N.N.H.|.*X*X|.  ",
"          *XZ.M.m.4.4.m.m.y.2.6.m.M.N.J.H.T.T.T.T.T.H.J.N.N.H.*X(.    .X|.h.N.y.>.u.m.m.3.3.6.M.N.F.H.T.T.T.T.T.T.H.N.N.Z.`.&X  ",
"          *Xk.}  .Y ^ a.l.X.Y i.J.F.B.6.6.N.H.T.T.T.T.T.T.H.N.&X(.    .X].O...^ S =.f.d.T ' C.J.Z.h.6.m.J.T.T.T.T.T.T.T.N.W.&X  ",
"          *Xb.b c c v A L P H ..l.=./ #.e.u.N.N.J.H.T.T.T.F.T.*X      .XoX[ z c c v P ~ H L s.s./ | 8.r.M.N.V.H.H.T.T.H.N.&X.X  ",
"          *XG.3 c F F v D D F F K F G D L s.w.t.6.6.m.F.H.N.|.&X      |.>Xh k v F v D D D F J A G D F | l.q.6.6.7.N.H.J.H.*X(.  ",
"          *XA.> c v v v v x b D v x - c D S I ! *.8.g <.1.M.*X|.      |.&Xg k C x v v v - v D x l - D Z R S @.0.f -.5.5.(.*X    ",
"          *Xl.b v C c v v c x D D x * l D D - - v J S +.:.H.*X        .XoX) z v c v v Z v v G v - * v G v * x K J _ 8.6.&X.X    ",
"          *Xq.$ l v v Z l D v v c , v D D v F c x v x Z p.*X&X        &X~.4 - x v Z x x D v D l l D D c F F v v v c _ !.*X(.    ",
"        `.*X;.@ - x v v x v x x v v v v x v x v x v x { '.*X          &XU.X * l v v x x v l v v v v v v x v x v v 1 z.*X.X      ",
"        `.*X0.l x , - v v - l D C * D v x F x A T U % A.*X|.          &X~.q x x , x v x , Z D - l F x Z Z x L W < u .X*X        ",
"        |.&X+.z x x v v v M x F Z l C x C c Y ( 0 : y [.&X            *XL.B x v x v v A l F D x v Z x D v Q w 6 * j.*X`.        ",
"        &X[.t D v Z F v x v v v , l G v D Z q % l x d.*X|.          (.*Xg.n Z Z Z v x x v v b : D D v D m 2 & z E ].*X          ",
"        *XD.2 S v v x v - l v F M v C x v Z l . - = n.*X            .X&Xj , K v v v x , x Z F x C v v v Z # # - s .X.X          ",
"      (.*X0.- ` A Z F x x , : D Z C v v F D c l x i ~.&X            &X~.q B ^ v F v l x * v D D v v Z D c v l , d.*X`.          ",
"      |.&Xo.z ] I v v l x Z x x v v v v v x ; v - O.&X.X            *XK.m m ' v Z l l v v x v v v v v v ; x b > S.*X            ",
"      .X[.i k q ~ * - v x v D v l x v v - 9 7 & l +.&X`.            *Xl., , ! n $ v x x D c x - v v v * q % ; m K.*X            ",
"      *XI.8 o , M x v : - F D v v x - v , n Y F - p.*X(.          |.*X9.& + N x v l * v F Z Z x - l x , S K c w ~.&X            ",
"    `.*Xf.- ; c v D D v l , , * Z b l v v b x G 8 P.*X            &X[.( ; z C v G Z l l , * x v , x v v , D z %.*XoX            ",
"    &X[.[ z v D C v v v v $ , , F v D v x v v l $.&X.X          (.*Xb.n v c D v v v v , * , x Z Z D l v v v 8 L.*X              ",
"    *XS.m v v v x v v C v v F v D D C F Z v v % v.*X(.          |.&XO.z v v v v v c c v Z F v D v D Z v v - d .X&X              ",
"    *Xd.x v v D F x v v v G H F x v v C F Z c M S.*X            .X[.( c v v H v v Z v c G J v v v v D F v c } .X|.              ",
"    *Xx.x v v v D v x x v D D v x x Z v ; x G I P.>X            .X[._ v v v C Z x x x v D v x x v Z l ; D D &.>X`.              ",
"  |.*X9.x v Z c v l v x l v v Z D D D B * c D ( [.OX            *XI.8 v Z v C l x v l x v v v D D K 6 z D c d.*X                ",
"  OX[.i z Z Z Z l c v Z v Z F v c Z v Q 8 D x $.>X|.            *Xk., v Z Z v x C v Z v F F v C v A ] v F 1 K.*X                ",
"  &XP.B c c v v v v Z v F v F Z c x v Y a A v j.*X(.            >X*.z z C x C v Z v v F Z F C v x v ' q D e ].&X                ",
"  OX[.s.o.] V m Z - c c v - B ` W v G F p 6 , n.*X              *XK.&.{ E 8 A v l c v l , E ` N c G I r ; s .XoX                ",
"  `.*X*X&XoX~.P.b.0.{ q 1 & & % t I v D S 6 7 I.&X              OX*X>X.X[.I.K.j.$.( B , & O 5 E x c Z U * 8.*X`.                ",
"      (.|..X&X>X*X*X.X~.K.k.%.) q < z D D Z [ .X.X                  `.|..X&X*X*X>X[.I.b.w.o.E 7 l c D F N c.*X                  ",
"                  `..X&X*X*X>X.X~.l.f 0 < c &.>X`.                              |..X>X*X*X&X[.L.q.r 6 x m L.*X                  ",
"                            `..X*X*X&XQ.v.w.n.*X                                        (.|.&X*X*X|.G.k.w.[.&X                  ",
"                                  (..X&X*X*X*X&X                                                `.+X*X*X*X*X`.                  ",
"                                                                                                                                ",
"                                                                                                                                ",
"                                                                                                                                ",
"                                                                                                                                ",
"                                                                                                                                ",
"                                                                                                                                ",
"                                                                                                                                ",
"                                                                                                                                ",
"                                                                                                                                ",
"                                                                                                                                ",
"                                                                                                                                ",
"                                                                                                                                ",
"                                                                                                                                ",
"                                                                                                                                "
};
