/* XPM */
static char *_8b5cb1bfe4e4cca8ac6abbc3c1d9e77IQ05O4ED1hrzyT8u[] = {
/* columns rows colors chars-per-pixel */
"30 30 210 2 ",
"   c #0B0000",
".  c #160706",
"X  c #280000",
"o  c #3D0E00",
"O  c #340C00",
"+  c #281816",
"@  c #321506",
"#  c #061F3F",
"$  c #242934",
"%  c #292D3F",
"&  c #302D34",
"*  c #3C3131",
"=  c #362A24",
"-  c #4A1B05",
";  c #561D05",
":  c #4A230B",
">  c #5B2405",
",  c #51210B",
"<  c #552C19",
"1  c #5C2412",
"2  c #5D3016",
"3  c #632A09",
"4  c #61270B",
"5  c #67371C",
"6  c #793F1A",
"7  c #4F3B3C",
"8  c #48322A",
"9  c #673424",
"0  c #713C29",
"q  c #7E411D",
"w  c #7A5309",
"e  c #554632",
"r  c #764E3E",
"t  c #7E553E",
"y  c #6A4F38",
"u  c #041C44",
"i  c #031D49",
"p  c #091E41",
"a  c #001F57",
"s  c #092144",
"d  c #04234F",
"f  c #032558",
"g  c #1A2F57",
"h  c #282D40",
"j  c #2C3046",
"k  c #383545",
"l  c #253954",
"z  c #002961",
"x  c #092B62",
"c  c #0A3979",
"v  c #423948",
"b  c #3F4246",
"n  c #1D4377",
"m  c #3F5B7D",
"M  c #214475",
"N  c #444345",
"B  c #464448",
"V  c #4B4B4D",
"C  c #524D4D",
"Z  c #5F4742",
"A  c #5E524A",
"S  c #4C4F52",
"D  c #524E50",
"F  c #5C5B5D",
"G  c #595557",
"H  c #6B5D4E",
"J  c #665A55",
"K  c #705D54",
"L  c #756358",
"P  c #67615D",
"I  c #685E61",
"U  c #636465",
"Y  c #6A6A63",
"T  c #686669",
"R  c #736E66",
"E  c #726E74",
"W  c #727372",
"Q  c #7B7473",
"!  c #7D7E7D",
"~  c #74797E",
"^  c #6D6F72",
"/  c #955004",
"(  c #844705",
")  c #984F32",
"_  c #9A5436",
"`  c #8A482C",
"'  c #A45B3A",
"]  c #A7603E",
"[  c #895742",
"{  c #8A6959",
"}  c #986B53",
"|  c #BA704D",
" . c #AB7456",
".. c #B67554",
"X. c #80706D",
"o. c #857D7A",
"O. c #A87B61",
"+. c #C07653",
"@. c #9A826A",
"#. c #86867D",
"$. c #908670",
"%. c #A38065",
"&. c #BC8C69",
"*. c #A98C78",
"=. c #A9927B",
"-. c #B88B71",
";. c #C0835C",
":. c #DE976F",
">. c #C99473",
",. c #D4A277",
"<. c #E5A076",
"1. c #0E3F82",
"2. c #13468B",
"3. c #074798",
"4. c #134B95",
"5. c #124D9A",
"6. c #12509F",
"7. c #0F4487",
"8. c #234A82",
"9. c #1252A3",
"0. c #5D7490",
"q. c #5D6682",
"w. c #637488",
"e. c #7C7E84",
"r. c #7D8482",
"t. c #6E829F",
"y. c #7C8799",
"u. c #778BA7",
"i. c #7B8FB0",
"p. c #738DB0",
"a. c #868988",
"s. c #8B918C",
"d. c #94948A",
"f. c #919082",
"g. c #8C8B90",
"h. c #818790",
"j. c #918F90",
"k. c #969D9A",
"l. c #989795",
"z. c #8F9292",
"x. c #B99B88",
"c. c #A89991",
"v. c #9EA39C",
"b. c #9EA295",
"n. c #A4A397",
"m. c #A3A69B",
"M. c #A5A89D",
"N. c #A9A79B",
"B. c #919BAE",
"V. c #9CA3A7",
"C. c #8DA1BB",
"Z. c #9FA3B1",
"A. c #A6ABA2",
"S. c #AAAEA3",
"D. c #AAADAB",
"F. c #A2A5A7",
"G. c #ADB1A6",
"H. c #ACB2AC",
"J. c #B1B5AA",
"K. c #B4B7AA",
"L. c #ACAFB6",
"P. c #ADB2B2",
"I. c #B3B5B2",
"U. c #B5BBB2",
"Y. c #B6BCBC",
"T. c #B7B9BB",
"R. c #C19C95",
"E. c #C8A78C",
"W. c #C7A88B",
"Q. c #C2AA93",
"!. c #E0AD89",
"~. c #FFBB8C",
"^. c #E8B58D",
"/. c #C1BCB9",
"(. c #CEB9A5",
"). c #E4C09C",
"_. c #F9C59A",
"`. c #C0C2BE",
"'. c #D2C4BC",
"]. c #ECCAAA",
"[. c #F0CFAB",
"{. c #FED5AC",
"}. c #FFD9AE",
"|. c #FBD2A7",
" X c #F7D5B1",
".X c #FEDBB3",
"XX c #E5CFB7",
"oX c #FFE3B6",
"OX c #99B2CE",
"+X c #9BB4D0",
"@X c #B9BCC2",
"#X c #BEC6CE",
"$X c #BAC4D2",
"%X c #C6C6C6",
"&X c #D9D8D8",
"*X c #FFEEC4",
"=X c #FFE1C5",
"-X c #F6E3D1",
";X c #FDE7D1",
":X c #FFF5DD",
">X c #D5DCE8",
",X c #CAD7E5",
"<X c #DBE1EE",
"1X c #EAE9EB",
"2X c #F0EDE8",
"3X c #E7EDF8",
"4X c #F7EFF0",
"5X c #FFFFFF",
"6X c #F2F2F3",
"7X c #F2F4F5",
/* pixels */
"M.M.M.M.M.M.M.M.M.M.b.A.b.#.Y R W v.M.M.M.M.M.M.M.M.M.M.M.M.",
"M.M.M.M.M.M.M.M.M.m.%XD.W k.&X%Xx.P A.M.M.M.M.M.M.M.M.M.M.M.",
"M.M.M.M.M.M.M.M.M.S.g.g.5X5XI./.:XG m.M.M.M.M.M.M.M.M.M.M.M.",
"M.M.M.M.M.M.M.m.S.a.D.5X6X,Xh.L.$XW S.M.M.M.M.M.M.M.M.M.M.M.",
"M.M.M.M.M.M.M.M.A.G 1X5Xl.% U ! $ #.G.M.M.M.M.M.M.M.M.M.M.M.",
"M.M.M.M.M.M.M.m.K.a.G 0.k ,.(.f.x.n.A.m.m.M.M.M.M.M.M.M.M.M.",
"M.M.M.M.M.M.M.M.M.I.g.A 8 (.l.'.XX$.N.U.S.M.M.M.M.M.M.M.M.M.",
"M.M.M.M.M.M.M.m.m.M.z.*.L . + &.@.= E.1XI.m.M.M.M.M.M.M.M.M.",
"M.M.M.M.M.M.m.S.G.S.Y.Q r P.F.Z.j.R D.`.G.M.M.M.M.M.M.M.M.M.",
"M.M.M.M.M.m.S.a.U R m k ] =X:X:X].* N Y W v.S.m.M.M.M.M.M.M.",
"M.M.M.M.m.J.! j.&X&Xt.T _ 9 _ ) ` q.u.&X/.K k.G.m.M.M.M.M.M.",
"M.M.M.m.A.s.J Q.5X5X+Xu._.>.-. .^.B.C.5X5X!.L r.S.m.M.M.M.M.",
"M.M.m.A.c.*..X=.2X5XOXy.|.}.}..X|.u.C.5X4X].).=.! G.m.M.M.M.",
"M.M.S.s.} _.W.~.R.@Xp.i.;X-X-X-X;Xi.t.%X4X!.W.oX%.o.G.m.M.M.",
"M.m.G.r.t oXE.0 + ~ s.d.5X5X5X5X5Xu.w.F & O.|..X;.U J.m.M.M.",
"M.m.M.k.y <. X[.@.#Xh.$.3X<X<X1X6Xw.0.#XH  X{.~.[ a.S.m.m.M.",
"M.M.m.S.V.8 &..X{.J z n h e y % l M u b  X}.| 0 h.H.m.M.m.M.",
"M.M.M.m.J.~ ..}.*X{ i 9.g w w v 3.5.d  .*X:.Z z.A.m.M.M.M.M.",
"M.M.M.M.m.H.{ ' | < z 9.g ( / j 3.4.f < +.1 T K.m.M.M.M.M.M.",
"M.M.M.M.M.M.k.U T C x 5.2.8.8.7.2.5.p V T ~ D.m.M.M.M.M.M.M.",
"M.M.M.M.M.M.M.G.U.f.x 5.1.f a c 4.4.s d.U.H.m.M.M.M.M.M.M.M.",
"M.M.M.M.M.M.M.m.S.#.f 6.i N G $ c 5.p f.S.m.M.M.M.M.M.M.M.M.",
"M.M.M.M.M.M.M.m.G.Y d 5.# W #XS z 5.s Q G.m.M.M.M.M.M.M.M.M.",
"M.M.M.m.M.M.M.M.m.@X3X3X<XY.F.U >X3X>X%XS.m.M.M.M.M.M.M.M.M.",
"M.M.M.M.M.M.M.n.S.e.L.T.Z.E D.F F.@XB.~ J.M.M.M.M.M.m.M.M.M.",
"M.M.M.M.M.M.M.H.A.F @ : - 5 D.C O : : U d.m.A.m.M.M.M.M.M.M.",
"M.M.M.M.m.M.A.T 9 2 5 6 6 4 o.J ; q 6 < , 7 A.M.M.M.M.M.M.M.",
"M.M.M.M.m.S.d.  o 3 3 > 3 o X.V X > ; > - . Q G.m.M.M.M.M.M.",
"M.M.M.M.M.m.S.^ B D C C C C L.g.N I U G B F I.M.m.M.M.M.M.M.",
"M.M.M.M.M.M.M.D.H.H.D.H.D.I.I.I.P.Y.Y.I.D.I.I.M.M.M.M.M.M.M."
};
