/* XPM */
static char *a4f69f726f17475780c1084c13cfb57a0M4ZGCh1fAb7eNX4[] = {
/* columns rows colors chars-per-pixel */
"60 60 241 2 ",
"   c #010001",
".  c #01020A",
"X  c #0B0708",
"o  c #120501",
"O  c #1C0100",
"+  c #1B0A02",
"@  c #160A07",
"#  c #1E120E",
"$  c #050917",
"%  c #191615",
"&  c #240D01",
"*  c #260203",
"=  c #370C09",
"-  c #29150D",
";  c #221E1D",
":  c #38160A",
">  c #28211B",
",  c #010C25",
"<  c #000C34",
"1  c #051438",
"2  c #0E1528",
"3  c #2B1D2E",
"4  c #2C2B2D",
"5  c #242427",
"6  c #363637",
"7  c #2C2D30",
"8  c #47180B",
"9  c #491B11",
"0  c #5E1D0A",
"q  c #4B2214",
"w  c #5B2411",
"e  c #5D2911",
"r  c #542B0A",
"t  c #622B13",
"y  c #662514",
"u  c #6C3514",
"i  c #663112",
"p  c #743917",
"a  c #773819",
"s  c #6E2B0C",
"d  c #47352C",
"f  c #483A37",
"g  c #523432",
"h  c #713626",
"j  c #611F10",
"k  c #7E401A",
"l  c #7B611A",
"z  c #534337",
"x  c #46423E",
"c  c #754C33",
"v  c #011944",
"b  c #031F53",
"n  c #0B2952",
"m  c #373B46",
"M  c #293650",
"N  c #042B63",
"B  c #093267",
"V  c #1B3A6D",
"C  c #0B3778",
"Z  c #113E7F",
"A  c #253B64",
"S  c #493F42",
"D  c #1C467C",
"F  c #2A4261",
"G  c #3D4248",
"H  c #4C4B4D",
"J  c #454547",
"K  c #564A43",
"L  c #58504B",
"P  c #575759",
"I  c #4A4D54",
"U  c #685547",
"Y  c #6D5953",
"T  c #78624F",
"R  c #676258",
"E  c #7E6A59",
"W  c #5C5D63",
"Q  c #4A5B6A",
"!  c #686867",
"~  c #6C737A",
"^  c #777878",
"/  c #726F6E",
"(  c #576363",
")  c #87361A",
"_  c #8E3D22",
"`  c #81421B",
"'  c #90550F",
"]  c #A65A0C",
"[  c #8F462A",
"{  c #90792A",
"}  c #AA682A",
"|  c #C6790F",
" . c #C5643E",
".. c #8E5741",
"X. c #976449",
"o. c #866E5A",
"O. c #8B6A55",
"+. c #B17251",
"@. c #887567",
"#. c #927E6D",
"$. c #8C7A75",
"%. c #A97F65",
"&. c #C96C47",
"*. c #D8764B",
"=. c #B68C1A",
"-. c #BC9229",
";. c #C59007",
":. c #99826E",
">. c #83857E",
",. c #968575",
"<. c #AC8B72",
"1. c #90854A",
"2. c #EB8B5E",
"3. c #C68464",
"4. c #CB9573",
"5. c #E89368",
"6. c #E7976C",
"7. c #EBA679",
"8. c #FAAD7E",
"9. c #D88457",
"0. c #083D85",
"q. c #0C4289",
"w. c #11468E",
"e. c #12498F",
"r. c #19478D",
"t. c #0D4995",
"y. c #114791",
"u. c #124A93",
"i. c #144C9A",
"p. c #16519E",
"a. c #3B6498",
"s. c #1354A2",
"d. c #3A649B",
"f. c #526E95",
"g. c #767A86",
"h. c #617C98",
"j. c #5479A5",
"k. c #4E73A3",
"l. c #827C83",
"z. c #7E838E",
"x. c #7C8284",
"c. c #7E8491",
"v. c #5C86B8",
"b. c #7C8CA7",
"n. c #7993B7",
"m. c #6086B5",
"M. c #6E90C5",
"N. c #838582",
"B. c #84858C",
"V. c #8C8C8A",
"C. c #878988",
"Z. c #958C8A",
"A. c #868A94",
"S. c #8F9297",
"D. c #969898",
"F. c #92938D",
"G. c #B29380",
"H. c #9EA396",
"J. c #9EA29A",
"K. c #A3A69B",
"L. c #A5A89D",
"P. c #A3A799",
"I. c #989BA3",
"U. c #8A97AD",
"Y. c #9AA1A8",
"T. c #94A2B7",
"R. c #A4A6A4",
"E. c #A6ABA2",
"W. c #AAAEA4",
"Q. c #A3A7AB",
"!. c #A6A9A9",
"~. c #AAACAB",
"^. c #AAA7AC",
"/. c #ADB1A6",
"(. c #AEB3AB",
"). c #B2B5AB",
"_. c #B5B9AD",
"`. c #B5B6A9",
"'. c #ABAEB5",
"]. c #A3A9B3",
"[. c #ADB2B6",
"{. c #B3B4B4",
"}. c #BCBCBA",
"|. c #B6B8B6",
" X c #B2AEB1",
".X c #C4A78A",
"XX c #D4B194",
"oX c #EBAB83",
"OX c #E9B387",
"+X c #FAB687",
"@X c #E6BA98",
"#X c #F7BC97",
"$X c #F1AD84",
"%X c #C3BDB9",
"&X c #C19D89",
"*X c #BDC0BC",
"=X c #FBC69A",
"-X c #FFD39D",
";X c #D0C2B1",
":X c #ECCAA6",
">X c #F4CCA5",
",X c #F5CEA8",
"<X c #FCCCA4",
"1X c #F5D1AC",
"2X c #FBD3AC",
"3X c #FFDBAC",
"4X c #FFD2A5",
"5X c #F6D4B1",
"6X c #FEDBB2",
"7X c #FBD8B3",
"8X c #EFCEB7",
"9X c #FFE4B9",
"0X c #FFE2AF",
"qX c #91A9CB",
"wX c #A8B4C5",
"eX c #B7BCC2",
"rX c #C3BFC6",
"tX c #BEC3C3",
"yX c #BFC6D1",
"uX c #B5C9EA",
"iX c #C2C3C3",
"pX c #C9C9CB",
"aX c #C3CCDA",
"sX c #D4D4D7",
"dX c #D3D0D0",
"fX c #EDDBCC",
"gX c #FDE8C6",
"hX c #F4E7DA",
"jX c #FFFCD9",
"kX c #CBD4E5",
"lX c #D6DAE5",
"zX c #C3D5EA",
"xX c #DBE3F5",
"cX c #DEE2E4",
"vX c #E6E6E9",
"bX c #F8EDE6",
"nX c #FDF7E9",
"mX c #E6E9F3",
"MX c #F2F4FD",
"NX c #FDFDFD",
"BX c #F7F8F8",
/* pixels */
"L.L.L.L.L.L.L.L.L.L.L.L.L.L.L.L.L.L.L.L.L.L.L.L.P.P.K.)._._._._._._.E.L.L.L.L.L.L.L.L.L.L.L.L.L.L.L.L.L.L.L.L.L.L.L.L.L.",
"L.L.L.L.L.L.L.L.L.L.L.L.L.L.L.L.L.L.L.L.L.L.L.L./.).{.J 7 6 6 6 6 4 V.*XP.L.L.L.L.L.L.L.L.L.L.L.L.L.L.L.L.L.L.L.K.L.L.L.",
"L.L.L.L.L.L.L.L.L.L.L.L.L.L.L.L.L.L.L.L.K.P.F.dXW % 4 F.~.R.R.~.'.eXW ! ).K.L.L.L.L.L.L.L.L.L.L.L.L.L.L.L.L.L.L.L.L.L.L.",
"L.L.L.L.L.L.L.L.L.L.L.L.L.L.L.L.L.L.L.L.eXvXNX! / iX{.NXNXNXNXnX<X<Xd J _.P.L.L.L.L.L.L.L.L.L.L.L.L.L.L.L.K.L.L.L.L.L.L.",
"L.L.L.L.L.L.L.L.L.L.L.L.K.L.L.L.L.K.L.Y.sX{.J ^ mXNXNXNXNXN.{.nX@X#Xf I _.P.L.L.L.L.L.L.L.L.L.L.L.L.L.L.L.K.L.L.L.L.L.L.",
"L.L.L.L.L.L.L.L.L.K.K.L.K.K.L.L.L.L.P.~.B.J / vXNXBXBXNXR.P ! dXNXNXP J _.P.L.L.L.L.L.L.L.L.L.L.L.L.L.L.L.L.L.L.L.L.L.L.",
"L.L.L.L.L.L.L.L.L.K.K.L.L.L.L.L.L.P./.N.H {.NXNXBXNXNXNXW dXC.V.NXcXP ! ).K.L.L.L.L.L.L.L.L.L.L.L.L.L.L.L.L.L.L.L.L.L.L.",
"L.L.L.L.L.L.L.L.L.K.K.L.L.L.L.L.P.(.D.H {.NXBXBXNXdXkXxXxX6 V.NXxXJ W }.P.L.L.L.L.L.L.L.L.L.L.L.L.L.L.L.L.L.L.L.L.L.L.L.",
"L.L.L.L.L.L.L.L.L.L.L.L.L.L.L.L.P.|.W ! NXmXBXMXNX7 < B N '.pXf.N , ! /.P.L.L.L.L.L.L.L.L.K.L.L.L.L.L.L.L.L.L.L.L.L.L.L.",
"L.L.L.L.L.L.L.L.L.L.L.L.L.L.L.L.P.(.! 4 sXNXNXNX}.L d d K d d K z - / (.K.L.L.L.L.L.L.L.K.L.L.L.L.K.L.L.L.L.L.L.L.L.L.L.",
"L.L.L.L.L.L.L.L.L.L.L.L.L.L.L.L.P.).D.X 5 R.].uXF U OX=X<.8X;XO.;X#X<.E.K.L.L.K.K.L.L.L.L.L.L.L.L.K.L.L.L.L.L.L.L.L.L.L.",
"L.L.L.L.L.L.L.L.L.L.L.L.L.L.L.L.H.}.vX X6 6 2 v B $ <.6X/ sXiXJ E.;XZ.(.E.L.L.L.L.L.L.L.L.L.L.L.L.L.L.L.L.L.L.L.L.L.L.L.",
"L.L.L.L.L.L.L.L.L.L.L.L.L.L.L.L.L.L.Q.T.[.|.R z % 8 4.NXI.cXpXY.NXU V.D.V.W.H.P.P.P.L.L.L.L.L.L.L.L.L.L.L.L.L.L.L.L.L.L.",
"L.L.L.L.L.L.L.L.L.L.L.L.L.L.L.L.L.L.L.J./.P o.,X% c 4X%X$ G.&XF.gX9X:XU $.dXtX}.}./.P.L.L.L.L.L.L.L.L.L.L.L.L.L.L.L.L.L.",
"L.L.L.L.L.L.L.L.L.L.L.L.L.L.L.L.L.L.L.H.;XW T <.z #.<.>   %.+X4X3X.X% z OX6XvXsXsX{.P.L.L.L.L.L.L.L.L.L.L.L.K.K.L.L.L.L.",
"L.L.L.L.L.L.L.L.L.L.L.L.L.L.L.L.L.K.L.H.;XB.,.XXG.>       K o.T E U # $ @.@XhXvX XH.L.L.L.L.L.L.L.L.L.L.L.L.K.K.L.L.L.L.",
"L.L.L.L.K.L.L.L.L.L.L.L.L.L.L.L.L.L.L.L.H.~.aXf O H ! P P H H H G @.U / eXwXpXpX~.K.L.L.L.L.L.L.L.L.L.L.L.L.L.L.L.L.L.L.",
"L.L.L.L.L.L.L.L.K.L.L.L.L.L.K.L.L.P.P.P.E.W.).f ) 8XNXNXNXNXNXNXNXC.R ~.W.L.J.H.P.K.P.L.L.L.L.L.L.L.L.L.L.L.L.L.L.L.L.L.",
"L.L.L.L.L.L.L.L.L.K.L.L.L.L.E.W.W./.W./.Y.d.d.3 s 7.gXhXhXhXdXfXhXjXT > z x._.W./.E.L.L.L.L.L.L.L.L.L.K.L.L.L.L.L.L.L.L.",
"L.L.L.L.K.L.L.L.L.L.L.K.P.W.D.; 5 5 5 ; n V * U &.c 4.4X1X2X3X5X=X+.- 1 1 @ 5 5 % P eXE.E.L.L.L.L.L.L.L.L.L.L.L.L.L.L.L.",
"L.L.K.K.L.L.L.L.L.L.L.P.W.N.H pXiXiXiXiXwXD b <.X.O h 3.5.5.5.6...w f j.h.g.dXiXdXV.X H eXL.L.L.L.L.L.L.L.L.L.K.L.L.L.L.",
"L.L.K.K.L.L.L.L.L.L.L.K.iX! 5 NXNXNXNXNXmXk.v.$.+.X.t = y 0 j y t 3.Z.M.U.qXNXNXNXfX+.$.J tXL.L.L.L.L.L.L.L.L.L.L.L.L.L.",
"L.L.K.L.L.K.K.L.L.P.E.{.5 6 XXfXBXBXBXNXkXj.qXl.-X8.+.O...X...a 3.0XS.m.b.T.NXBXNXbX=XoX,.I *XK.P.L.L.L.L.L.L.L.L.L.L.L.",
"L.L.L.L.K.K.L.L.P./.|.J <.:.Y 9XBXNXBXNXlXj.n.A.0X@X#X6X=X4X=X$X=X6XS.v.b.T.NXBXNXbX4X4.U #.5 V.).P.L.L.L.L.L.L.L.L.L.L.",
"L.L.L.L.K.L.L.P./.].6 ,.6X,X@.K BXNXBXNXlXj.n.B.3X1X1X,X1X1X1X5X1X3XS.v.b.T.NXBXNXbX3XXX:.1X:.L g.*XH.L.L.L.L.L.L.L.L.L.",
"L.L.L.L.L.L.K.L.`.3.:.6X6X3X,X#.hXNXBXNXkXj.n.C.3X>X>X,X,X1X,X,X,X3XS.v.b.T.NXBXNXbX>X3XgX1X9X.XL ^ _.P.L.L.L.L.L.L.L.L.",
"L.L.L.L.L.L.L.D.K *.6X@X:.5X7X9XoXbXNXNXmXj.n.C.9X1X5X5X5X5X5X5X5X9XS.v.b.wXNXNXmXnX6X:X@.>X>X9X<.U N.E.K.L.L.L.L.L.L.L.",
"L.L.K.L.L.L.E.N.@ 7.2XXXR =X$X$X&.b.c.D.g.k.n.U.NXBXBXBXBXBXBXBXBXNXqXj.n.Q K.'.xXbX$X4.L :X2X:X3XX.5 ).P.L.L.K.L.L.L.L.",
"L.L.K.L.L.P./.V.% 7.<X2X9X<.y a h $ X L m a.h.T.NXBXNXNXNXNXNXNXNXNXqXa.f.M ; % I./ a 4.9X1X1X1X=XX.f _.P.L.L.L.L.L.L.L.",
"L.L.L.L.L.P.W.x.# 9.<X,X3X:.5 6 4 % ! NXxX1.;.T.NXBXBXNXNXNXNXNXBXNXqXP c uXdX5     x 5X1X1X,X1X#Xc 6 ~.P.L.L.K.L.L.L.L.",
"L.L.L.K.L.P.E.N.o  .7.>X,X2X6X9X.X6 sXBXuX! { qXNXBXNXNXNXNXNXNXBXNXwXq.C wXNXiX% Z.6X1X1X1X1X=X2.y 6 ).P.L.L.K.K.L.L.L.",
"L.L.K.L.L.L.P.E.F.- &.<X6X1X>X1X:X@.~ NXV ( { M.MXxXxXxXmXxXmXmXxXMXqXQ R i.zXiX; gX,X1X2X<X7.8.X.S iXP.L.L.L.K.K.L.L.L.",
"L.L.L.L.L.L.L.L.{.^ q g X.$X5X,X3X>XE I C D F M f m m m M m m 6 6 f A V M v 7 C..X>X1X>X7.*.*.` K I. XL.L.L.L.L.K.L.L.L.",
"L.L.L.L.L.L.L.P.L.|.W   c #X1X1X,X6XXX  n 0.0.N v # * l =.r * v b v N q.C 2   ! gX>X1X<X&.8 = f A.].J.L.L.L.L.L.L.L.L.L.",
"L.L.L.L.L.L.L.L.P.P.}.7 c 4X1X,X,X>X1X> . e.u.i.s.3 ' { l -.w r.s.p.i.u.w., d XX1X,X1XoX[ ! ~ S.[.R.L.L.L.L.L.K.L.L.L.L.",
"L.L.L.L.L.L.L.L.L.P.L.^ X.2.=X7X5X7XOX# 1 u.w.e.e.2 } r   =.e Z u.e.e.e.i., [ =X5X1XoX .# D.|.I.J.L.L.L.L.L.L.L.L.L.L.L.",
"L.L.L.L.L.L.L.L.L.L.P.tX$.) 5.$XoX$X2.& v u.w.e.u., ' | ' | 9 Z u.w.e.e.u., 9 3.+X7.*.h   D.L.L.L.L.L.L.L.L.L.K.L.L.L.L.",
"L.L.L.L.L.L.L.L.L.L.P.).g.f [ ) ) ) a o v y.y.e.u.% s ] ] ' + Z u.e.y.e.e.2   9 _ _ a   P E.E.L.L.L.L.L.L.L.L.L.L.L.L.L.",
"L.L.L.L.L.L.L.L.L.L.L.P.{.S.5 4 4 4 5 % 1 y.y.e.y.A F A A A B q.u.y.e.u.C . ; 7 7 7 4 J dXW.L.L.L.L.L.L.L.L.L.L.L.L.L.L.",
"L.L.K.L.L.L.L.L.L.L.L.L.L.P.E.'.'.].{./ < u.e.e.e.t.t.t.t.t.i.u.w.y.e.u.C   ^ eX].].[.sXJ.P.E.L.L.L.L.L.L.L.L.L.L.L.L.L.",
"L.L.L.L.L.L.L.L.L.L.L.L.L.L.P.P.P.H./.! < u.w.e.y.e.e.y.e.e.w.u.w.u.e.u.C . >.E.K.L.K.J.L.L.L.L.L.L.L.L.L.L.L.L.L.L.L.L.",
"L.L.L.L.L.L.L.L.L.L.L.L.L.L.L.L.L.P.).! < u.w.e.u.N 1 1 1 1 1 q.w.w.e.u.C . >./.P.L.L.L.L.L.L.L.L.L.L.L.L.L.L.L.L.L.L.L.",
"L.L.L.L.L.L.L.L.L.L.L.L.L.L.L.L.L.P.).! < u.w.u.0., X X X X X $ q.u.e.u.C . >./.P.L.L.L.L.L.L.L.L.L.L.L.L.L.L.L.L.L.L.L.",
"L.L.L.L.L.L.L.L.L.L.L.L.L.L.L.L.L.P./.! < u.w.w.0.$ ! Y.D.Y.g.. e.e.e.u.C . >./.L.L.L.L.L.L.L.L.L.L.L.L.L.L.L.L.L.L.L.L.",
"L.L.L.L.L.L.L.L.K.L.L.L.L.L.L.L.L.P._.^ . w.u.i.n   z.eX].'.V.  1 e.w.u.B   F.).P.L.L.L.L.L.L.L.L.L.L.L.L.L.L.L.L.L.L.L.",
"L.L.L.L.L.L.L.L.L.L.L.L.L.L.L.L.P./.C.% , q.0.q.0., @ ! ].Q.V.$ C 0.0.0.0.$ % C.E.K.L.L.L.L.L.L.L.L.L.L.L.L.L.L.L.L.L.L.",
"L.L.L.L.L.L.K.K.L.L.L.L.L.L.L.L.L.R.R.{.yXzXaXaXzXaX|.R.D.~.N.5 zXaXaXaXkXpX).pX*XP.L.L.L.L.L.L.L.L.L.L.L.L.L.L.L.L.L.L.",
"L.L.L.L.L.L.K.K.L.L.L.L.L.L.K.L.L.D.eXNXNXNXNXNXBXvXNXsXD.W.N.4 NXNXNXNXmXmXNXtXK.L.L.L.L.L.K.K.L.L.L.L.L.L.L.K.L.L.L.L.",
"L.L.L.L.L.L.L.L.L.L.L.L.L.L.K.K.P._.D.S.NXMXMXMXlXkXA.g.Q.[.N.4 MXMXMXMXkXkXA.S.}.H.L.L.L.L.L.L.L.L.L.L.L.L.L.L.L.L.L.L.",
"L.L.L.L.L.L.L.L.L.L.K.L.L.L.L.L.P.).P X c.g.g.g.g.c.> d '.~.C.% g.g.g.g.g.z.  P ).P.L.L.L.L.L.L.L.L.L.L.L.L.L.L.L.L.L.L.",
"L.L.L.L.L.L.L.L.L.L.L.L.L.L.L.P.E.|.D.P + & & & & + r O.'.W.V.  + & & & & & P  X(.W.E.P.L.L.L.L.L.L.L.K.L.L.L.L.L.L.L.L.",
"L.L.L.L.L.L.L.L.L.L.L.L.L.P.E.|.~.$.$.~ q k k k k k p c Z.~.N.& i a ` ` ` a g.~ / ,.F.{.P.L.L.L.L.L.L.K.L.L.L.L.L.L.L.L.",
"L.L.L.L.L.L.L.L.K.L.K.L.P./.!.l.Y 0 r o - u u u u u u 0 g [.V.= w w u u u i + o : 0 ; z.!.L.L.L.L.L.L.L.L.L.L.L.L.L.L.L.",
"L.L.L.L.L.L.L.L.K.K.L.K.L.~.! O 8 q p p p u u u u u p 9 g {.A.o w w u u u u p p u w = # ^.W.K.L.L.L.L.L.L.L.L.K.L.L.L.L.",
"L.L.L.L.L.L.L.L.L.L.L.P.(./ O X 9 p u u u u u u u u u 9 q XXA.o 8 w u u u u u i t w = : @.L.L.L.L.L.L.L.L.L.L.L.L.L.L.L.",
"L.L.L.L.L.L.L.L.L.L.L.P./.N.X @ 8 q t u u u u u u u p : 6 eXg.  @ e t t t t t t w 8 = X d K.L.L.L.L.L.L.L.L.L.L.L.L.L.L.",
"L.L.L.L.L.L.L.L.L.L.L.L.L.E.^   o   + + + + + + + + #   J lXA.    + o o o o o + o     % I.E.L.L.L.L.L.L.L.L.L.L.L.L.L.L.",
"L.L.L.L.L.L.L.L.L.L.L.L.P.(.Q.B.B.A.A.c.z.z.z.A.c.A.z.I.rXvXsX^.A.A.'.'.'.'.Q.z.z.B.B. XlXsXK.L.L.L.L.L.L.L.L.L.L.L.L.L.",
"L.L.L.L.L.L.L.L.L.L.L.L.L.R.D.!.Q.!.!.!.Q.!.!.!.!.!.Q.{.}.{.|.|.Q.~.}.%X}.%X}.R.!.!.!.|.|. XK.L.L.L.L.L.L.L.L.L.L.L.L.L.",
"E.L.L.L.L.L.L.L.L.L.L.L.L.L.L.P.P.P.P.P.P.P.P.P.P.P.P.H.H.P.H.H.P.P.H.H.H.H.H.P.P.P.P.H.H.P.L.L.L.L.L.L.L.L.L.L.L.L.L.L."
};
