/* XPM */
static char *c21eb9e5f5e84700cfbe86cd5537d01fzTE84aQ3AK8yVXg5[] = {
/* columns rows colors chars-per-pixel */
"60 60 238 2 ",
"   c None",
".  c #020102",
"X  c #0D0B0B",
"o  c #08080B",
"O  c #140D0D",
"+  c #160A08",
"@  c #080C18",
"#  c #1B1A1C",
"$  c #171315",
"%  c #141113",
"&  c #25150E",
"*  c #2D160C",
"=  c #32190C",
"-  c #3C140E",
";  c #251511",
":  c #281816",
">  c #381C14",
",  c #320E0B",
"<  c #33241D",
"1  c #2A231F",
"2  c #080F24",
"3  c #091529",
"4  c #181B29",
"5  c #091A3E",
"6  c #071836",
"7  c #251D27",
"8  c #142138",
"9  c #2B2A2C",
"0  c #272426",
"q  c #342927",
"w  c #2B2F36",
"e  c #3C3A3B",
"r  c #363536",
"t  c #382E2E",
"y  c #4B180F",
"u  c #4B2517",
"i  c #5C2611",
"p  c #5B2912",
"a  c #572715",
"s  c #552911",
"d  c #672B16",
"f  c #663214",
"g  c #6C3515",
"h  c #693810",
"j  c #743A16",
"k  c #713615",
"l  c #4A2E29",
"z  c #413C3C",
"x  c #473834",
"c  c #563E3A",
"v  c #54332A",
"b  c #6D3726",
"n  c #783B26",
"m  c #4C423B",
"M  c #55453D",
"N  c #724D36",
"B  c #624E18",
"V  c #061B43",
"C  c #0B2A55",
"Z  c #102A50",
"A  c #273B5E",
"S  c #303A4C",
"D  c #0C326A",
"F  c #1A3B6A",
"G  c #0D3978",
"H  c #173C76",
"J  c #2F3E60",
"K  c #503A43",
"L  c #18447C",
"P  c #2B4466",
"I  c #23487A",
"U  c #3D485C",
"Y  c #434344",
"T  c #43434B",
"R  c #4C4847",
"E  c #564A44",
"W  c #4E4D50",
"Q  c #4C535A",
"!  c #545353",
"~  c #5C5B5C",
"^  c #545558",
"/  c #514F52",
"(  c #64554A",
")  c #655854",
"_  c #74554A",
"`  c #746754",
"'  c #5C5E63",
"]  c #41556B",
"[  c #576166",
"{  c #636364",
"}  c #696869",
"|  c #6C6E73",
" . c #76787B",
".. c #777067",
"X. c #615E61",
"o. c #833C23",
"O. c #8E5414",
"+. c #B17115",
"@. c #8B432B",
"#. c #864B35",
"$. c #8F4E35",
"%. c #8F762A",
"&. c #AE6F33",
"*. c #A4622B",
"=. c #8E5A44",
"-. c #98674B",
";. c #8E6D59",
":. c #BB7A59",
">. c #AC6D4F",
",. c #8B7768",
"<. c #947C69",
"1. c #877776",
"2. c #957D74",
"3. c #826E60",
"4. c #AF7E61",
"5. c #C9734F",
"6. c #B59129",
"7. c #978678",
"8. c #94806F",
"9. c #A68B76",
"0. c #B79075",
"q. c #938A57",
"w. c #D3845B",
"e. c #DA8D65",
"r. c #C79879",
"t. c #D89B76",
"y. c #E2956C",
"u. c #DBA178",
"i. c #CEA37E",
"p. c #E7A379",
"a. c #F1AA7A",
"s. c #0C3E85",
"d. c #0F4289",
"f. c #11458C",
"g. c #14498E",
"h. c #124284",
"j. c #0F4893",
"k. c #114790",
"l. c #124991",
"z. c #35588B",
"x. c #4E6B91",
"c. c #7A7B84",
"v. c #767883",
"b. c #627186",
"n. c #5379A6",
"m. c #7E828A",
"M. c #7E8084",
"N. c #768492",
"B. c #5E80AA",
"V. c #6382A8",
"C. c #748AA6",
"Z. c #7B94B5",
"A. c #6F8AB2",
"S. c #848384",
"D. c #83848B",
"F. c #8B8B8C",
"G. c #89878A",
"H. c #938886",
"J. c #878994",
"K. c #8D9298",
"L. c #9C9B9D",
"P. c #959699",
"I. c #908E92",
"U. c #B99C87",
"Y. c #AB9488",
"T. c #B9A28D",
"R. c #9C9CA3",
"E. c #9296A2",
"W. c #909FB4",
"Q. c #9CA2AA",
"!. c #96A5B9",
"~. c #A2A3A5",
"^. c #A3A5AC",
"/. c #ACADAE",
"(. c #A7A8AA",
"). c #A5AAB2",
"_. c #A9ACB4",
"`. c #A2ABB8",
"'. c #B4B4B3",
"]. c #BDBDBD",
"[. c #B7B7BB",
"{. c #B2AFAE",
"}. c #C6A68B",
"|. c #D1AF94",
" X c #E8AB83",
".X c #E6BA98",
"XX c #F3BC93",
"oX c #EFB58B",
"OX c #D7B9A3",
"+X c #EABDA3",
"@X c #F4C39B",
"#X c #F6C296",
"$X c #E5C19F",
"%X c #E6C3A1",
"&X c #ECCAA8",
"*X c #F6CBA4",
"=X c #F4CDA9",
"-X c #F9CCA3",
";X c #F7D1AB",
":X c #FAD3AC",
">X c #F6D5B5",
",X c #F9D7B7",
"<X c #F2CDB3",
"1X c #D8C1AB",
"2X c #9EB3CD",
"3X c #A5B1C5",
"4X c #B9BDC4",
"5X c #A8B8CC",
"6X c #849CC0",
"7X c #C3BFC5",
"8X c #B9C9DC",
"9X c #B2C0D7",
"0X c #B9C1CA",
"qX c #CAC6CD",
"wX c #C5C5C9",
"eX c #CECBD2",
"rX c #C3CAD9",
"tX c #D3D2D3",
"yX c #D7D6DC",
"uX c #DDCDC2",
"iX c #F7DDC4",
"pX c #E9DAD1",
"aX c #F8EADD",
"sX c #EFE2D5",
"dX c #C8D3E2",
"fX c #D2D6E4",
"gX c #D4DBE6",
"hX c #D3DDE8",
"jX c #DBE1E9",
"kX c #E6E5E9",
"lX c #FBEFE2",
"zX c #FCF0E3",
"xX c #EAECF3",
"cX c #E6EAF3",
"vX c #FCF9F4",
"bX c #FDFEFD",
"nX c #F4F6F7",
"mX c #EFF0F4",
/* pixels */
"                                                                                                                        ",
"                                                      0 X % # # # #  .                                                  ",
"                                              eX~ 0 r P././././././.} !                                                 ",
"                                        eXkXvXc.S.'.'.mXbXbXbXaX=X.XM 9                                                 ",
"                                        wX~.~ G.kXbXbXbXnXP.'.lX<X+XM 9                                                 ",
"                                        D.{ M.tXbXbXbXnX/.{  .tXbXbX~ 9                                                 ",
"                                        { [.mXbXbXbXbXnXS./.F.(.bXtX{ !                                                 ",
"                                    G.! '.bXbXbXvXtXrXdX0X^ F.jXdX' }                                                   ",
"                                    | } bXbXbXbXvXW Z F P P./.b.F 6 Y                                                   ",
"                                    | Y wXbXbXbX'.( c m R E E E R t M                                                   ",
"                                    G.0 e ~._.5X] _ u.oX0.1X|.8.|.|.                                                    ",
"                                    yXR.Y e w Z C 7 0.>XH.tX].} {.OX7.                                                  ",
"                                    _.).).P.) m $ u i.zXR.tXwX~.aX<.7.                                                  ",
"                                            3.}.q N .X{.r Y.}.T.iX;X|.` 7.uX                                            ",
"                                          W 3.9.( 3.<.q o <.p.#X-XU.t M i.>XsXyXtX                                      ",
"                                          G.H.}.9.t . . . ( ,.3.3.( : 0 ,.OXsXyX7X                                      ",
"                                            4Xc - E { { { ' X.' ' ..E { _.4XeXeX                                        ",
"                                              l n OXbXbXbXnXcXnXbXP.m                                                   ",
"                                          z.z.q o.u.iXaXlXaXpXsXaXiX_ < x W                                             ",
"                            F.9 0 9 9 0 S F 7 _ &.#.r.*X:X;X:X:XXX:.< 8 8 # 9 9 0 { ^.                                  ",
"                          } ~ [.].].].].`.I A 2.$.y N :.e.e.e.e.=.b K x.x.N.wXwXwXF.9 W ).                              ",
"                          } R vXbXbXbXbXjXn.n.1.:.-.b y d d d d n 4.H.V.C.3XbXbXbXuX4.,.~ _.                            ",
"                      L.e R T.iXvXbXbXbXgXV.Z.G.#Xa.:.-.-.-.=.@.0.-XR.V.C.3XbXbXbXaXXXt.2.'                             ",
"                      ~ 7.<.3.=XvXbXbXbXgXB.Z.I.:X#XXX*X@X*XXX X@X:XR.B.C.`.bXbXbXzX=Xr.` ,.r                           ",
"                  ~.R 9.=X%X8.` kXbXbXbXgXB.Z.I.:X;X;X;X:X:X;X;X;X:XR.B.C.`.bXbXbXlX:XOX0.%X9.) |                       ",
"                  0.9.&X:X:X%X9.pXvXbXbXgXB.Z.F.:X;X;X;X;X;X;X;X;X:XR.B.C.3XbXbXbXlX;X:X:X:X:XU.} |                     ",
"                M w.-X.X9.=X:X:X.XkXmXbXjXV.Z.I.,X>X,X>X,X,X,X>X>X,XR.B.C.3XbXnXxXzX:X%X9.&X;X:X0.) !                   ",
"                q t.-X|.,..X Xp.5.J.J.L.J.n.Z.W.vXvXvXvXvXvXvXvXvXvX2Xn.V.b.L._.gXpX Xr.` %X;X;X@X-.q                   ",
"              | q u.-X:X:X0.n o.b 2 4 ^ Q x.N.!.bXbXbXbXbXbXbXbXbXbX2Xx.x.U r w J.1.#.t.=X;X;X;X#X-.x                   ",
"               .< w.@X;X:X9.x x r 7 } vXhXq.6.).bXbXbXbXbXbXbXbXbXbX2X[ ) 3X].e o X E %X;X;X;X;XoX#.S Q.                ",
"                < &.p.*X;X=X=X=XU.R [.nX9X..%.!.bXbXbXbXbXbXbXbXbXbX2XI I 3XbX'.0 8.&X;X;X;X;X#Xe.b w                   ",
"                S.l >.XX;X;X;X;X%X<. .yXz.[ ` Z.gXfXfXfXfXfXfXfXfXgX6X] Q z.5X[.z &X;X;X-X#Xp.p.>.) /.                  ",
"                _. .v N >. X;X;X:X$X,.Q G L P A T T T T T T T T T T P I A V S S.}.=X;X*Xp.5.5.#.( K._.                  ",
"                  _.X.$ N oX;X;X;X:X}.# Z G s.D Z # = N %.h * V C C D h.D 2 . ..,X;X;X@X5.a u E D.).                    ",
"                    (.9 _ XX;X;X;X;X.X1 @ h.k.k.f.9 O.%.B &.a H l.l.k.k.G 3 x }.:X;X*Xt.#.}  .K.^.                      ",
"                      ^ ;.e.#X;X;X;X X: 6 f.k.k.f.7 *.B o +.p H k.k.k.k.f.6 #.oX:X=Xp.>.> D._.R.                        ",
"                        2.$.e.p.p.p.5.; V f.k.k.f.4 O.+.O.+.u H k.f.k.k.f.6 u :. Xp.5.b $                               ",
"                        c.E @.@.@.@.n + V f.k.k.f.4 h O.O.O.; G k.k.k.k.h.3 . u $.@.n $ ~                               ",
"                          D.q z z z 9 # V d.k.k.f.F A A J A D h.k.k.k.k.G @ 0 e e z e ^ 4X                              ",
"                              ^.^.Q.  R V d.k.f.f.k.j.j.k.k.k.k.k.k.k.k.G @ } ).Q.Q.).qX                                ",
"                                      e 5 f.k.f.k.f.f.f.f.f.f.k.k.k.k.k.D @ !                                           ",
"                                      z 5 f.k.k.f.C V V 5 6 V G f.k.k.k.D @                                             ",
"                                      z 5 f.k.k.G 6 @ $ $ $ % 3 h.k.k.k.D @                                             ",
"                                      e 5 d.k.f.G 3 { P.K.K. .3 L f.k.k.D @                                             ",
"                                      Y 2 G k.f.C o  ._.).(.G.% 5 h.k.k.D o                                             ",
"                                      9 8 g.l.g.L 6 w  .^.^.G.4 H g.g.g.h.3 9                                           ",
"                                    ~.'.4X8X8X8X8X4X'.~.L.~.G.e 5X8X8X8X8X4X'.wX                                        ",
"                                    0XxXbXbXbXbXxXkXcXwX~.~.S.Y nXbXbXbXxXkXcXqX                                        ",
"                                    E.R.xXxXxXxXfXrXE.D.^./.S.Y jXxXxXxXdXrXE.P.                                        ",
"                                    ~ 9 v.v.c.v.v.v.x M ).   .9  .c.c.c.c.v.0 W                                         ",
"                                    D./ : * * * * * p =.     .% & * = = = > ! P.                                        ",
"                                L.2.1.{ u g j j j j k N H.(.S.: i k j j j b } | E                                       ",
"                            ~. .` d p * = g g g g g g d ( ^.F.> s i g g g f = * > a q c.                                ",
"                          P.{ ; y s g g g g g g g g g s c (.F.; y i g g g g g g f i , 0 L.                              ",
"                          ..; + y g g g g g g g g f g y v U.F.$ y i g g g g g f d s - ,                                 ",
"                            X + - u p f f f f f f f f y z /.c.X + s i p p p p p s - , O l                               ",
"                              O O O & & & & ; ; ; ; ; O W qXK.$ X ; ; ; ; ; ; & & O O 9 P.                              ",
"                            Q.m.m.m.D.m.m.M.m.m.m.m.m.P.[.yXeX~.D.J.~.(.(.(.R.m.m.m.D.(.eXyX                            ",
"                            ^.).).).).).^.^._._._._.).wXeXqXqX7X_._.qXeXeXeXwX).).)._.qXeXqX                            ",
"                                                                                                                        "
};
