/* XPM */
static char *_fe28e5a22904c3187ec08e5ce1638bbFoXru1DImQQ2zcre[] = {
/* columns rows colors chars-per-pixel */
"40 59 185 2 ",
"   c None",
".  c #050402",
"X  c #080705",
"o  c #090807",
"O  c #0C0B0A",
"+  c #100F0C",
"@  c #130B05",
"#  c #14100D",
"$  c #1E120C",
"%  c #141312",
"&  c #121A1E",
"*  c #08141A",
"=  c #370C0B",
"-  c #23140C",
";  c #2C170C",
":  c #33190B",
">  c #3B1B09",
",  c #351810",
"<  c #261513",
"1  c #372B0C",
"2  c #21201F",
"3  c #0F1B21",
"4  c #11232C",
"5  c #0E2937",
"6  c #122936",
"7  c #292723",
"8  c #372C26",
"9  c #3C322D",
"0  c #3F3935",
"q  c #500D0C",
"w  c #401D09",
"e  c #4F1414",
"r  c #581212",
"t  c #400909",
"y  c #620D0E",
"u  c #721111",
"i  c #55260C",
"p  c #5A290E",
"a  c #41320B",
"s  c #4C2D1C",
"d  c #492511",
"f  c #50260E",
"g  c #632B0C",
"h  c #6E2F0C",
"j  c #74320D",
"k  c #7B340D",
"l  c #683316",
"z  c #783510",
"x  c #47362D",
"c  c #54302B",
"v  c #4C3F39",
"b  c #473B35",
"n  c #652421",
"m  c #3C4938",
"M  c #705814",
"N  c #4D413B",
"B  c #52443D",
"V  c #766C31",
"C  c #0E2E40",
"Z  c #0F3142",
"A  c #133142",
"S  c #173749",
"D  c #133C53",
"F  c #263E4B",
"G  c #213744",
"H  c #14435D",
"J  c #18435A",
"K  c #27495C",
"L  c #144561",
"P  c #154965",
"I  c #164D6C",
"U  c #1A4E6A",
"Y  c #17506F",
"T  c #175273",
"R  c #185576",
"E  c #185678",
"W  c #1A597C",
"Q  c #1E5976",
"!  c #2D596A",
"~  c #285A72",
"^  c #554740",
"/  c #5B4C44",
"(  c #504F4E",
")  c #494745",
"_  c #604F48",
"`  c #65534B",
"'  c #66544B",
"]  c #725D54",
"[  c #6A5850",
"{  c #516550",
"}  c #61605F",
"|  c #7E685E",
" . c #786258",
".. c #5B5E62",
"X. c #4C6367",
"o. c #6D6D6C",
"O. c #767675",
"+. c #756A65",
"@. c #971516",
"#. c #861415",
"$. c #BD1B1C",
"%. c #8B3C0E",
"&. c #84380D",
"*. c #933E0D",
"=. c #883E14",
"-. c #892927",
";. c #B82727",
":. c #AF3A37",
">. c #CD1C1D",
",. c #D51E1F",
"<. c #C33937",
"1. c #ED2122",
"2. c #9A410F",
"3. c #97400E",
"4. c #A5460F",
"5. c #A8470F",
"6. c #AA480F",
"7. c #9F413C",
"8. c #977923",
"9. c #897429",
"0. c #854A43",
"q. c #A34D47",
"w. c #836B5F",
"e. c #BE6058",
"r. c #846C61",
"t. c #8C7368",
"y. c #947A6E",
"u. c #937867",
"i. c #9A7E72",
"p. c #977D71",
"a. c #AE796E",
"s. c #CE5D56",
"d. c #C27F73",
"f. c #B48F26",
"g. c #DCAE29",
"h. c #80807F",
"j. c #9E8274",
"k. c #8C8267",
"l. c #A28476",
"z. c #AB8B7E",
"x. c #A5887B",
"c. c #B3996B",
"v. c #1A5D83",
"b. c #175D85",
"n. c #1B6087",
"m. c #1B6188",
"M. c #4D7081",
"N. c #6C899A",
"B. c #958E80",
"V. c #908C83",
"C. c #AE8E80",
"Z. c #AF9184",
"A. c #B39284",
"S. c #BD9A8B",
"D. c #B99486",
"F. c #A0A09F",
"G. c #A7A8A8",
"H. c #BABABA",
"J. c #C29F8E",
"K. c #C99889",
"L. c #C89F90",
"P. c #C5A191",
"I. c #CAA594",
"U. c #CDA897",
"Y. c #CEA998",
"T. c #D3AD9B",
"R. c #D7B09F",
"E. c #D9B19E",
"W. c #DCB4A2",
"Q. c #E2B9A6",
"!. c #E5BBA8",
"~. c #E8BEAB",
"^. c #E0B7A4",
"/. c #ECC1AE",
"(. c #EFC3B0",
"). c #F1C5B1",
"_. c #F6C9B5",
"`. c #F9CCB7",
"'. c #FCCDB8",
"]. c #FFD1BB",
"[. c #C7C7C7",
"{. c #DBDADA",
"}. c #E9E9E9",
"|. c #F4F4F4",
" X c #FEFEFF",
/* pixels */
"                                    o.O.o.                                      ",
"                                } H.}.|.|.G.                                    ",
"                                [. X X X|.{.(                                   ",
"                            h.H.{.G.B.c.) 2 O O       9.f.                      ",
"                          F.}.V.0 / u.c.w.' O X       8.g.                      ",
"                          [.O.v J.U.Y./.~.T.`                                   ",
"                          o.+.E.).~.).T.R.r.i.] | U.l.                          ",
"                            r.).P._.'.U.x.A.~._.T.Q._.'                         ",
"                            ' /.Q.).W.S.z.T.].'.P.W.'. .                        ",
"                            9 J._.S.y.D.z.A.R.J.J./.Y.                          ",
"                              t.Y.A.C.`.'.).Q.~.'.P.                            ",
"                            B A.T.T._.'.'.'.'.'._.y.          ' J.y./           ",
"                              r.y. ./.'.'.'.'.`.A.          N P.].`.!.P._       ",
"                                    x.I.I.W.T.p.9 e = - O v S.].'.'.'.].T./     ",
"                                    [ W.z._ 0 N -.>.u = + A.!.'.'.'.'.'.].D.    ",
"                                      l.].P.y.L.d.<.@.t O i.!.'.'.'.'.'.'.Q.N   ",
"                                    r ;.s.e.q.7.:.;.;.0.| !.'.'.~.!.'.'.).T.^   ",
"                                  , $.1.>.:.a.D.L.K.a.A.T.'.'.'.W.T.`.'.!.]     ",
"                                  e ,.@.n A.U.Q.U.W.R.l.(.'.'.~.E.'.'.'.).v     ",
"                                    #.y c C.T.S./.T.!.C._.`.`.I.T.'.'.'./.j.i.  ",
"                                    r q O 7 x r.I.W.Q.| ).'._.T.).'.'.'.T.S.I.N ",
"                                      @ . . . S ..E.C. .z._.'.'.'.'.'.'.C.x.    ",
"                                      O . . X P ~ Z.~.^.T.`.'.'.'.'.].S./       ",
"                                        . . . C ! z.!.'.].].'.`.~.`.U.^         ",
"                                        o . . X * O 7 ' j.I.W.D.j.t.b           ",
"                                          . . . . . . . . # 2 8 8               ",
"                                          + . . . . . . . . . o                 ",
"                                          + X . . . . . . . .                   ",
"                                          X . . . . . . . . X                   ",
"                                          O . . . . . . . . o                   ",
"                                          . . . . . . . . . O                   ",
"                                        o . . . . . . . . X                     ",
"                                        . . . . . . . . . O                     ",
"                                      O . . . . . . . . X                       ",
"                                    O O . . . . . . . . O                       ",
"                                  # . . . . . . . . . O                         ",
"                                S m a . . . . . . . X %                         ",
"                              5 v.~ V M 1 @ X % % . . o                         ",
"                              L m.m.Q { 9.8.k.[.B.1 #                           ",
"                            4 R m.n.m.v.W ! M.N.X.7                             ",
"                            6 W m.n.n.n.m.m.v.b.L                               ",
"                            6 v.n.n.n.n.m.m.v.v.T 6                             ",
"                            S m.n.n.m.I H P I v.m.E D                           ",
"                            H m.n.n.m.H Z E v.n.n.m.v.I A                       ",
"                          3 T m.n.n.m.R I m.n.n.n.n.n.m.v.D &                   ",
"                          4 E W n.n.n.v.H W m.n.n.n.n.n.m.v.H 3                 ",
"                          6 T P v.n.n.m.P 5 Z I v.n.n.n.n.m.I 3                 ",
"                          6 W H v.n.n.n.v.5 A I v.n.n.n.n.m.H                   ",
"                          4 W n.n.n.n.n.m.I I m.n.n.n.n.n.n.A > p i ;           ",
"                          4 E m.n.n.n.n.n.v.H v.m.m.m.m.v.P 7 *.5.5.j $         ",
"                            I m.n.n.n.n.n.m.L D T R T I L S l 5.5.6.&.$         ",
"                            L n.m.m.m.m.m.v.I A F F F G 9 =.5.5.2.k > O         ",
"                        d 7 S J R E R R T I I 9 %.%.k i k &.j g > - O           ",
"                    z *.2.%.j s G P I U U K x > > w > : ; - -                   ",
"                  h 5.6.5.6.5.2.j s 8 s l *.j ;                                 ",
"                  p 5.5.5.5.5.5.6.4.*.&.j g :                                   ",
"                  - h 4.5.6.6.6.6.5.3.j > -                                     ",
"                    - w g k k j g i > -                                         ",
"                        $ - $ # +                                               "
};
