/* XPM */
static char *_83faf3d3ef34358c48d7a6115065b3aNHtdmNX2qOfuojFg[] = {
/* columns rows colors chars-per-pixel */
"32 32 22 1 ",
"  c #FF2626",
". c #FF2626",
"X c #FF2626",
"o c #FF2626",
"O c #FF2626",
"+ c #FF2626",
"@ c #FF2626",
"# c #FF2626",
"$ c #FF2626",
"% c #FF2626",
"& c #FF2626",
"* c #FF2626",
"= c #FF2626",
"- c #FF2626",
"; c None",
": c #FF2626",
"> c #FF2626",
", c #FF2626",
"< c #FF2626",
"1 c #FF2626",
"2 c #FF2626",
"3 c white",
/* pixels */
" .XXXXXXXXXXXXXXXXXXXXXXXXXXXXoO",
"+@#$$$$$$$$$$$$$$$$$$$$$$$$$$$%&",
"*=22222222222222222222222222222-",
"*=22222222222222222222222222222-",
"*=22222222222222222222222222222-",
"*=22222222222222222222222222222-",
"*=22222222222222222222222222222-",
"*=22222222222222222222222222222-",
"*=22222222222222222222222222222-",
"*=22222222222222222222222222222-",
"*=22222222222222222222222222222-",
"*=22222222222222222222222222222-",
"*=22222222222222222222222222222-",
"*=22222222222222222222222222222-",
"*=22222222222222222222222222222-",
"*=22222222222222222222222222222-",
"*=22222222222222222222222222222-",
"*=22222222222222222222222222222-",
"*=22222222222222222222222222222-",
"*=22222222222222222222222222222-",
"*=22222222222222222222222222222-",
"*=22222222222222222222222222222-",
"*=22222222222222222222222222222-",
"*=22222222222222222222222222222-",
"*=22222222222222222222222222222-",
"*=22222222222222222222222222222-",
"*=22222222222222222222222222222-",
"*=22222222222222222222222222222-",
"*=22222222222222222222222222222-",
"*=22222222222222222222222222222-",
"*=2;;;;;;;;;;;;;;;;;;;;;;;;;;;2-",
":>,,,,,,,,,,,,,,,,,,,,,,,,,,,,<1"
};
