/* XPM */
static char *da56c368f9034f2efd96f7713e7d8c04clQpO1eEsJCG0zQw[] = {
/* columns rows colors chars-per-pixel */
"32 32 71 1 ",
"  c white",
". c black",
"X c #F50829",
"o c #3933B9",
"O c #5A55C4",
"+ c #5B55C5",
"@ c #5A55C5",
"# c #5650BF",
"$ c #3E389C",
"% c #4B45AF",
"& c #6A66CA",
"* c #524CB5",
"= c #3C35BA",
"- c #312B9E",
"; c #322CB6",
": c #2B249A",
"> c #332CB6",
", c #332CB7",
"< c #322BB1",
"1 c #2B2496",
"2 c #2C268D",
"3 c #2A247C",
"4 c #2E279E",
"5 c #2E27A0",
"6 c #2C259A",
"7 c #2B2499",
"8 c #2A259A",
"9 c #29259A",
"0 c #2B2495",
"q c #2B247C",
"w c #18117D",
"e c #F5092A",
"r c #F50A2B",
"t c #F50B2C",
"y c #F50A2A",
"u c white",
"i c white",
"p c #6762C9",
"a c #6762C9",
"s c #6661C9",
"d c #6661C9",
"f c #625CC4",
"g c #4640A3",
"h c #3B34B9",
"j c #3731B8",
"k c None",
"l c #362FB8",
"z c #2F288D",
"x c #322BB6",
"c c #2D26B4",
"v c #2A2489",
"b c #322CB6",
"n c #2E27B5",
"m c #2B2489",
"M c #322CB7",
"N c #312AB1",
"B c #2A2486",
"V c #2C268F",
"C c #2A2488",
"Z c #2A2485",
"A c #2A2373",
"S c #352EB2",
"D c #2B24B4",
"F c #2C24B4",
"G c #2B24AE",
"H c #2C25B4",
"J c #2C25AE",
"K c #2C25B5",
"L c #2D26AE",
"P c #2C25A8",
"I c white",
/* pixels */
"u    .................XXXX..   i",
" oO+OOOOOOOOOOOOOOOOOOOOOOO@#$% ",
" &pasddddddddddddddddddddddafg* ",
" =hjkllllllllllllllllllkkkklSz- ",
" ;xcDDDDDDDDDDDDDDDDDDDDDDFDGv:.",
".>bnHHHHHHHHHHHHHHHHHHHHHHHHJv:.",
".>bnHHHHHHHHHHHHHHHHHHHHHHHHJv:.",
".>bnHHHHHHHHHHHHHHHHHHHHHHHHJm:.",
".>bnHHHHHHHHHHHHHHHHHHHHHHHHJv:.",
".>bnHHHHHHHHHHHHHHHHHHHHHHHHJv:.",
".>bnHHHHHHHHHHHHHHHHHHHHHHHHJv:.",
".>bnHHHHHHHHHHHHHHHHHHHHHHHHJv:.",
".>bnHHHHHHHHHHHHHHHHHHHHHHHHJv:.",
".>bnHHHHHHHHHHHHHHHHHHHHHHHHJv:.",
".>bnHHHHHHHHHHHHHHHHHHHHHHHHJv:.",
".>bnHHHHHHHHHHHHHHHHHHHHHHHHJv:.",
".>bnHHHHHHHHHHHHHHHHHHHHHHHHJv:.",
".>bnHHHHHHHHHHHHHHHHHHHHHHHHJv:.",
".>bnHHHHHHHHHHHHHHHHHHHHHHHHJv:.",
".>bnHHHHHHHHHHHHHHHHHHHHHHHHJv:.",
".>bnHHHHHHHHHHHHHHHHHHHHHHHHJv:.",
".>bnHHHHHHHHHHHHHHHHHHHHHHHHJv:.",
".>bnHHHHHHHHHHHHHHHHHHHHHHHHJv:.",
".>bnHHHHHHHHHHHHHHHHHHHHHHHHJv:.",
".>bnHHHHHHHHHHHHHHHHHHHHHHHHJv:.",
".>bnHHHHHHHHHHHHHHHHHHHHHHHHJv:.",
".>bnHHHHHHHHHHHHHHHHHHHHHHHHJv:.",
".,MnHHHHHHHHHHHHHHHHHHHHHHHKJv:.",
".<NLJJJJJJJJJJJJJJJJJJJJJJJJPB1.",
".2VmCCCCCCCCCCCCCCCCCCCCCCCCZA3 ",
".4567777777777777777789777770qw ",
"...................eertey..    u"
};
