/* XPM */
static char *_b6ad837adf84e8efc00a141c604ab5cnDzunJ6y6OXaQuk2[] = {
/* columns rows colors chars-per-pixel */
"64 64 163 2 ",
"   c #230500",
".  c #2D1200",
"X  c #361A01",
"o  c #3B1D03",
"O  c #3E2107",
"+  c #3E2208",
"@  c #43260C",
"#  c #43290E",
"$  c #472D13",
"%  c #4B2E14",
"&  c #4C3116",
"*  c #4E331A",
"=  c #53351B",
"-  c #54391E",
";  c #5A3B1C",
":  c #523722",
">  c #563C21",
",  c #5A3C23",
"<  c #5B3F29",
"1  c #5D4126",
"2  c #5E432A",
"3  c #604226",
"4  c #6B4A27",
"5  c #63452B",
"6  c #66492E",
"7  c #694A2D",
"8  c #674C32",
"9  c #6B4D33",
"0  c #6D5136",
"q  c #6E5339",
"w  c #725436",
"e  c #73553C",
"r  c #78563D",
"t  c #75593E",
"y  c #7A5B3E",
"u  c #745540",
"i  c #765B41",
"p  c #7B5D43",
"a  c #7D6146",
"s  c #7E6349",
"d  c #7F6451",
"f  c #806246",
"g  c #83654B",
"h  c #85694E",
"j  c #8B6B4E",
"k  c #90704A",
"l  c #856651",
"z  c #866B51",
"x  c #8B6D53",
"c  c #8D6E59",
"v  c #8D7156",
"b  c #8E7459",
"n  c #917256",
"m  c #9D7D57",
"M  c #93755B",
"N  c #96795E",
"B  c #997B5E",
"V  c #947661",
"C  c #967C61",
"Z  c #9B7D63",
"A  c #9D7E69",
"S  c #A07E65",
"D  c #9D8166",
"F  c #9E8369",
"G  c #A28265",
"H  c #AC8C66",
"J  c #A3856B",
"K  c #A9876D",
"L  c #A5896E",
"P  c #AA8B6D",
"I  c #B2926D",
"U  c #A48671",
"Y  c #A68B71",
"T  c #AA8D73",
"R  c #AD8E78",
"E  c #AD9176",
"W  c #AE9379",
"Q  c #B29375",
"!  c #BC9C76",
"~  c #B2957B",
"^  c #B9977E",
"/  c #B5997E",
"(  c #BA9A7D",
")  c #B59681",
"_  c #B69B81",
"`  c #B89A80",
"'  c #B99B83",
"]  c #B89D82",
"[  c #BB9D83",
"{  c #B99E83",
"}  c #BC9E82",
"|  c #B89984",
" . c #BA9C84",
".. c #BA9F84",
"X. c #BC9E84",
"o. c #BC9E86",
"O. c #BA9D83",
"+. c #B9A185",
"@. c #BAA085",
"#. c #BBA085",
"$. c #BFA187",
"%. c #BDA287",
"&. c #BDA186",
"*. c #BEA388",
"=. c #BFA489",
"-. c #BEA68A",
";. c #BEA389",
":. c #C19F86",
">. c #C1A387",
",. c #C1A286",
"<. c #C6A886",
"1. c #C1A389",
"2. c #C3A589",
"3. c #C0A58A",
"4. c #C1A68B",
"5. c #C4A68A",
"6. c #C4A68C",
"7. c #C2A48A",
"8. c #C9A78E",
"9. c #C3AB8F",
"0. c #C4A98E",
"q. c #C6A88E",
"w. c #C5AA8F",
"e. c #C5A98E",
"r. c #C9AB8D",
"t. c #C5A691",
"y. c #C5AB90",
"u. c #C6AB90",
"i. c #C7AF93",
"p. c #C6AB91",
"a. c #C8AA90",
"s. c #CBAD93",
"d. c #C8AE93",
"f. c #CAAC92",
"g. c #CBB095",
"h. c #CFB294",
"j. c #CEB096",
"k. c #CDB196",
"l. c #CEB098",
"z. c #CEB398",
"x. c #CEB49B",
"c. c #D0B296",
"v. c #D2B49A",
"b. c #D1B79C",
"n. c #D2B59B",
"m. c #D9B79E",
"M. c #D7B99F",
"N. c #D6B89E",
"B. c #D4BA9F",
"V. c #D4B99D",
"C. c #D9BB9F",
"Z. c #D5B6A1",
"A. c #D7BCA1",
"S. c #D7B9A1",
"D. c #DABDA3",
"F. c #E0BEA3",
"G. c #DBC0A5",
"H. c #DFC5AA",
"J. c #E5C7AF",
"K. c #E2C5AA",
"L. c #E7C9AF",
"P. c #E5C9AF",
"I. c #EACCB2",
/* pixels */
"1 3 h P Q >.6.L E ` s 5 / L R o.~ J T x g x L v ` a./ / / Z L h.g.D 2.T Z L ` E T E q.p.v h L C z F 9.b * D #.p.q.Y T Z / J g x ",
"Q G B Q 5.T M J n x 3 M / T A ~ o.S.n 6 M v.v g n J s.L.1.D T L A.l.2.=.E t F #.E q.F $.` v M E s.#./ p.0 6 v #./ L T x M v D q.",
"E P J T } ( T L L D J s T Z | V J s.L 9 w q.v N D Z g Z ` T n t 8 / ) L W v N L h E a L ;.L ~ #.W E =.V.E + i 8 p l / ~ ~ Z N Z ",
"h.T Q Q B ~ M.$.L J Z A D N R l.Z J ` g a / T q.L Q g e x g p f b L / Y _ Z u Q a v D E _ o.g.q v C ~ L D & L b Z v A J ` o.1.` ",
"h.G T 2.J M L T M ~ ` E J p u U E x p , D M.D D J Z N L T / o.Z J L / Q W D i D D h g.F i 8 J e 2 2 > s 8 q Y A.#.T A N E T / / ",
"L P B Z L j e x x ` J.L ) p u p u h N 5 O e 8 t 8 h n N v g M N 2 Z D / E T E F E 0 F z C q J b.V.W M Y D U x h / 2.` T T g N ~ ",
"/ ( g 9 B D x J x g C ;.o.~ M ` ;.1.6.v a E ` Z / 6.Z n T N p g F W C =.o.Z F 7.6 . X 5 $.L v M x.#.W N _ 2./ s x Z p 5 w % e / ",
"n 7 ; g ` $.~ ` L a J C T L V 0 N o./ 5 ` Q a.N.T / 6.N.2.T Q T J / Y C Z N * 9 & 0 0 p h h h u v #.%.0.Y W / E a D M Z ` 9 - t ",
"T 5 g P T ~ D x Z x l E ~ / A J Z x p 9 J ~ / E L L T x T $.Q E J / D h s t 5 % h f.J T T 2.F b v q E p.=.U E D F ~ E U ` N n N ",
"5.D N T L L h t ` ` l N p E T A t L J L x J N ~ A N n x J ` o.~ U h M D D 2.g.D Z D E J L Q h T p.8 a ~ J C / M W Y E J T N N N ",
"G N M Q } } J E N o.E Z = 1 l x ` / T Z A M Z T L T D L L J ~ A p h D.H.J F Y D T D D W 0.L Z b C a > s M D _ 2.T M 1.Q J L E J ",
"P t x Z ~ ~ Z ~ g g x p 9 = T ` T Z T T o.N J ~ Q o.x x / M T M D h L L W 7.L U Q W D E Q L / h z W i b / =./ L C 8 ~ E n L ` / ",
"L ; M e a x t 0 D n T ~ o.s J N ~ T J a.1.q.T L Q / 5 , h.T 6./ C M _ E T E N Q / L / M t D L / L E h Y L Y #.E =.% t D L ~ ` / ",
"f t K.~ B Q T Z / T U T ~ E U T ) ~ T T ` v.o.n x T 6 = 6.J ` ` #.M L F M E _ _ b.2.` Y i i h Z C s > N =.W W g.J * M q.T g Z $.",
"; a r.5.J Q E P 1.~ U U 7.u.p 0 9 p ~ J ~ L ` D p A 9 5 M x N N =.#.u.p.` W D h x M M ~ ~ v $.$.E C 6 a H.A.D b N 5 p J ` T Z 0 ",
"y f 3 D L ( T T D A 1.J 1.T s U T N v T A T ~ / Q T 5 9 f T Q Z a / Y J ;.Q Y q.T L A.W U p l D #.9.E $ * b W M t J / M Z / 2.g ",
"o./ p = N T L L J Z N T D.h x J ` ` o.1.J ` 6.q.g e & T o.T Q J Z G Z D E L 5.} G M ( $.G M x J E *.E L 6 o % M Z J C.#.E D Z ` ",
"` J / D g x Q J h N J A f w x D L M M o.o.o.N w w o.Z - 1.T T T 5.r.Z Q N w B n p y M N T n v L L @.P h.5.g Z g 1.M L L Q D M E ",
"L M / $.L g T q.T x Q M % M g Z Q L N v 9 0 t g M L / , 2.6.q.T B Q c.E 6 p x P n g L n g 9 T T / *.Q $.5.M ^ g L L $.( Q D L P ",
"T D D Z T n N L E x N J t E / 1.x f 0 t p A T / L t Z 6 g $.1.Z n h Q n p E T Q 2.T M T C.f y M D E 2.E ~ T S M p M Q D h h 9.K.",
"E ~ Q M A ~ o.N Z / x E Z p s.q.1.T N / 6.6.T E E 2.1.5 3 T J / T N j D Q a Q Z T r.>.T L ` ( 5 0 D L N T >.Z Q Q x n N a > g N ",
"D ` $.L E L E 1.T o./ N v p Z T ~ n g / / Z Z D.L a./ 5 8 p p A n M E T q.f Z v B s./ J T D B ` 7 ` L E T L G ( P w j P E M b h ",
"Z / ` D D 0 t T T Z q.N Z / Z / $.A x ` 6.T J M.o.A x J T n J J A x ` x s.v.J N N L Q J ~ / T Z t T *.V.5.K K G :.g P ~ Q T T U ",
"A L 6.D e f T x J T ~ 6./ T 1.Q / T N T L Z x T / M 1 ` 6.E o.$.a.` T h ` $.E a.v J / f T T J W p - v N L ~ Q K P ; Z r.2.D C / ",
"L h Z p 1 T E / v x n T Q E Q L ` E J A T T T Q T L p T o.L ~ Z 2./ ~ J L x ` x L E N D L n A F J 8 t M a M Q K G j w P P E o.T ",
"x Z J Z ~ Z L E $.A A T T N x x D Q T J T N E 1.E Q w x ` / J J T ~ ~ M A Z 1.t Z ` E T ) T T ) e a T F B n P P G G g D 7 N y.;.",
"t a.K.T Z x T L M N T J T 6.n - N / / L L h Z J T L x @ J ` 1.x J ) D.D.) s ~ / 3 T s.o.o.` R u.T D ~ T Z ( 4 y Q ! B ~ 6 h J Z ",
"h a Q s.T s.$.1.p L N.A x Q v 5 N T / L Q T A Z Z q.D.T - n h 5 x p Z l.f.g D ) n J o.T o.S./ C J 1 b.T ( P 4 Q ( Q B } h , q x ",
"T g A 1.L $./ ` J n ` / T J a x g f A v Z 2.J L L Z L N $ t h T Z x n J ~ Z C l g f T C p J E D W 9 U x.P I ; k ! ( Q ( T % e ;.",
"x / T D T h L Z E t M 2.6.J x T A M J v 5 J n N g 9 f 6 2.` E T Z E / Z g p f f 8 @ 1 w 5 s c q 2 : p Z L f I H H ( <.>.h.2 i Y ",
"t g t D s.J / T o.M n A g 0 n s.o.6.E / , Z T Z / v.~ n T q.L E R ~ | o.| ~ T ) A M A o.T c Z U z z * s G ! r.I m m P ~ / < i d ",
"6.Q A g 5 T a.` s.f = t x f M L N / v 2.1 L D./ ` $.E D Z T ` ` J T | 7.t.o.U T A x 8 N ~ b V ) x.x.` J >.( H ( K j N L f = U x.",
"n Q I./ ~ p t N t Z L x 2.L / / D J J D & s v.J ~ / Y D b E Y x.` T A J ~ / T J L A M 5 o.1.N u Z ~ / L L ( Q n T F.:.T % t o.R ",
"D Z J L 6.M 3 x , J 6.T / Z ~ Q T v / x h & s L Q H.E M 2 & 9 i A T Q E / 1.o.T o./ T v 5 v v M ~ 2.~ 8.Z g K K v ^ E j 9 S L ~ ",
"L M E s.L x x E J Q T J A Z ~ / L N U _ / e v M h L p.v 5 D M v t w a Z T J J T 2.T / L x L ~ Z x T $.~ ~ T f o.O.1.~ 6 x h.x x ",
"/ Z Z L N L E T N J / D./ N N J D U u.$.s.E + 0 h g.C p / #.D J N t 8 a v g p p D ` N.2.` Q 1.M.1.a D J L Z f / N T v.x x s.Q / ",
"~ ` a 6 / $.J T T n p Z a g J / z t v F h q M x % = h 7.=.L E Z / Q A h N T D p t L L a.N A x T ~ s.l i / a J ~ J v $.$.M L 2.J ",
"L / x f ` E L / L Z p n x T T M p g z t q ) T l.` 5 q 0 s Y E E T ` ` T E 1.o.L x 9 3 x p h v t E Z t - - # M M / t 6 W N M b.Y ",
"T N t Z T / E N N $.a.2.J T ` T N q.E u.M 2._ s ) L T L 8 1 s.$.J L ~ ` Q L D J T g x a v e ` 1.E v J _ o.z O 1 J Q q D u 1 U W ",
"J T e Z L 2.T Z x T / T N M T T v Y L C T M E =.g.T Y Y _ 0 = M x Z T T T T T A t E / a.a.x x ` o.2.D D Z G.D # & ;.q h s p L #.",
"6.J g N M 1.s.L J J T J n / A g J V.Y z E $.M a Q T C D E s h F p % a ` J Z D Q h T q.~ ` ` x x E o./ _ _ Q / L % b ) s h L 7.Y ",
"T M p s.Z L o.L ` J / ` L L x T W 0.h.x.h b C v F D L L Z a J / o.o.5 Z 2.E / Z n N / L J s.~ e h h v L E U / u.C $ v x.C E W E ",
"` / t a Q Z J 6 o.s./ Z / a = a._ #.p.` - h L M Q L / / M t D D L E / 8 J J ` / 5 a E J M E L p J E _ T T ) E J E E & - 0 u M ) ",
"p / T g L a a % t o.Q J ` 9 @ M Q L #.p C x / U / U Q _ Q C T D Z x $.x = q.L T f N n M ~ ~ x p K.E L ~ / E L 7.Q v p C h > L C ",
"Z D T L = h L J 1 p x E p , h 0 g h a =.U T i _ L ` Q L 7.#.#.L ~ J J E = 0 v h $.2.L D / E n g T ` O.L K o.} T A M L g L g 6 s.",
"` L Q J v c.a.T / E A 2.p t 1.E x - D ) q.C M Z h E F g T / ` L T E ` T N   p o.E ` $./ D L L t N S J T N w p f f ` 1.Z N ~ w g ",
"T E T 8 ~ o.q.o.A ` J ` M N x J / t / / ~ Q ` F t q q a J J ` ` ~ ` Q T / x = c.L J A T ~ ` Q 9 x :.K M g x O.L ~ 6.o.m.T T ~ r ",
"9 1 , a ` J L J p D L / x =.N T ` a T / L D J / L > 1 L $.b L / A / 1.N Q A X p ~ $.J T o.T T ~ % g t N J Z 1.B N f / >.T L ^ t ",
"Z Z L b q F L Q M M D W v L #.E ` w Z q.E D D E T f 6 / o.L T T J T ` 2.` ~ n % h M s.D.T ` L T : 8 D =.Q E b @.2.n D E n T , e ",
"=.Z 0.P.C C ;.J h 2.x b / h D x.D.t 9 / 2.1./ 6.$.8 = T / $.J / ~ J Z a.n c.N.N , / x J I.K.` $.q C F _ W W P E / / E / o.p p U ",
"N 0.J T v.x q v q L J D _ v C C A f 5 t 0 x ` D.s.Z , Z N 1.E J q.Q n $.N g a.N % A Z t g v 6 t X U E C W 9.E D P h y g n f ;.D ",
"g W / E 2.h 5 & 5 u u.E D W x - % N ` Q N a A J T / 3 n h D h.Z ` ` / ~ q.L T J = O = , 6 x g h D 1 D C C =.D B.*.v x a O 1 ~ ) ",
"J s U b u M $.E 9 N / U T E q h J E E D L t D E E E t D N t T g / E c.T Q L.p x s.` 9 N h.T ~ E W R - q D t M E Q Q s.D.Z & < u ",
"a 1 u z W q.2.G.p / M ` 7.h p h.T T ~ A T x T ` a.Q ~ T T n M 9 t 0 x Z N N L E D a.N a E L T Z C b.+.- z Y h E D M M ( ~ f f.U ",
"/ t u T Q / ` 6.t T v ~ / g J 6.L T o.` L J L $.~ T / T T ` / Z N J g x Z @ ~ ~ M N D p n ` o.l F C -.a 1 a D L T E Q T q u Z.J ",
"A Z M s.E M J o.5 L A 9 M J T D $.g t T n x 1 g L D v / J Z o.1.` D.A 9 x A J Q ~ Z g T E p / Z s g.~ t Y N e a g N x t o t A Z.",
"T L M $.N.J N ~ 5 f g N N M T / L M J x 8 p a , a J T N / Z Z T L T x ~ s.T ~ T T $.T h E ` x D C ) z s V.L D v y D M e q g A ) ",
"$.2.Z h ~ o.` n % L E L ` T 5 A x / T / p f $.` Z n x g / ~ f a p 9 e T L L s.Q L L E ~ ~ ` T z T _ 8 b *./ / P v E D./ Z Z ~ M ",
"5.T p 5 g x x 3 , x ~ L J o.8 E $.T L A p o.D ~ D./ / p 9 x = M Z Q v N E N D / Z x L s.Q Z T T * z $ a 0.+.L +.v a T $.S.J ~ ~ ",
"t p x N r 0 n ( x g 1.` L ^ r Z T 2.T Q L 1.J p N v.T Q a w N J L D n N v N ` / T x N Q 1.Q T 2.Z i q 1 E ~ @.D E D p 5 E C p p ",
"T L n Z v ` T P B x ~ K T n t B v L N t p T Q M h A T / Z c.E T o.E Z h e t g e p p T T J E J #.C U +.- W D t h P P e 5 U ~ A T ",
"/ ` S n f ` / 1.N t K K A f L T / L ` , = T ~ 1.~ / T L g 1.$.~ T 1.D f Z J x v 5 @ N 6.J A T ` +.Y +.- > b M F ` T E $.~ U ~ t.",
"D.r.T f x J Z J T p ~ O.J J 5.P g ~ $.Z , 9 M x J x T M 5 T L a.s.Q Q L Z 2.c.T L 1 - J Q T 1.U x.i.C 2 b x.L D x D >.Q Z J ) U ",
"M T ^ 8 v A T ~ T n f 8 x ( ~ 1.J x T D 9 T h a N t , w , g ` / / ` D p N ;.2.$.J / - = 8 0 T N C D u > e L / E Z v Z B $.N D ~ "
};
