/* XPM */
static char *d6a87d9027e04832e49721cc24f1eaeb8SJhKz6gJbN9AJSt[] = {
/* columns rows colors chars-per-pixel */
"64 64 219 2 ",
"   c #010206",
".  c #03060B",
"X  c #05090D",
"o  c #0B0B0B",
"O  c #08070D",
"+  c #120F0B",
"@  c #14110E",
"#  c #050B14",
"$  c #090D13",
"%  c #0A0F19",
"&  c #0D1117",
"*  c #0D131C",
"=  c #141312",
"-  c #11161C",
";  c #13191D",
":  c #1C1917",
">  c #241D15",
",  c #281B13",
"<  c #20170E",
"1  c #2D241B",
"2  c #2A241A",
"3  c #31291F",
"4  c #2D200F",
"5  c #0D1621",
"6  c #0E1923",
"7  c #101723",
"8  c #121A24",
"9  c #191E23",
"0  c #151D2A",
"q  c #181F29",
"w  c #16212C",
"e  c #1A232D",
"r  c #1B242A",
"t  c #1A2433",
"y  c #1D2A3B",
"u  c #1B2736",
"i  c #232324",
"p  c #23252B",
"a  c #28292B",
"s  c #342D22",
"d  c #362F26",
"f  c #3B3225",
"g  c #3C3529",
"h  c #3F392B",
"j  c #363024",
"k  c #292E35",
"l  c #222C3C",
"z  c #2D333B",
"x  c #2C3135",
"c  c #37393D",
"v  c #312F34",
"b  c #513816",
"n  c #433B2D",
"m  c #493D2E",
"M  c #483327",
"N  c #533C28",
"B  c #463D32",
"V  c #4A3E33",
"C  c #453E38",
"Z  c #593D31",
"A  c #412F23",
"S  c #5A401D",
"D  c #684919",
"F  c #79521A",
"G  c #48412F",
"H  c #4C4234",
"J  c #4E453A",
"K  c #4B4436",
"L  c #514535",
"P  c #514A36",
"I  c #534539",
"U  c #544A3B",
"Y  c #5B4D3D",
"T  c #5E4834",
"R  c #5A513E",
"E  c #5D4A22",
"W  c #6B4B21",
"Q  c #775627",
"!  c #745338",
"~  c #6B5234",
"^  c #222F40",
"/  c #2E3644",
"(  c #283444",
")  c #323A42",
"_  c #3A3C43",
"`  c #353E4A",
"'  c #3E4146",
"]  c #3C444D",
"[  c #3F4A57",
"{  c #43494C",
"}  c #564D40",
"|  c #5C5242",
" . c #5A5449",
".. c #464B54",
"X. c #4C545B",
"o. c #565557",
"O. c #635645",
"+. c #665949",
"@. c #6B5C4C",
"#. c #665749",
"$. c #745949",
"%. c #665953",
"&. c #6B624E",
"*. c #6A6456",
"=. c #726352",
"-. c #7C6C54",
";. c #756C5A",
":. c #7B6C5B",
">. c #766656",
",. c #79715C",
"<. c #756446",
"1. c #545D64",
"2. c #5C6571",
"3. c #676568",
"4. c #7B7464",
"5. c #7B7468",
"6. c #666E75",
"7. c #6B7275",
"8. c #6A737C",
"9. c #787978",
"0. c #796A63",
"q. c #89611C",
"w. c #845C21",
"e. c #986D29",
"r. c #876535",
"t. c #956B2D",
"y. c #AB7C38",
"u. c #87654A",
"i. c #866957",
"p. c #84745D",
"a. c #91734C",
"s. c #A17A51",
"d. c #887866",
"f. c #877567",
"g. c #A67A62",
"h. c #B1803B",
"j. c #9E865A",
"k. c #A48454",
"l. c #B48C4F",
"z. c #94836B",
"x. c #978466",
"c. c #8D8579",
"v. c #958574",
"b. c #9D917C",
"n. c #8E8066",
"m. c #A58872",
"M. c #AE8B6F",
"N. c #CA957B",
"B. c #777C86",
"V. c #6E7780",
"C. c #7A828D",
"Z. c #7B8796",
"A. c #868689",
"S. c #948B83",
"D. c #989187",
"F. c #838B93",
"G. c #878C95",
"H. c #8A939C",
"J. c #999A9C",
"K. c #94979A",
"L. c #A4998A",
"P. c #A69986",
"I. c #A19A90",
"U. c #A39E98",
"Y. c #BC9F8D",
"T. c #ADA497",
"R. c #B4AA9C",
"E. c #B1A189",
"W. c #8F98A2",
"Q. c #939BA3",
"!. c #979FAA",
"~. c #99A1AA",
"^. c #9EA6B0",
"/. c #A8A7A7",
"(. c #BBB1A7",
"). c #BDB4AC",
"_. c #BEB9AE",
"`. c #A3ABB4",
"'. c #ACB5BD",
"]. c #BDBAB6",
"[. c #B3AEA8",
"{. c #C89A82",
"}. c #D4AC93",
"|. c #D9AF95",
" X c #E6B799",
".X c #C4B7A9",
"XX c #D8BDA6",
"oX c #C3BDB6",
"OX c #D0BCB1",
"+X c #E2BDA2",
"@X c #CCC5BE",
"#X c #CBC1B6",
"$X c #DCCABC",
"%X c #B4BBC4",
"&X c #B9BFC7",
"*X c #B9C0C8",
"=X c #CDC9C3",
"-X c #C8C5C3",
";X c #D1CBC7",
":X c #D5CECA",
">X c #D9CFCD",
",X c #DCCFC7",
"<X c #D6D2CD",
"1X c #DAD2CE",
"2X c #DDD5D2",
"3X c #DED9D5",
"4X c #DFDBD9",
"5X c #E1D6D4",
"6X c #E1DAD6",
"7X c #E2DDD9",
"8X c #E9DEDC",
"9X c #E6E1DD",
"0X c #E9E3DF",
"qX c #EAE5E1",
"wX c #EEE9E5",
"eX c #E7E3E0",
"rX c #F0EBE5",
"tX c #F1ECE8",
"yX c #F4F1EC",
/* pixels */
"3X0X0X0X0X0X7X7X7X7X3X7X7X7X7X6X3X3X4X7X7X6X7X7X6X3X6X7X7X3XOX}.XX$X9XqX0XwXqX0X0X7X7X7X7X7X7X3X7X6X6X6X3X3X7X7X6X7X7X7X0X0X0X0X",
"3X0X0X0X0X0X7X7X7X7X7X3X7X7X7X3X3X7X7X3X6X7X7X7X7X3X3X3X7X.XM.}.+X+X$X0X7X0X0X7X6X6X7X7X6X3X6X3X3X3X3X3X3X3X7X3X6X7X7X7X0X0X0X0X",
"3X0XqX0X0X0X0X0X7X7X7X7X7X7X7X3X3X3X3X6X6X7X7X7X7X7X3X3X7XE.g.N.|. XXX7X7X7X7X7X7X7X7X7X7X3X7X3X3X3X3X6X3X3X7X7X3X7X7X7X0X0X7X0X",
"7X0X0X0X0X0XqXqX0X7X0X7X7X7X7X3X3X7X6X3X3X2X2X5X6X3X3X7X2Xb.a.g.N.|.}.7X7X7X7X3X3X6X7X7X7X6X7X3X6X3X3X6X6X7X0X6X3X6X7X7X7X7X0XqX",
"3XqX0X0XqXqXqX0X0X7X0X0X7X7X7X7X7X7X7X6X2X2X2X2X6X3X3XeXR.@.@.u.u.m.m.OX0X6X6X3X2X3X7X7X6X3X7X7X3X3X6X7X7X7X7X6X3X3X6X0X7X7X0XqX",
"2X0X0X0X0XqXqXqX0X0X0X0X7X7X6X7X7X7X7X6X5X2X2X2X2X7X3X0X.X>.} V $.%.m.$X7X7X7X3X2X3X7X7X3X3X7X3X3X3X3X7X6X3X3X6X3X2X6X0X6X7X0XqX",
"2X0X7X7X0X0X0XqXqX0X7X6X7X6X6X6X6X6X6X3X5X2X2X2X2X7X3X7X3XL.T Z g.u.Y.7X6X7X7X3X3X6X7X6X3X3X6X3X3X3X3X3X3X3X3X6X6X3X3X7X6X6XqXwX",
"3X0X7X7X7X7X0X0X0X0X7X7X3X3X6X7X6X6X6X5X5X2X2X2X2X2X3X6XwXoXV , M ! .XqX3X7X7X3X3X7X7X6X6X3X7X7X6X2X3X3X3X7X7X6X6X3X3X7X7X3XqXqX",
"3X0X7X6X7X7X7X7X7X7X7X6X3X3X7X7X6X3X3X5X6X2X2X2X2X1X7X8XJ.9.j 1 Z $.9.G.0X7X3X3X3X7X7X6X6X7X7X6X6X3X3X6X6X7X7X6X3X3X3X6X6X7X0XqX",
"3X0X7X6X7X7X7X7X6X7X3X3X3X3X7X7X3X2X2X3X6X3X2X2X2X7X;X7.z 7.i + , 3.8.y F.3X0X3X7X7X7X7X7X6X7X6X6X3X3X6X6X6X6X6X3X3X3X3X6X7X0X0X",
"3X0X7X7X7X7X7X7X7X7X7X3X6X3X6X6X3X2X2X3X6X6X3X2X8X[.[ * X.' ' _ o...] w y 2.;XqX7X3X7X7X6X7X7X6X6X3X3X6X6X6X6X6X3X3X3X3X3X3X7X0X",
"3X0X7X7X7X7X6X7X7X7X7X6X6X3X6X6X6X3X3X6X6X7X6X2XA.q   * r ) ` C.Z.X.z * $ * [ J.6X3X3X7X7X7X7X6X6X3X6X6X6X6X6X6X3X3X3X3X3X3X7XqX",
"2X0X7X7X3X3X6X6X7X7X7X7X7X6X6X3X6X5X5X6X6X7X8X9.6 7 0 0 # 2.G.W.`.^.) ^ t * y y B.7X3X6X7X7X7X6X2X2X3X5X6X6X6X6X3X3X3X2X3X6X0XqX",
"2X7X7X7X3X3X7X7X7X7X7X7X7X3X7X3X7X6X7X7X6X0X/.w w w t 8 7 F.%X%X&X~.z u ( t l u ^ ].0X3X3X7X7X3X2X2X6X6X6X6X6X6X3X3X3X6X6X3X7XqX",
"2X7X7X7X7X7X7X7X7X7X7X7X7X3X7X7X7X7X7X7X7X6X' 5 e 0 0 - $ 8.`.%X&X`.z u ^ u t l 0 B.0X3X3X7X7X6X3X2X6X3X5X5X6X6X3X2X2X7X7X6X0XqX",
"2X7X7X7X7X7X7X7X0X7X7X7X7X7X7X0X7X7X7X6XqX].- e 8 $ 5 & 7 C.~.&X&X`.) 0 l u 0 u t ` =X7X3X6X6X3X2X2X3X2X3X6X5X7X6X3X3X3X6X7X0XqX",
"2X7X4X7X7X0X9X0X0X0X6X7X7X7X7X0X0X0X7X6XrXJ.. r $ $ 5 $ e C.Q.&X%X`.z 0 t w e t t w J.0X2X3X3X6X3X3X3X5X3X3X6X7X3X3X6X3X3X7X0XqX",
"<X7X7X7X7X7X0X7X3X3X3X7X6X3X7X7X7X0X7X6XwXD.  t $ * * # ) H.Q.*X&X^.k 8 t 8 e t 7 5 2.9X6X7X6X3X5X3X3X3X6X3X3X6X7X3X6X3X3X7X0XqX",
"<X7X7X7X7X4X0X7X3X3X2X2X3X6X7X7X7X6X6X6X0XK.. t * & & . ] Q.~.&X%X~.k 8 0 7 0 u 7 8 / -X0X7X7X3X3X5X3X5X6X3X6X6X3X2X3X3X6X7X0X0X",
"<X6X7X7X7X7X7X7X3X3X3X2X3X7X7X7X7X3X7X7X0X7.  q & $ $ . ` C.Q.'.%XW.a w u 0 * t 7 q 5 7.0X7X7X3X2X2X5X6X6X3X2X3X3X2X6X7X7X7X0X0X",
"<X3X7X7X7X7X7X7X6X6X3X3X3X7X0X7X6X7X7X7X0X{   q - $ $ O ..B.F.`.&X^.k 7 u u 8 0 * $ # z 3X7X7X7X3X6X6X5X3X2X2X5X6X7X6X7X7X7X0X0X",
":X3X6X6X6X7X6X7X3X3X3X3X6X7X0X7X7X7X7X0X;Xk O r q O $ O ) V.W.`.'.F.9 7 e w 0 q $ . 5 ] 2X7X7X7X6X7X6X6X6X6X2X5X6X6X6X6X6X7X0X0X",
":X2X2X3X2X6X6X6X3X3X6X6X3X7X7X7X3X3X3XqX/.w O * w . $ O z 6.H.~.'.H.r * 0 t 8 7 O % * ` 2X7X7X6X7X6X6X6X6X6X2X3X2X2X2X2X2X7X0X8X",
"1X2X2X6X6X6X7X7X7X7X7X6X6X6X6X3X3X3X3X0X9..   O 7 O & O ) 1.G.~.`.Q.p 5 6 u t 7 % 0 7 / 2X7X7X7X7X6X6X6X6X6X3X2X2X1X2X2X2X7X8X7X",
"1X3X2X3X3X7X3X7X7X7X7X0X0X0X7X7X7X7X7X0XX.  O . # $ ; O X.6.Q.`.^.W.k 0 q w u 7 * e t / 2X7X7X7X6X6X7X7X6X3X2X2X2X2X2X3X2X7X7X7X",
"1X7X3X3X3X4X7X7X6X7X7X0X0X0X7X7X7X7X7X7X{   O O $ $ ; # 1.7.F.!.~.C.k 7 0 0 t 7 * t 0 ..4X7X7X7X6X3X7X7X6X3X3X2X2X2X2X3X2X7X7X7X",
"2X7X6X3X3X7X0X0X0X7X7X0X7X7X7X7X7X7X7X7X{   . . X ; ; $ p _ ] ....i $ 0 * 0 * $ & w 6 3.0X3X7X0X7X3X6X6X3X3X3X3X6X3X3X2X2X6X7X8X",
"2X7X3X7X7X7X7X7X0X7X7X7X7X7X7X7X6X7X6X3Xc   O   a e & # o : + : : o o 0 7 # z ' # 8 6 A.0X3X0XqX7X3X3X6X3X3X3X3X6X3X3X2X2X6X7X8X",
"3X0X0X0X0X7X7X7X7X7X7X7X7X7X7X7X7X7X7X3Xz #   a /.w $ O @ a = + = o = w 0 # 9.c # e t [.0X3X9XqX7X7X3X3X3X3X3X3X5X3X6X6X3X6X7X7X",
"2X0X7X0X0X0X7X7X0X0X0X0X0X7X7X7X7X7X0X3Xx %   3.-X; O ; > j K I U g @ 8 0 7 A.r 5 0 / =X7X3X7XqX7X7X3X7X6X3X3X3X5X2X5X3X6X6X7X7X",
"2X9X7X0X0X0X0X0XqXqXqXqX0X0XqX0X0X0XqX3X9 #   9.wXo.$ d V B @.&.>.n = ; a C ).p 5 0 X.7X3X7X0X0X7X7X7X7X7X6X6X6X6X6X6X6X6X7X7X0X",
";X2X2X2X3X3X3X3X3X3X3X3X3X2X7X3X3X3X3X3X9.H M 0.qX*.3 h J K U V O.K g @.p.| v.V v % 3.8X1X2X2X3X3X2X2X2X2X2X2X2X2X1X2X2X2X3X6X7X",
";X2X2X2X2X>X2X2X>X1X2X2X2X2X1X1X2X2X2X3X9Xd.N A S. .g P H B H H U B #.z.d.Y $.d.{.p.].rX7X3X2X3X7X7X7X6X6X6X7X7X3X2X3X2X1X2X3X3X",
"2X7X6X6X6X5X5X5X3X6X6X6X6X7X7X7X7X7X7X7X0XD.M #.S.J s g H H m H H n K d.:.N $.$.g..XyX0XqXqX0X0X0X0XwXqXqX0XqX0X0X7X0X7X6X6X7X7X",
"2X7X6X6X5X5X5X5X6X6X3X2X6X7X7X7XeXqX0X0XqX2X).;X<XU 3 1 s m g 1 d d V :.n.H #.f.f.#X7X3X3X7X7X0X7X7XqXqXqXqXqX0X0X0X0X7X3X3X6X7X",
"2X7X6X3X5X6X6X7X6X6X6X6X5X6X6X6X0XqXqXwXtXtXrXeX:X| s g B B 3 s B B J &.z.R c.qX6X6X6X6X6X6X6X7X7X7X7X0X0X0X0X0X0X0X7X7X7X3X3X7X",
">X6X5X2X5X6X6X6X6X6X7X6X6X2X2X6X0XqXqXqX0XqX7X7X1X&.j g K f = > H G I @.z.-.I.qX6X6X7X7X7X6X6X7X7X7X7X7X7X7X7X7X7X7X7X7X7X7X6X3X",
">X5X5X2X2X2X5X7X6X6X7X7X6X3X2X7X0X0X0X7X7X6X7X0X2X;.m L H j > 3 U H V O.n.z.(.0X6X7X7X6X2X2X2X6X7X7X7X7X7X7X7X7X7X7X7X3X3X3X3X3X",
">X5X2X2X2X6X7X6X6X6X7X7X7X7X6X7X0XqX0X7X7X7X7X0X6X4.G L L g 2 s g H H } p.z..XeX5X5X2X2X2X2X2X2X6X7X7X7X3X3X6X6X3X3X7X3X3X3X3X7X",
">X6X2X2X2X5X5X5X6X7X7X8X7X7X7X7X0X0X0X7X7X7X7X7X1X,.G L H n 1 > s s h U ;.-.).0X7X5X1X2X1X2X2X2X3X6X7X6X2X3X3X3X3X3X7X7X6X3X3X7X",
"1X7X2X2X2X5X6X6X5X2X3X7X7X7X7X0XqX0X0X0X7X7X7X7X1X*.H H H V 1 : n n g U :.>.T.0X6X5X2X2X2X2X5X5X5X5X7X6X3X3X3X6X6X3X7X7X6X7X7X0X",
">X6X3X6X6X6X6X2X2X2X6X7X7X8X7X7XqX0X0X7X3X7X7X7X0X;.j B H V > g } n B O.p.-.R.0X3X6X2X2X1X2X5X2X2X2X6X6X3X3X3X6X7X3X6X7X6X7X7X7X",
"1X6X7X7X7X6X5X2X2X5X3X3X8XqX0X7X0X7X7X7X7X7X6X7X2X,.f V U H 3  .*.3 Y +.:.p..X0X3X3X3X6X5X2X2X2X2X2X3X5X5X3X3X6X7X6X3X6X7X0X7X7X",
"1X3X7X7X0X7X6X5X2X6X6X6X7X0X7X6X7X7X7X7X6X7X6X7X:X,.H H H H 2 5.I.n Y | | +.oXqX3X2X7X7X5X5X2X2X1X2X3X5X6X3X6X6X7X7X3X6X7X0X7X7X",
">X6X6X7X7X7X7X7X7X6X7X7X7X7X7X6X7X3X7X7X3X3X6X7X<X;.U H L V g ].@XR H Y Y +.@X0X7X3X6X6X6X6X2X2X2X2X2X2X2X7X6X7X7X7X7X7X7X0X7X7X",
":X6X7X7X7X7X7X0X0X7X7X6X5X6X6X6X3X3X3X7X3X3X6X7X6Xd.P L L m U ;X).J P | &.+.(.0X4X4X6X7X6X7X5X2X2X2X6X6X3X7X7X7X7X7X7X7X7X7X7X0X",
"1X6X7X7X7X8X0X0X7X7X7X6X6X6X6X6X3X6X3X7X3X7X7X7XrXL.P P L H B oXS.H | +.=.#.c.7X7X7X7X7X7X7X6X3X2X2X6X3X6X7X7X7X7X7X7X7X7X7X7X7X",
"1X6X6X7X7X7X7X7X7X6X6X6X6X6X6X7X7X6X7X7X7X0X0X0XwX_.U P L m g #Xc.H H I O.-.z.2X7X7X7X7X7X6X7X6X6X5X6X6X7X7X7X7X7X7X7X7X0X0X0X0X",
"2X3X3X7X6X7X7X7X7X6X6X6X3X3X3X7X7X7X7XqXqX7X0X0X0X2X&.m U H n ].I.m n g n +.b.3X6X6X7X7X7X7X7X7X7X7X6X7X7X7X7X6X3X4X7X7X9X0XqXqX",
"3X3X3X3X6X7X7X6X6X6X3X3X3X2X2X6X7X7X0XqX0X7X7X7X0X7Xd.H L V s S.[.j n n L @.v.3X3X7X7X0X7X7X7X7X6X3X3X3X3X7X7X6X2X3X6X3X3X7X0XqX",
"2X7X3X3X3X3X3X3X6X3X5X2X2X3X2X6X7X7X7X7X7X7X7X7X0X3X4.R L H n 4.oXj 2 g U =.>.@X0X7X7X7X7X6X7X3X6X6X6X7X7X7X7X3X2X5X5X5X2X5X6X7X",
"3X0X0X6X3X3X6X3X6X5X5X2X3X3X2X5X7X7X7X7X7X7X7X7X7X7X4.P I H H *.=X .m | Y +.=.@X0X7X7X7X7X6X7X7X6X6X7X7X0X6X3X3X5X2X>X2X2X2X2X2X",
"3X0X0X7X3X3X7X3X6X5X6X6X3X3X3X6X6X7X7X7X7X0X0X0X7X9X4.n H h 3 K =X:.H O.=.+.L.7X3X7X7X7X7X7X7X6X6X7X7X7X7X3X3X3X5X1X>X>X1X1X:X>X",
"3X0X7X6X3X3X6X3X6X7X7X7X6X6X3X6X6X3X6X7X7X7X0X0X0X1XO.A 3 > < n ;X4.m Y @.p._.7X3X7X7X7X6X6X7X6X6X6X6X7X7X7X7X2X2X1X>X>X>X>X>X1X",
"7XqX7X7X3X7X6X7X7X7X7X6X7X6X6X6X7X3X3X7X0X7X7X7X7X0X4.3 s 2 1 c.qX9.> n L :.oX0X3X6X7X7X3X3X7X7X7X7X7X7X3X3X7X2X2X2X>X1X1X>X2X2X",
"0XwX0X7X6X7X7X7X7X7X7X7X7X7X7X7X0X7X7X0X7X7X7X7X7X0X;.4 n g } =X0XU.@ 2 s f >.=X7X3X7X7X3X3X7X7X7X7X6X6X7X3X3X3X2X2X2X2X2X2X2X6X",
"7XtXqX7X7X7X7X7X7X7X0X7X7X7X0X0X0X0X0X7X0X7X7X7XwX_.b b N f d.7X3X=XJ V O.O.O.T.qX4X7X6X3X3X7X7X7X6X6X7X6X3X6X3X3X3X3X3X3X3X3X3X",
"7XwX7X7X7X7X7X7X0X0X0X7X7X7X7X7X9X0X7X7X9X7X7XeX1Xx.W S Q b b.0X<X0X5.n T ~ x.2X6X6X6X7X7X6X7X7X7X6X3X7X7X3X3X3X3X3X3X3X3X3X3X3X",
"2XqX3X6X7X7X7X7X7X7X0X7X6X6X7X7X7X7X6X7X3X2X7X#Xk.r.Q W ~ E R.qX<X0X=XY b D m.8X2X2X3X3X3X3X7X7X7X6X6X7X3X3X6X2X3X3X3X3X3X3X3X3X",
"3X0X3X3X3X7X7X7X7X6X7X3X7X7X7X7X7X6X6X6X6X5X1Xa.t.t.F Q p.D.<X7X2X6X7X-.F e.x.6X2X2X2X2X2X3X6X6X7X6X6X7X7X7X6X3X3X3X3X3X3X3X3X3X",
"2X0X3X3X3X3X6X6X7X7X7X6X7X7X7X7X7X6X6X6X6X6X1X<.D Q r.P.<X0X0X3X2X7X9Xj.q.y.k.2X5X3X3X3X6X6X6X6X7X7X7X0X0X7X7X7X7X7X7X3X3X3X3X3X",
"<X7X3X3X3X3X6X3X3X6X6X6X6X7X7X7X7X5X2X2X3X2X6X@XR.(.@X7X7X3X7X2X<X0X4Xa.e.h.l.,X3X5X6X6X5X6X6X6X6X3X3X7X6X7X7X7X7X7X7X7X3X3X3X3X",
"3X7X6X3X3X3X3X3X7X7X7X7X7X7X7X7X8X7X6X2X2X2X5X7X0X0X8X6X7X7X7X2X<X0X8Xn.D w.s.,X2X2X5X5X5X6X6X6X7X7X7X7X7X7X7X0X7X7X7X7X7X7X3X6X",
"1X2X2X1X:X<X2X2X2X2X3X3X3X3X3X3X7X6X2X:X;X:X>X:X:X<X<X<X<X1X2X;X<X2X7X(.-.u.E.>X:X1X2X>X1X1X>X1X2X3X3X6X3X2X2X3X3X2X2X1X2X3X<X1X"
};
